<svg width="2421" height="2096" viewBox="0 0 2421 2096" fill="none" xmlns="http://www.w3.org/2000/svg">
<g opacity="0.5" clip-path="url(#clip0_2007_3171)">
<path opacity="0.05" d="M79.0073 919.765C362.867 226.748 646.727 79.8408 930.586 479.044C1214.45 878.248 1498.31 1025.16 1782.17 919.765" stroke="url(#paint0_linear_2007_3171)" stroke-width="1.5" stroke-linecap="round"/>
<path opacity="0.08" d="M79.0073 891.022C362.867 217.167 646.727 79.8405 930.586 479.044C1214.45 878.248 1498.31 1015.57 1782.17 891.022" stroke="url(#paint1_linear_2007_3171)" stroke-width="1.5" stroke-linecap="round"/>
<path opacity="0.11" d="M79.0073 862.28C362.867 207.586 646.727 79.8407 930.586 479.044C1214.45 878.248 1498.31 1005.99 1782.17 862.28" stroke="url(#paint2_linear_2007_3171)" stroke-width="1.5" stroke-linecap="round"/>
<path opacity="0.14" d="M79.0073 833.537C362.867 198.005 646.727 79.8405 930.586 479.044C1214.45 878.248 1498.31 996.412 1782.17 833.537" stroke="url(#paint3_linear_2007_3171)" stroke-width="1.5" stroke-linecap="round"/>
<path opacity="0.17" d="M79.0073 804.794C362.867 188.424 646.727 79.8405 930.586 479.044C1214.45 878.248 1498.31 986.831 1782.17 804.794" stroke="url(#paint4_linear_2007_3171)" stroke-width="1.5" stroke-linecap="round"/>
<path opacity="0.2" d="M79.0073 776.052C362.867 178.843 646.727 79.8407 930.586 479.044C1214.45 878.248 1498.31 977.251 1782.17 776.052" stroke="url(#paint5_linear_2007_3171)" stroke-width="1.5" stroke-linecap="round"/>
<path opacity="0.23" d="M79.0073 747.309C362.867 169.262 646.727 79.8407 930.586 479.044C1214.45 878.248 1498.31 967.67 1782.17 747.309" stroke="url(#paint6_linear_2007_3171)" stroke-width="1.5" stroke-linecap="round"/>
<path opacity="0.26" d="M79.0073 718.567C362.867 159.682 646.727 79.8409 930.586 479.045C1214.45 878.248 1498.31 958.089 1782.17 718.567" stroke="url(#paint7_linear_2007_3171)" stroke-width="1.5" stroke-linecap="round"/>
<path opacity="0.3" d="M79.0073 689.824C362.867 150.1 646.727 79.8405 930.586 479.044C1214.45 878.248 1498.31 948.508 1782.17 689.824" stroke="url(#paint8_linear_2007_3171)" stroke-width="1.5" stroke-linecap="round"/>
<path opacity="0.33" d="M79.0073 661.081C362.867 140.52 646.727 79.8408 930.586 479.045C1214.45 878.248 1498.31 938.927 1782.17 661.081" stroke="url(#paint9_linear_2007_3171)" stroke-width="1.5" stroke-linecap="round"/>
<path opacity="0.36" d="M79.0073 632.339C362.867 130.939 646.727 79.8408 930.586 479.044C1214.45 878.248 1498.31 929.346 1782.17 632.339" stroke="url(#paint10_linear_2007_3171)" stroke-width="1.5" stroke-linecap="round"/>
<path opacity="0.39" d="M79.0073 603.596C362.867 121.358 646.727 79.8409 930.586 479.045C1214.45 878.248 1498.31 919.766 1782.17 603.596" stroke="url(#paint11_linear_2007_3171)" stroke-width="1.5" stroke-linecap="round"/>
<path opacity="0.42" d="M79.0073 574.853C362.867 111.777 646.727 79.8406 930.586 479.044C1214.45 878.248 1498.31 910.184 1782.17 574.853" stroke="url(#paint12_linear_2007_3171)" stroke-width="1.5" stroke-linecap="round"/>
<path opacity="0.45" d="M79.0073 546.111C362.867 102.196 646.727 79.8408 930.586 479.044C1214.45 878.248 1498.31 900.604 1782.17 546.111" stroke="url(#paint13_linear_2007_3171)" stroke-width="1.5" stroke-linecap="round"/>
<path opacity="0.48" d="M79.0073 517.368C362.867 92.6151 646.727 79.8405 930.586 479.044C1214.45 878.248 1498.31 891.022 1782.17 517.368" stroke="url(#paint14_linear_2007_3171)" stroke-width="1.5" stroke-linecap="round"/>
<path opacity="0.51" d="M79.0073 488.625C362.867 83.0344 646.727 79.8407 930.586 479.044C1214.45 878.248 1498.31 881.442 1782.17 488.625" stroke="url(#paint15_linear_2007_3171)" stroke-width="1.5" stroke-linecap="round"/>
<path opacity="0.54" d="M79.0073 459.882C362.867 73.4532 646.727 79.8404 930.586 479.044C1214.45 878.248 1498.31 871.861 1782.17 459.882" stroke="url(#paint16_linear_2007_3171)" stroke-width="1.5" stroke-linecap="round"/>
<path opacity="0.57" d="M79.0073 431.14C362.867 63.8724 646.727 79.8405 930.586 479.044C1214.45 878.248 1498.31 862.28 1782.17 431.14" stroke="url(#paint17_linear_2007_3171)" stroke-width="1.5" stroke-linecap="round"/>
<path opacity="0.6" d="M79.0073 402.397C362.867 54.2916 646.727 79.8406 930.586 479.044C1214.45 878.248 1498.31 852.699 1782.17 402.397" stroke="url(#paint18_linear_2007_3171)" stroke-width="1.5" stroke-linecap="round"/>
<path opacity="0.63" d="M79.0073 373.654C362.867 44.7107 646.727 79.8406 930.586 479.044C1214.45 878.248 1498.31 843.118 1782.17 373.654" stroke="url(#paint19_linear_2007_3171)" stroke-width="1.5" stroke-linecap="round"/>
<path opacity="0.66" d="M79.0073 344.912C362.867 35.1297 646.727 79.8404 930.586 479.044C1214.45 878.248 1498.31 833.537 1782.17 344.912" stroke="url(#paint20_linear_2007_3171)" stroke-width="1.5" stroke-linecap="round"/>
<path opacity="0.69" d="M79.0073 316.169C362.867 25.5488 646.727 79.8406 930.586 479.044C1214.45 878.248 1498.31 823.956 1782.17 316.169" stroke="url(#paint21_linear_2007_3171)" stroke-width="1.5" stroke-linecap="round"/>
<path opacity="0.72" d="M79.0073 287.427C362.867 15.968 646.727 79.8406 930.586 479.044C1214.45 878.248 1498.31 814.375 1782.17 287.427" stroke="url(#paint22_linear_2007_3171)" stroke-width="1.5" stroke-linecap="round"/>
<path opacity="0.75" d="M79.0073 258.684C362.867 6.38704 646.727 79.8405 930.586 479.044C1214.45 878.248 1498.31 804.794 1782.17 258.684" stroke="url(#paint23_linear_2007_3171)" stroke-width="1.5" stroke-linecap="round"/>
<path opacity="0.79" d="M79.0073 229.941C362.867 -3.19392 646.727 79.8405 930.586 479.044C1214.45 878.248 1498.31 795.213 1782.17 229.941" stroke="url(#paint24_linear_2007_3171)" stroke-width="1.5" stroke-linecap="round"/>
<path opacity="0.82" d="M79.0073 201.198C362.867 -12.7748 646.727 79.8404 930.586 479.044C1214.45 878.248 1498.31 785.632 1782.17 201.198" stroke="url(#paint25_linear_2007_3171)" stroke-width="1.5" stroke-linecap="round"/>
<path opacity="0.85" d="M79.0073 172.456C362.867 -22.3554 646.727 79.8407 930.586 479.044C1214.45 878.248 1498.31 776.052 1782.17 172.456" stroke="url(#paint26_linear_2007_3171)" stroke-width="1.5" stroke-linecap="round"/>
<path opacity="0.88" d="M79.0073 143.713C362.867 -31.9365 646.727 79.8405 930.586 479.044C1214.45 878.248 1498.31 766.471 1782.17 143.713" stroke="url(#paint27_linear_2007_3171)" stroke-width="1.5" stroke-linecap="round"/>
<path opacity="0.91" d="M79.0073 114.97C362.867 -41.5174 646.727 79.8405 930.586 479.044C1214.45 878.248 1498.31 756.89 1782.17 114.97" stroke="url(#paint28_linear_2007_3171)" stroke-width="1.5" stroke-linecap="round"/>
<path opacity="0.94" d="M79.0073 86.228C362.867 -51.0981 646.727 79.8407 930.586 479.044C1214.45 878.248 1498.31 747.309 1782.17 86.228" stroke="url(#paint29_linear_2007_3171)" stroke-width="1.5" stroke-linecap="round"/>
<path opacity="0.97" d="M79.0073 57.4853C362.867 -60.679 646.727 79.8406 930.586 479.044C1214.45 878.248 1498.31 737.728 1782.17 57.4853" stroke="url(#paint30_linear_2007_3171)" stroke-width="1.5" stroke-linecap="round"/>
</g>
<g opacity="0.5" clip-path="url(#clip1_2007_3171)">
<path opacity="0.05" d="M1189.12 2068.9C899.798 1378.14 996.638 1073.55 1479.64 1155.11C1962.64 1236.67 2267.23 1139.83 2393.43 864.587" stroke="url(#paint31_linear_2007_3171)" stroke-width="1.5" stroke-linecap="round"/>
<path opacity="0.08" d="M1168.79 2048.58C893.023 1371.37 996.638 1073.55 1479.64 1155.11C1962.64 1236.67 2260.46 1133.05 2373.11 844.263" stroke="url(#paint32_linear_2007_3171)" stroke-width="1.5" stroke-linecap="round"/>
<path opacity="0.11" d="M1148.47 2028.25C886.248 1364.6 996.638 1073.55 1479.64 1155.11C1962.63 1236.67 2253.68 1126.28 2352.78 823.938" stroke="url(#paint33_linear_2007_3171)" stroke-width="1.5" stroke-linecap="round"/>
<path opacity="0.14" d="M1128.14 2007.93C879.473 1357.82 996.638 1073.55 1479.64 1155.11C1962.64 1236.67 2246.91 1119.5 2332.46 803.614" stroke="url(#paint34_linear_2007_3171)" stroke-width="1.5" stroke-linecap="round"/>
<path opacity="0.17" d="M1107.82 1987.6C872.698 1351.05 996.638 1073.55 1479.64 1155.11C1962.63 1236.67 2240.13 1112.73 2312.13 783.29" stroke="url(#paint35_linear_2007_3171)" stroke-width="1.5" stroke-linecap="round"/>
<path opacity="0.2" d="M1087.5 1967.28C865.924 1344.27 996.638 1073.55 1479.64 1155.11C1962.64 1236.67 2233.36 1105.95 2291.81 762.966" stroke="url(#paint36_linear_2007_3171)" stroke-width="1.5" stroke-linecap="round"/>
<path opacity="0.23" d="M1067.17 1946.96C859.149 1337.5 996.638 1073.55 1479.64 1155.11C1962.63 1236.67 2226.58 1099.18 2271.49 742.642" stroke="url(#paint37_linear_2007_3171)" stroke-width="1.5" stroke-linecap="round"/>
<path opacity="0.26" d="M1046.85 1926.63C852.374 1330.72 996.638 1073.55 1479.64 1155.11C1962.63 1236.67 2219.81 1092.4 2251.16 722.318" stroke="url(#paint38_linear_2007_3171)" stroke-width="1.5" stroke-linecap="round"/>
<path opacity="0.3" d="M1026.52 1906.31C845.6 1323.95 996.638 1073.55 1479.64 1155.11C1962.64 1236.67 2213.04 1085.63 2230.84 701.993" stroke="url(#paint39_linear_2007_3171)" stroke-width="1.5" stroke-linecap="round"/>
<path opacity="0.33" d="M1006.2 1885.98C838.826 1317.17 996.638 1073.55 1479.64 1155.11C1962.64 1236.67 2206.26 1078.86 2210.51 681.67" stroke="url(#paint40_linear_2007_3171)" stroke-width="1.5" stroke-linecap="round"/>
<path opacity="0.36" d="M985.875 1865.66C832.051 1310.4 996.638 1073.55 1479.64 1155.11C1962.64 1236.67 2199.49 1072.08 2190.19 661.345" stroke="url(#paint41_linear_2007_3171)" stroke-width="1.5" stroke-linecap="round"/>
<path opacity="0.39" d="M965.55 1845.34C825.276 1303.62 996.638 1073.55 1479.64 1155.11C1962.64 1236.67 2192.71 1065.31 2169.86 641.021" stroke="url(#paint42_linear_2007_3171)" stroke-width="1.5" stroke-linecap="round"/>
<path opacity="0.42" d="M945.226 1825.01C818.501 1296.85 996.638 1073.55 1479.64 1155.11C1962.64 1236.67 2185.94 1058.53 2149.54 620.697" stroke="url(#paint43_linear_2007_3171)" stroke-width="1.5" stroke-linecap="round"/>
<path opacity="0.45" d="M924.902 1804.69C811.726 1290.07 996.638 1073.55 1479.64 1155.11C1962.63 1236.67 2179.16 1051.76 2129.22 600.373" stroke="url(#paint44_linear_2007_3171)" stroke-width="1.5" stroke-linecap="round"/>
<path opacity="0.48" d="M904.579 1784.36C804.952 1283.3 996.638 1073.55 1479.64 1155.11C1962.64 1236.67 2172.39 1044.98 2108.89 580.049" stroke="url(#paint45_linear_2007_3171)" stroke-width="1.5" stroke-linecap="round"/>
<path opacity="0.51" d="M884.254 1764.04C798.177 1276.52 996.638 1073.55 1479.64 1155.11C1962.63 1236.67 2165.61 1038.21 2088.57 559.725" stroke="url(#paint46_linear_2007_3171)" stroke-width="1.5" stroke-linecap="round"/>
<path opacity="0.54" d="M863.93 1743.71C791.402 1269.75 996.638 1073.55 1479.64 1155.11C1962.64 1236.67 2158.84 1031.43 2068.24 539.401" stroke="url(#paint47_linear_2007_3171)" stroke-width="1.5" stroke-linecap="round"/>
<path opacity="0.57" d="M843.606 1723.39C784.628 1262.97 996.638 1073.55 1479.64 1155.11C1962.64 1236.67 2152.06 1024.66 2047.92 519.076" stroke="url(#paint48_linear_2007_3171)" stroke-width="1.5" stroke-linecap="round"/>
<path opacity="0.6" d="M823.282 1703.07C777.853 1256.2 996.638 1073.55 1479.64 1155.11C1962.64 1236.67 2145.29 1017.88 2027.6 498.752" stroke="url(#paint49_linear_2007_3171)" stroke-width="1.5" stroke-linecap="round"/>
<path opacity="0.63" d="M802.957 1682.74C771.078 1249.43 996.637 1073.55 1479.64 1155.11C1962.63 1236.67 2138.51 1011.11 2007.27 478.428" stroke="url(#paint50_linear_2007_3171)" stroke-width="1.5" stroke-linecap="round"/>
<path opacity="0.66" d="M782.634 1662.42C764.304 1242.65 996.638 1073.55 1479.64 1155.11C1962.64 1236.67 2131.74 1004.33 1986.95 458.104" stroke="url(#paint51_linear_2007_3171)" stroke-width="1.5" stroke-linecap="round"/>
<path opacity="0.69" d="M762.31 1642.09C757.529 1235.88 996.638 1073.55 1479.64 1155.11C1962.64 1236.67 2124.96 997.559 1966.62 437.78" stroke="url(#paint52_linear_2007_3171)" stroke-width="1.5" stroke-linecap="round"/>
<path opacity="0.72" d="M741.985 1621.77C750.754 1229.1 996.638 1073.55 1479.64 1155.11C1962.64 1236.67 2118.19 990.784 1946.3 417.456" stroke="url(#paint53_linear_2007_3171)" stroke-width="1.5" stroke-linecap="round"/>
<path opacity="0.75" d="M721.661 1601.45C743.979 1222.33 996.638 1073.55 1479.64 1155.11C1962.64 1236.67 2111.41 984.009 1925.98 397.132" stroke="url(#paint54_linear_2007_3171)" stroke-width="1.5" stroke-linecap="round"/>
<path opacity="0.79" d="M701.337 1581.12C737.204 1215.55 996.638 1073.55 1479.64 1155.11C1962.64 1236.67 2104.64 977.234 1905.65 376.807" stroke="url(#paint55_linear_2007_3171)" stroke-width="1.5" stroke-linecap="round"/>
<path opacity="0.82" d="M681.013 1560.8C730.43 1208.78 996.638 1073.55 1479.64 1155.11C1962.64 1236.67 2097.87 970.46 1885.33 356.483" stroke="url(#paint56_linear_2007_3171)" stroke-width="1.5" stroke-linecap="round"/>
<path opacity="0.85" d="M660.688 1540.47C723.655 1202 996.638 1073.55 1479.64 1155.11C1962.64 1236.67 2091.09 963.685 1865 336.159" stroke="url(#paint57_linear_2007_3171)" stroke-width="1.5" stroke-linecap="round"/>
<path opacity="0.88" d="M640.364 1520.15C716.88 1195.23 996.638 1073.55 1479.64 1155.11C1962.64 1236.67 2084.32 956.91 1844.68 315.835" stroke="url(#paint58_linear_2007_3171)" stroke-width="1.5" stroke-linecap="round"/>
<path opacity="0.91" d="M620.041 1499.83C710.106 1188.45 996.638 1073.55 1479.64 1155.11C1962.64 1236.67 2077.54 950.136 1824.36 295.511" stroke="url(#paint59_linear_2007_3171)" stroke-width="1.5" stroke-linecap="round"/>
<path opacity="0.94" d="M599.716 1479.5C703.331 1181.68 996.638 1073.55 1479.64 1155.11C1962.64 1236.67 2070.77 943.361 1804.03 275.187" stroke="url(#paint60_linear_2007_3171)" stroke-width="1.5" stroke-linecap="round"/>
<path opacity="0.97" d="M579.392 1459.18C696.556 1174.9 996.638 1073.55 1479.64 1155.11C1962.64 1236.67 2063.99 936.586 1783.71 254.863" stroke="url(#paint61_linear_2007_3171)" stroke-width="1.5" stroke-linecap="round"/>
</g>
<g opacity="0.6" clip-path="url(#clip2_2007_3171)" filter="url(#filter0_f_2007_3171)">
<path d="M268.9 704.097L504.422 599.078L375.534 310.029L140.013 415.048L268.9 704.097Z" fill="url(#paint62_radial_2007_3171)"/>
</g>
<defs>
<filter id="filter0_f_2007_3171" x="0" y="170.016" width="644.435" height="674.094" filterUnits="userSpaceOnUse" color-interpolation-filters="sRGB">
<feFlood flood-opacity="0" result="BackgroundImageFix"/>
<feBlend mode="normal" in="SourceGraphic" in2="BackgroundImageFix" result="shape"/>
<feGaussianBlur stdDeviation="70" result="effect1_foregroundBlur_2007_3171"/>
</filter>
<linearGradient id="paint0_linear_2007_3171" x1="85236.9" y1="260.183" x2="85236.9" y2="69520.2" gradientUnits="userSpaceOnUse">
<stop stop-color="#FF5200"/>
<stop offset="1" stop-color="#141414"/>
</linearGradient>
<linearGradient id="paint1_linear_2007_3171" x1="85236.9" y1="256.274" x2="85236.9" y2="68173.9" gradientUnits="userSpaceOnUse">
<stop stop-color="#FF5200"/>
<stop offset="1" stop-color="#141414"/>
</linearGradient>
<linearGradient id="paint2_linear_2007_3171" x1="85236.9" y1="252.224" x2="85236.9" y2="66964.1" gradientUnits="userSpaceOnUse">
<stop stop-color="#FF5200"/>
<stop offset="1" stop-color="#141414"/>
</linearGradient>
<linearGradient id="paint3_linear_2007_3171" x1="85236.9" y1="248.023" x2="85236.9" y2="65878.9" gradientUnits="userSpaceOnUse">
<stop stop-color="#FF5200"/>
<stop offset="1" stop-color="#141414"/>
</linearGradient>
<linearGradient id="paint4_linear_2007_3171" x1="85236.9" y1="243.665" x2="85236.9" y2="64908.4" gradientUnits="userSpaceOnUse">
<stop stop-color="#FF5200"/>
<stop offset="1" stop-color="#141414"/>
</linearGradient>
<linearGradient id="paint5_linear_2007_3171" x1="85236.9" y1="239.138" x2="85236.9" y2="64043.9" gradientUnits="userSpaceOnUse">
<stop stop-color="#FF5200"/>
<stop offset="1" stop-color="#141414"/>
</linearGradient>
<linearGradient id="paint6_linear_2007_3171" x1="85236.9" y1="234.434" x2="85236.9" y2="63278.3" gradientUnits="userSpaceOnUse">
<stop stop-color="#FF5200"/>
<stop offset="1" stop-color="#141414"/>
</linearGradient>
<linearGradient id="paint7_linear_2007_3171" x1="85236.9" y1="229.542" x2="85236.9" y2="62605.1" gradientUnits="userSpaceOnUse">
<stop stop-color="#FF5200"/>
<stop offset="1" stop-color="#141414"/>
</linearGradient>
<linearGradient id="paint8_linear_2007_3171" x1="85236.9" y1="224.45" x2="85236.9" y2="62019.2" gradientUnits="userSpaceOnUse">
<stop stop-color="#FF5200"/>
<stop offset="1" stop-color="#141414"/>
</linearGradient>
<linearGradient id="paint9_linear_2007_3171" x1="85236.9" y1="219.146" x2="85236.9" y2="61515.9" gradientUnits="userSpaceOnUse">
<stop stop-color="#FF5200"/>
<stop offset="1" stop-color="#141414"/>
</linearGradient>
<linearGradient id="paint10_linear_2007_3171" x1="85236.9" y1="213.616" x2="85236.9" y2="61091.6" gradientUnits="userSpaceOnUse">
<stop stop-color="#FF5200"/>
<stop offset="1" stop-color="#141414"/>
</linearGradient>
<linearGradient id="paint11_linear_2007_3171" x1="85236.9" y1="207.846" x2="85236.9" y2="60743.2" gradientUnits="userSpaceOnUse">
<stop stop-color="#FF5200"/>
<stop offset="1" stop-color="#141414"/>
</linearGradient>
<linearGradient id="paint12_linear_2007_3171" x1="85236.9" y1="201.819" x2="85236.9" y2="60468.1" gradientUnits="userSpaceOnUse">
<stop stop-color="#FF5200"/>
<stop offset="1" stop-color="#141414"/>
</linearGradient>
<linearGradient id="paint13_linear_2007_3171" x1="85236.9" y1="195.519" x2="85236.9" y2="60264.5" gradientUnits="userSpaceOnUse">
<stop stop-color="#FF5200"/>
<stop offset="1" stop-color="#141414"/>
</linearGradient>
<linearGradient id="paint14_linear_2007_3171" x1="85236.9" y1="188.925" x2="85236.9" y2="60130.9" gradientUnits="userSpaceOnUse">
<stop stop-color="#FF5200"/>
<stop offset="1" stop-color="#141414"/>
</linearGradient>
<linearGradient id="paint15_linear_2007_3171" x1="85236.9" y1="182.018" x2="85236.9" y2="60066.4" gradientUnits="userSpaceOnUse">
<stop stop-color="#FF5200"/>
<stop offset="1" stop-color="#141414"/>
</linearGradient>
<linearGradient id="paint16_linear_2007_3171" x1="85236.9" y1="174.773" x2="85236.9" y2="60070.7" gradientUnits="userSpaceOnUse">
<stop stop-color="#FF5200"/>
<stop offset="1" stop-color="#141414"/>
</linearGradient>
<linearGradient id="paint17_linear_2007_3171" x1="85236.9" y1="167.166" x2="85236.9" y2="60143.7" gradientUnits="userSpaceOnUse">
<stop stop-color="#FF5200"/>
<stop offset="1" stop-color="#141414"/>
</linearGradient>
<linearGradient id="paint18_linear_2007_3171" x1="85236.9" y1="159.17" x2="85236.9" y2="60286" gradientUnits="userSpaceOnUse">
<stop stop-color="#FF5200"/>
<stop offset="1" stop-color="#141414"/>
</linearGradient>
<linearGradient id="paint19_linear_2007_3171" x1="85236.9" y1="150.752" x2="85236.9" y2="60498.6" gradientUnits="userSpaceOnUse">
<stop stop-color="#FF5200"/>
<stop offset="1" stop-color="#141414"/>
</linearGradient>
<linearGradient id="paint20_linear_2007_3171" x1="85236.9" y1="141.879" x2="85236.9" y2="60783.1" gradientUnits="userSpaceOnUse">
<stop stop-color="#FF5200"/>
<stop offset="1" stop-color="#141414"/>
</linearGradient>
<linearGradient id="paint21_linear_2007_3171" x1="85236.9" y1="132.513" x2="85236.9" y2="61141.5" gradientUnits="userSpaceOnUse">
<stop stop-color="#FF5200"/>
<stop offset="1" stop-color="#141414"/>
</linearGradient>
<linearGradient id="paint22_linear_2007_3171" x1="85236.9" y1="122.612" x2="85236.9" y2="61576.4" gradientUnits="userSpaceOnUse">
<stop stop-color="#FF5200"/>
<stop offset="1" stop-color="#141414"/>
</linearGradient>
<linearGradient id="paint23_linear_2007_3171" x1="85236.9" y1="112.129" x2="85236.9" y2="62091" gradientUnits="userSpaceOnUse">
<stop stop-color="#FF5200"/>
<stop offset="1" stop-color="#141414"/>
</linearGradient>
<linearGradient id="paint24_linear_2007_3171" x1="85236.9" y1="101.01" x2="85236.9" y2="62689.4" gradientUnits="userSpaceOnUse">
<stop stop-color="#FF5200"/>
<stop offset="1" stop-color="#141414"/>
</linearGradient>
<linearGradient id="paint25_linear_2007_3171" x1="85236.9" y1="89.1967" x2="85236.9" y2="63376.1" gradientUnits="userSpaceOnUse">
<stop stop-color="#FF5200"/>
<stop offset="1" stop-color="#141414"/>
</linearGradient>
<linearGradient id="paint26_linear_2007_3171" x1="85236.9" y1="76.6214" x2="85236.9" y2="64156.7" gradientUnits="userSpaceOnUse">
<stop stop-color="#FF5200"/>
<stop offset="1" stop-color="#141414"/>
</linearGradient>
<linearGradient id="paint27_linear_2007_3171" x1="85236.9" y1="63.207" x2="85236.9" y2="65037.8" gradientUnits="userSpaceOnUse">
<stop stop-color="#FF5200"/>
<stop offset="1" stop-color="#141414"/>
</linearGradient>
<linearGradient id="paint28_linear_2007_3171" x1="85236.9" y1="48.8678" x2="85236.9" y2="66026.8" gradientUnits="userSpaceOnUse">
<stop stop-color="#FF5200"/>
<stop offset="1" stop-color="#141414"/>
</linearGradient>
<linearGradient id="paint29_linear_2007_3171" x1="85236.9" y1="33.5046" x2="85236.9" y2="67132.9" gradientUnits="userSpaceOnUse">
<stop stop-color="#FF5200"/>
<stop offset="1" stop-color="#141414"/>
</linearGradient>
<linearGradient id="paint30_linear_2007_3171" x1="85236.9" y1="17.003" x2="85236.9" y2="68366.3" gradientUnits="userSpaceOnUse">
<stop stop-color="#FF5200"/>
<stop offset="1" stop-color="#141414"/>
</linearGradient>
<linearGradient id="paint31_linear_2007_3171" x1="60938.4" y1="-58613.2" x2="109913" y2="-9638.99" gradientUnits="userSpaceOnUse">
<stop stop-color="#FF5200"/>
<stop offset="1" stop-color="#141414"/>
</linearGradient>
<linearGradient id="paint32_linear_2007_3171" x1="60935.7" y1="-58616" x2="108961" y2="-10590.9" gradientUnits="userSpaceOnUse">
<stop stop-color="#FF5200"/>
<stop offset="1" stop-color="#141414"/>
</linearGradient>
<linearGradient id="paint33_linear_2007_3171" x1="60932.8" y1="-58618.8" x2="108105" y2="-11446.4" gradientUnits="userSpaceOnUse">
<stop stop-color="#FF5200"/>
<stop offset="1" stop-color="#141414"/>
</linearGradient>
<linearGradient id="paint34_linear_2007_3171" x1="60929.8" y1="-58621.8" x2="107338" y2="-12213.8" gradientUnits="userSpaceOnUse">
<stop stop-color="#FF5200"/>
<stop offset="1" stop-color="#141414"/>
</linearGradient>
<linearGradient id="paint35_linear_2007_3171" x1="60926.8" y1="-58624.9" x2="106652" y2="-12900" gradientUnits="userSpaceOnUse">
<stop stop-color="#FF5200"/>
<stop offset="1" stop-color="#141414"/>
</linearGradient>
<linearGradient id="paint36_linear_2007_3171" x1="60923.6" y1="-58628.1" x2="106040" y2="-13511.3" gradientUnits="userSpaceOnUse">
<stop stop-color="#FF5200"/>
<stop offset="1" stop-color="#141414"/>
</linearGradient>
<linearGradient id="paint37_linear_2007_3171" x1="60920.2" y1="-58631.4" x2="105499" y2="-14052.7" gradientUnits="userSpaceOnUse">
<stop stop-color="#FF5200"/>
<stop offset="1" stop-color="#141414"/>
</linearGradient>
<linearGradient id="paint38_linear_2007_3171" x1="60916.8" y1="-58634.9" x2="105023" y2="-14528.7" gradientUnits="userSpaceOnUse">
<stop stop-color="#FF5200"/>
<stop offset="1" stop-color="#141414"/>
</linearGradient>
<linearGradient id="paint39_linear_2007_3171" x1="60913.2" y1="-58638.5" x2="104609" y2="-14943" gradientUnits="userSpaceOnUse">
<stop stop-color="#FF5200"/>
<stop offset="1" stop-color="#141414"/>
</linearGradient>
<linearGradient id="paint40_linear_2007_3171" x1="60909.4" y1="-58642.2" x2="104253" y2="-15298.9" gradientUnits="userSpaceOnUse">
<stop stop-color="#FF5200"/>
<stop offset="1" stop-color="#141414"/>
</linearGradient>
<linearGradient id="paint41_linear_2007_3171" x1="60905.5" y1="-58646.1" x2="103953" y2="-15598.9" gradientUnits="userSpaceOnUse">
<stop stop-color="#FF5200"/>
<stop offset="1" stop-color="#141414"/>
</linearGradient>
<linearGradient id="paint42_linear_2007_3171" x1="60901.4" y1="-58650.2" x2="103706" y2="-15845.3" gradientUnits="userSpaceOnUse">
<stop stop-color="#FF5200"/>
<stop offset="1" stop-color="#141414"/>
</linearGradient>
<linearGradient id="paint43_linear_2007_3171" x1="60897.2" y1="-58654.5" x2="103512" y2="-16039.8" gradientUnits="userSpaceOnUse">
<stop stop-color="#FF5200"/>
<stop offset="1" stop-color="#141414"/>
</linearGradient>
<linearGradient id="paint44_linear_2007_3171" x1="60892.7" y1="-58658.9" x2="103368" y2="-16183.8" gradientUnits="userSpaceOnUse">
<stop stop-color="#FF5200"/>
<stop offset="1" stop-color="#141414"/>
</linearGradient>
<linearGradient id="paint45_linear_2007_3171" x1="60888.1" y1="-58663.6" x2="103273" y2="-16278.3" gradientUnits="userSpaceOnUse">
<stop stop-color="#FF5200"/>
<stop offset="1" stop-color="#141414"/>
</linearGradient>
<linearGradient id="paint46_linear_2007_3171" x1="60883.2" y1="-58668.5" x2="103228" y2="-16323.8" gradientUnits="userSpaceOnUse">
<stop stop-color="#FF5200"/>
<stop offset="1" stop-color="#141414"/>
</linearGradient>
<linearGradient id="paint47_linear_2007_3171" x1="60878.1" y1="-58673.6" x2="103231" y2="-16320.8" gradientUnits="userSpaceOnUse">
<stop stop-color="#FF5200"/>
<stop offset="1" stop-color="#141414"/>
</linearGradient>
<linearGradient id="paint48_linear_2007_3171" x1="60872.7" y1="-58679" x2="103282" y2="-16269.2" gradientUnits="userSpaceOnUse">
<stop stop-color="#FF5200"/>
<stop offset="1" stop-color="#141414"/>
</linearGradient>
<linearGradient id="paint49_linear_2007_3171" x1="60867" y1="-58684.6" x2="103383" y2="-16168.6" gradientUnits="userSpaceOnUse">
<stop stop-color="#FF5200"/>
<stop offset="1" stop-color="#141414"/>
</linearGradient>
<linearGradient id="paint50_linear_2007_3171" x1="60861.1" y1="-58690.6" x2="103533" y2="-16018.2" gradientUnits="userSpaceOnUse">
<stop stop-color="#FF5200"/>
<stop offset="1" stop-color="#141414"/>
</linearGradient>
<linearGradient id="paint51_linear_2007_3171" x1="60854.8" y1="-58696.9" x2="103735" y2="-15817" gradientUnits="userSpaceOnUse">
<stop stop-color="#FF5200"/>
<stop offset="1" stop-color="#141414"/>
</linearGradient>
<linearGradient id="paint52_linear_2007_3171" x1="60848.2" y1="-58703.5" x2="103988" y2="-15563.6" gradientUnits="userSpaceOnUse">
<stop stop-color="#FF5200"/>
<stop offset="1" stop-color="#141414"/>
</linearGradient>
<linearGradient id="paint53_linear_2007_3171" x1="60841.2" y1="-58710.5" x2="104296" y2="-15256.1" gradientUnits="userSpaceOnUse">
<stop stop-color="#FF5200"/>
<stop offset="1" stop-color="#141414"/>
</linearGradient>
<linearGradient id="paint54_linear_2007_3171" x1="60833.8" y1="-58717.9" x2="104659" y2="-14892.2" gradientUnits="userSpaceOnUse">
<stop stop-color="#FF5200"/>
<stop offset="1" stop-color="#141414"/>
</linearGradient>
<linearGradient id="paint55_linear_2007_3171" x1="60825.9" y1="-58725.8" x2="105083" y2="-14469.1" gradientUnits="userSpaceOnUse">
<stop stop-color="#FF5200"/>
<stop offset="1" stop-color="#141414"/>
</linearGradient>
<linearGradient id="paint56_linear_2007_3171" x1="60817.5" y1="-58734.1" x2="105568" y2="-13983.5" gradientUnits="userSpaceOnUse">
<stop stop-color="#FF5200"/>
<stop offset="1" stop-color="#141414"/>
</linearGradient>
<linearGradient id="paint57_linear_2007_3171" x1="60808.6" y1="-58743" x2="106120" y2="-13431.5" gradientUnits="userSpaceOnUse">
<stop stop-color="#FF5200"/>
<stop offset="1" stop-color="#141414"/>
</linearGradient>
<linearGradient id="paint58_linear_2007_3171" x1="60799.2" y1="-58752.5" x2="106743" y2="-12808.6" gradientUnits="userSpaceOnUse">
<stop stop-color="#FF5200"/>
<stop offset="1" stop-color="#141414"/>
</linearGradient>
<linearGradient id="paint59_linear_2007_3171" x1="60789" y1="-58762.6" x2="107442" y2="-12109.2" gradientUnits="userSpaceOnUse">
<stop stop-color="#FF5200"/>
<stop offset="1" stop-color="#141414"/>
</linearGradient>
<linearGradient id="paint60_linear_2007_3171" x1="60778.2" y1="-58773.5" x2="108225" y2="-11327.1" gradientUnits="userSpaceOnUse">
<stop stop-color="#FF5200"/>
<stop offset="1" stop-color="#141414"/>
</linearGradient>
<linearGradient id="paint61_linear_2007_3171" x1="60766.5" y1="-58785.2" x2="109097" y2="-10454.9" gradientUnits="userSpaceOnUse">
<stop stop-color="#FF5200"/>
<stop offset="1" stop-color="#141414"/>
</linearGradient>
<radialGradient id="paint62_radial_2007_3171" cx="0" cy="0" r="1" gradientUnits="userSpaceOnUse" gradientTransform="translate(322.217 507.063) rotate(155.968) scale(567.325 696.262)">
<stop stop-color="#FF5200"/>
<stop offset="0.5" stop-color="#141414"/>
<stop offset="1" stop-color="#E0C5B8"/>
</radialGradient>
<clipPath id="clip0_2007_3171">
<rect width="1703" height="958" fill="white" transform="translate(79.0073)"/>
</clipPath>
<clipPath id="clip1_2007_3171">
<rect width="1703" height="958" fill="white" transform="translate(538.744 1418.53) rotate(-45)"/>
</clipPath>
<clipPath id="clip2_2007_3171">
<rect width="257.851" height="316.453" fill="white" transform="translate(504.422 599.078) rotate(155.968)"/>
</clipPath>
</defs>
</svg>
