<svg width="98" height="44" viewBox="0 0 98 44" fill="none" xmlns="http://www.w3.org/2000/svg">
<rect x="0.5" y="0.5" width="43" height="43" rx="5.5" stroke="#282726"/>
<path d="M16.08 22.3801C16.1276 22.5028 16.199 22.615 16.29 22.7101L21.29 27.7101C21.3832 27.8033 21.4939 27.8773 21.6158 27.9277C21.7376 27.9782 21.8681 28.0042 22 28.0042C22.2663 28.0042 22.5217 27.8984 22.71 27.7101C22.8032 27.6168 22.8772 27.5061 22.9277 27.3843C22.9781 27.2625 23.0041 27.1319 23.0041 27.0001C23.0041 26.7338 22.8983 26.4784 22.71 26.2901L19.41 23.0001H27C27.2652 23.0001 27.5196 22.8947 27.7071 22.7072C27.8946 22.5196 28 22.2653 28 22.0001C28 21.7348 27.8946 21.4805 27.7071 21.293C27.5196 21.1054 27.2652 21.0001 27 21.0001H19.41L22.71 17.7101C22.8037 17.6171 22.8781 17.5065 22.9289 17.3846C22.9797 17.2628 23.0058 17.1321 23.0058 17.0001C23.0058 16.868 22.9797 16.7373 22.9289 16.6155C22.8781 16.4936 22.8037 16.383 22.71 16.2901C22.617 16.1963 22.5064 16.1219 22.3846 16.0712C22.2627 16.0204 22.132 15.9943 22 15.9943C21.868 15.9943 21.7373 16.0204 21.6154 16.0712C21.4936 16.1219 21.383 16.1963 21.29 16.2901L16.29 21.2901C16.199 21.3852 16.1276 21.4973 16.08 21.6201C15.98 21.8635 15.98 22.1366 16.08 22.3801Z" fill="#F0F0F0"/>
<rect x="54.5" y="0.5" width="43" height="43" rx="5.5" fill="#161514"/>
<rect x="54.5" y="0.5" width="43" height="43" rx="5.5" stroke="#282726"/>
<path d="M81.92 21.6199C81.8724 21.4972 81.801 21.385 81.71 21.2899L76.71 16.2899C76.6168 16.1967 76.5061 16.1227 76.3842 16.0723C76.2624 16.0218 76.1319 15.9958 76 15.9958C75.7337 15.9958 75.4783 16.1016 75.29 16.2899C75.1968 16.3832 75.1228 16.4939 75.0723 16.6157C75.0219 16.7375 74.9959 16.8681 74.9959 16.9999C74.9959 17.2662 75.1017 17.5216 75.29 17.7099L78.59 20.9999H71C70.7348 20.9999 70.4804 21.1053 70.2929 21.2928C70.1054 21.4804 70 21.7347 70 21.9999C70 22.2652 70.1054 22.5195 70.2929 22.707C70.4804 22.8946 70.7348 22.9999 71 22.9999H78.59L75.29 26.2899C75.1963 26.3829 75.1219 26.4935 75.0711 26.6154C75.0203 26.7372 74.9942 26.8679 74.9942 26.9999C74.9942 27.132 75.0203 27.2627 75.0711 27.3845C75.1219 27.5064 75.1963 27.617 75.29 27.7099C75.383 27.8037 75.4936 27.8781 75.6154 27.9288C75.7373 27.9796 75.868 28.0057 76 28.0057C76.132 28.0057 76.2627 27.9796 76.3846 27.9288C76.5064 27.8781 76.617 27.8037 76.71 27.7099L81.71 22.7099C81.801 22.6148 81.8724 22.5027 81.92 22.3799C82.02 22.1365 82.02 21.8634 81.92 21.6199Z" fill="#F0F0F0"/>
</svg>
