<svg width="138" height="29" viewBox="0 0 138 29" fill="none" xmlns="http://www.w3.org/2000/svg">
<path d="M11.8894 6.2912C12.6689 5.51494 12.6752 4.25478 11.9034 3.47082L11.108 2.66292C10.3288 1.87148 9.05396 1.86649 8.26859 2.65181L0.585824 10.3342C0.210729 10.7093 0 11.218 0 11.7484V18.0689C0 18.0756 0.00268283 18.0821 0.00745511 18.0868C0.0173333 18.0967 0.0333026 18.0967 0.0431799 18.0868L11.8894 6.2912ZM7.5014 15.914C6.72034 15.133 6.72034 13.8667 7.50139 13.0856L8.27705 12.3099C9.0581 11.5289 10.3244 11.5289 11.1055 12.3099L16.6865 17.8909C17.4675 18.672 17.4675 19.9383 16.6865 20.7194L15.9109 21.495C15.1298 22.276 13.8635 22.2761 13.0824 21.495L7.5014 15.914ZM18.0867 28.9926C18.0966 28.9827 18.0966 28.9667 18.0868 28.9568L6.2912 17.1106C5.51494 16.3311 4.25478 16.3248 3.47082 17.0966L2.66293 17.892C1.87148 18.6712 1.8665 19.946 2.65183 20.7314L10.3343 28.4142C10.7094 28.7893 11.2181 29 11.7485 29H18.0688C18.0755 29 18.082 28.9973 18.0867 28.9926ZM10.9131 0.00739368C10.9032 0.0172368 10.9032 0.0331903 10.9131 0.0430544L22.7091 11.8896C23.4853 12.6692 24.7454 12.6755 25.5294 11.9037L26.3373 11.1083C27.1287 10.3292 27.1337 9.05434 26.3484 8.26896L18.6659 0.585845C18.2909 0.210737 17.7821 0 17.2517 0H10.9309C10.9242 0 10.9178 0.00265959 10.9131 0.00739368ZM12.3074 11.1091C11.5264 10.3281 11.5263 9.06172 12.3074 8.28067L13.0831 7.505C13.8641 6.72395 15.1304 6.72395 15.9115 7.505L21.4926 13.0861C22.2737 13.8671 22.2737 15.1335 21.4926 15.9145L20.7169 16.6902C19.9359 17.4712 18.6696 17.4712 17.8885 16.6902L12.3074 11.1091ZM17.8919 26.3369C18.6711 27.1284 19.9459 27.1334 20.7313 26.348L28.4142 18.6651C28.7893 18.29 29 17.7813 29 17.2509V15.6844C29 13.9047 26.85 13.0114 25.5888 14.2672L17.1107 22.7088C16.3311 23.4851 16.3248 24.7452 17.0967 25.5292L17.8919 26.3369ZM27 29C28.1046 29 29 28.1046 29 27V25.3105C29 23.5287 26.8457 22.6364 25.5858 23.8963L23.8963 25.5858C22.6364 26.8457 23.5287 29 25.3105 29H27ZM3.41425 23.8967C2.15434 22.6367 0 23.529 0 25.3108V27C0 28.1046 0.895431 29 2 29H3.68905C5.47083 29 6.36318 26.8458 5.10331 25.5858L3.41425 23.8967ZM28.9574 8.4752C28.9671 8.48496 28.9829 8.48496 28.9927 8.4752C28.9974 8.47052 29 8.46416 29 8.45754V2C29 0.895432 28.1046 0 27 0H25.311C23.5292 0 22.6369 2.1542 23.8967 3.41416L28.9574 8.4752ZM2 0C0.895431 0 0 0.895431 0 2V3.68901C0 5.47079 2.15424 6.36314 3.41418 5.10326L5.10327 3.41425C6.36324 2.15433 5.47092 0 3.68909 0H2Z" fill="#FF5200"/>
<path d="M130.371 25.3513C126.402 25.3513 123.621 22.4623 123.621 18.3313C123.621 14.1463 126.348 11.2573 130.263 11.2573C134.259 11.2573 136.797 13.9303 136.797 18.0883V19.0873L126.753 19.1143C126.996 21.4633 128.238 22.6513 130.425 22.6513C132.234 22.6513 133.422 21.9493 133.8 20.6803H136.851C136.284 23.5963 133.854 25.3513 130.371 25.3513ZM130.29 13.9573C128.346 13.9573 127.158 15.0103 126.834 17.0083H133.53C133.53 15.1723 132.261 13.9573 130.29 13.9573Z" fill="white"/>
<path d="M122.298 25.0001H119.031V4.91211H122.298V25.0001Z" fill="white"/>
<path d="M104.7 18.3043C104.7 14.1733 107.427 11.2573 111.369 11.2573C115.014 11.2573 117.498 13.2823 117.849 16.4953H114.555C114.177 14.9833 113.07 14.2003 111.504 14.2003C109.398 14.2003 107.994 15.7933 107.994 18.3043C107.994 20.8153 109.29 22.3813 111.396 22.3813C113.043 22.3813 114.204 21.5713 114.555 20.1133H117.876C117.471 23.2183 114.879 25.3513 111.396 25.3513C107.346 25.3513 104.7 22.5433 104.7 18.3043Z" fill="white"/>
<path d="M96.0093 25.3513C93.1743 25.3513 91.4463 23.7043 91.4463 21.1933C91.4463 18.7363 93.2283 17.1973 96.3873 16.9543L100.383 16.6573V16.3603C100.383 14.5513 99.3033 13.8223 97.6293 13.8223C95.6853 13.8223 94.6053 14.6323 94.6053 16.0363H91.7973C91.7973 13.1473 94.1733 11.2573 97.7913 11.2573C101.382 11.2573 103.596 13.2013 103.596 16.9003V25.0003H100.707L100.464 23.0293C99.8973 24.4063 98.0883 25.3513 96.0093 25.3513ZM97.0893 22.8673C99.1143 22.8673 100.41 21.6523 100.41 19.6003V18.8983L97.6293 19.1143C95.5773 19.3033 94.7943 19.9783 94.7943 21.0583C94.7943 22.2733 95.6043 22.8673 97.0893 22.8673Z" fill="white"/>
<path d="M80.7852 25.0003H77.4912V11.6623H80.5422L80.8122 13.3903C81.6492 12.0403 83.2692 11.2573 85.0782 11.2573C88.4262 11.2573 90.1542 13.3363 90.1542 16.7923V25.0003H86.8602V17.5753C86.8602 15.3343 85.7532 14.2543 84.0522 14.2543C82.0272 14.2543 80.7852 15.6583 80.7852 17.8183V25.0003Z" fill="white"/>
<path d="M66.2364 25.0003H62.9424V11.6623H65.9934L66.2634 13.3903C67.1004 12.0403 68.7204 11.2573 70.5294 11.2573C73.8774 11.2573 75.6054 13.3363 75.6054 16.7923V25.0003H72.3114V17.5753C72.3114 15.3343 71.2044 14.2543 69.5034 14.2543C67.4784 14.2543 66.2364 15.6583 66.2364 17.8183V25.0003Z" fill="white"/>
<path d="M59.2418 8.98902C58.1078 8.98902 57.2168 8.09802 57.2168 6.99102C57.2168 5.88402 58.1078 5.02002 59.2418 5.02002C60.3218 5.02002 61.2128 5.88402 61.2128 6.99102C61.2128 8.09802 60.3218 8.98902 59.2418 8.98902ZM57.5948 25V11.662H60.8888V25H57.5948Z" fill="white"/>
<path d="M49.9895 18.1962H45.6425V25.0002H42.1865V5.26318H49.9895C53.9585 5.26318 56.5235 7.85518 56.5235 11.7162C56.5235 15.5232 53.9315 18.1962 49.9895 18.1962ZM49.3145 8.34118H45.6425V15.1182H49.2605C51.6365 15.1182 52.9055 13.8492 52.9055 11.6892C52.9055 9.52918 51.6095 8.34118 49.3145 8.34118Z" fill="white"/>
</svg>
