<svg width="20" height="20" viewBox="0 0 20 20" fill="none" xmlns="http://www.w3.org/2000/svg">
<path fill-rule="evenodd" clip-rule="evenodd" d="M0 3.9285C0 3.36018 0.225765 2.81514 0.627628 2.41327C1.02949 2.01141 1.57454 1.78564 2.14286 1.78564H17.8571C18.4255 1.78564 18.9705 2.01141 19.3724 2.41327C19.7742 2.81514 20 3.36018 20 3.9285V4.41707L10.5471 10.7199C10.3821 10.8192 10.1926 10.8702 10 10.8671C9.80744 10.8702 9.61787 10.8192 9.45286 10.7199L0 4.41707V3.9285ZM0 6.56279V16.0714C0 16.6397 0.225765 17.1847 0.627628 17.5866C1.02949 17.9885 1.57454 18.2142 2.14286 18.2142H17.8571C18.4255 18.2142 18.9705 17.9885 19.3724 17.5866C19.7742 17.1847 20 16.6397 20 16.0714V6.56279L11.5329 12.2085L11.5257 12.2142C11.0699 12.5041 10.5402 12.6564 10 12.6528C9.46429 12.6528 8.92428 12.5071 8.47429 12.2142L8.46714 12.2085L0 6.56279Z" fill="#8D8D8C"/>
</svg>
