<svg width="20" height="20" viewBox="0 0 20 20" fill="none" xmlns="http://www.w3.org/2000/svg">
<g clip-path="url(#clip0_0_125)">
<path fill-rule="evenodd" clip-rule="evenodd" d="M16.8876 0.139584C17.2995 -0.0107746 17.7455 -0.041054 18.174 0.0524183C18.6067 0.146827 19.0033 0.363509 19.3165 0.676707C19.6296 0.989904 19.8463 1.38645 19.9407 1.81919C20.0342 2.24765 20.0039 2.69377 19.8536 3.10552L14.7479 18.4084L14.7476 18.4094C14.6232 18.7857 14.4042 19.1238 14.1115 19.3913C13.8196 19.658 13.4643 19.8453 13.0795 19.9355C12.6946 20.0294 12.2919 20.0214 11.9109 19.9125C11.5303 19.8038 11.1845 19.5981 10.9074 19.3155L8.16839 16.589L5.29116 18.0768C5.0668 18.1928 4.79784 18.1817 4.5838 18.0475C4.36977 17.9135 4.24247 17.6763 4.24903 17.4238L4.36699 12.8756L14.4312 5.56501C14.8302 5.27521 14.9187 4.71685 14.6289 4.31789C14.339 3.91892 13.7807 3.83044 13.3818 4.12024L3.14679 11.5548L0.675779 9.08381C0.408175 8.81639 0.210909 8.48645 0.1022 8.12408C-0.00573646 7.76429 -0.0232727 7.38349 0.0510836 7.01538C0.125536 6.61322 0.30531 6.23794 0.57214 5.92784C0.840797 5.61561 1.18796 5.38079 1.57774 5.24767L1.58256 5.24602L16.8876 0.139584Z" fill="#F0F0F0"/>
</g>
<defs>
<clipPath id="clip0_0_125">
<rect width="20" height="20" fill="white"/>
</clipPath>
</defs>
</svg>
