<svg width="18" height="18" viewBox="0 0 18 18" fill="none" xmlns="http://www.w3.org/2000/svg">
<g filter="url(#filter0_i_2007_3365)">
<path d="M8.52172 0.347482C8.67226 -0.115837 9.32774 -0.115838 9.47828 0.347482L11.2581 5.82529C11.3255 6.03249 11.5185 6.17278 11.7364 6.17278H17.4961C17.9833 6.17278 18.1858 6.79617 17.7917 7.08252L13.132 10.468C12.9557 10.596 12.882 10.823 12.9493 11.0302L14.7292 16.508C14.8797 16.9714 14.3494 17.3566 13.9553 17.0703L9.29559 13.6848C9.11933 13.5568 8.88067 13.5568 8.70441 13.6848L4.04471 17.0703C3.65058 17.3566 3.12029 16.9714 3.27084 16.508L5.05068 11.0302C5.11801 10.823 5.04425 10.596 4.868 10.468L0.208296 7.08252C-0.185827 6.79617 0.0167249 6.17278 0.503888 6.17278H6.26359C6.48146 6.17278 6.67455 6.03249 6.74187 5.82529L8.52172 0.347482Z" fill="url(#paint0_linear_2007_3365)"/>
</g>
<defs>
<filter id="filter0_i_2007_3365" x="0" y="0" width="18" height="18.1745" filterUnits="userSpaceOnUse" color-interpolation-filters="sRGB">
<feFlood flood-opacity="0" result="BackgroundImageFix"/>
<feBlend mode="normal" in="SourceGraphic" in2="BackgroundImageFix" result="shape"/>
<feColorMatrix in="SourceAlpha" type="matrix" values="0 0 0 0 0 0 0 0 0 0 0 0 0 0 0 0 0 0 127 0" result="hardAlpha"/>
<feOffset dy="1"/>
<feGaussianBlur stdDeviation="2"/>
<feComposite in2="hardAlpha" operator="arithmetic" k2="-1" k3="1"/>
<feColorMatrix type="matrix" values="0 0 0 0 0.92281 0 0 0 0 0.78257 0 0 0 0 0.517671 0 0 0 1 0"/>
<feBlend mode="normal" in2="shape" result="effect1_innerShadow_2007_3365"/>
</filter>
<linearGradient id="paint0_linear_2007_3365" x1="9" y1="7.26196" x2="14.2804" y2="14.406" gradientUnits="userSpaceOnUse">
<stop stop-color="#FABB42"/>
<stop offset="1" stop-color="#C48D00"/>
</linearGradient>
</defs>
</svg>
