<svg width="18" height="18" viewBox="0 0 18 18" fill="none" xmlns="http://www.w3.org/2000/svg">
<g filter="url(#filter0_i_2007_3307)">
<path d="M8.6652 0.394226C8.77058 0.0699015 9.22942 0.0699018 9.3348 0.394225L11.1146 5.87203C11.2022 6.1414 11.4532 6.32377 11.7364 6.32377H17.4961C17.8371 6.32377 17.9789 6.76014 17.703 6.96059L13.0433 10.3461C12.8142 10.5125 12.7183 10.8076 12.8058 11.077L14.5857 16.5548C14.6911 16.8791 14.3199 17.1488 14.044 16.9484L9.38427 13.5629C9.15514 13.3964 8.84486 13.3964 8.61573 13.5629L3.95603 16.9484C3.68014 17.1488 3.30894 16.8791 3.41432 16.5548L5.19417 11.077C5.28169 10.8076 5.18581 10.5125 4.95667 10.3461L0.296974 6.96059C0.0210873 6.76014 0.162874 6.32377 0.503888 6.32377H6.26359C6.54682 6.32377 6.79784 6.1414 6.88536 5.87203L8.6652 0.394226Z" stroke="#ED9B00" stroke-width="0.3"/>
</g>
<defs>
<filter id="filter0_i_2007_3307" x="0" y="0" width="18" height="18.1746" filterUnits="userSpaceOnUse" color-interpolation-filters="sRGB">
<feFlood flood-opacity="0" result="BackgroundImageFix"/>
<feBlend mode="normal" in="SourceGraphic" in2="BackgroundImageFix" result="shape"/>
<feColorMatrix in="SourceAlpha" type="matrix" values="0 0 0 0 0 0 0 0 0 0 0 0 0 0 0 0 0 0 127 0" result="hardAlpha"/>
<feOffset dy="1"/>
<feGaussianBlur stdDeviation="2"/>
<feComposite in2="hardAlpha" operator="arithmetic" k2="-1" k3="1"/>
<feColorMatrix type="matrix" values="0 0 0 0 0.92281 0 0 0 0 0.78257 0 0 0 0 0.517671 0 0 0 1 0"/>
<feBlend mode="normal" in2="shape" result="effect1_innerShadow_2007_3307"/>
</filter>
</defs>
</svg>
