<svg width="872" height="872" viewBox="0 0 872 872" fill="none" xmlns="http://www.w3.org/2000/svg">
<path opacity="0.5" d="M422.051 138.001C432.559 137.509 442.992 137.276 453.336 137.294C463.599 138.471 473.92 139.907 484.285 141.608C494.646 143.308 504.88 145.245 514.977 147.408C524.79 150.699 534.606 154.255 544.41 158.081C554.199 161.902 563.815 165.928 573.249 170.147C582.156 175.402 591.01 180.917 599.797 186.693C608.589 192.473 617.168 198.417 625.528 204.513C633.136 211.496 640.64 218.722 648.024 226.189C655.413 233.661 662.561 241.25 669.463 248.942C675.462 257.365 681.307 266.004 686.985 274.855C692.661 283.702 698.075 292.613 703.229 301.574C707.344 311.057 711.264 320.721 714.977 330.556C718.691 340.395 722.136 350.242 725.315 360.084C727.367 370.21 729.192 380.472 730.777 390.858C732.364 401.247 733.685 411.588 734.748 421.868C734.651 432.208 734.302 442.633 733.693 453.13C733.084 463.627 732.226 474.022 731.128 484.303C728.883 494.392 726.375 504.512 723.599 514.648C720.822 524.785 717.823 534.77 714.613 544.594C710.318 554 705.76 563.38 700.934 572.721C696.107 582.066 691.094 591.216 685.907 600.165C679.755 608.466 673.349 616.688 666.692 624.816C660.043 632.935 653.251 640.826 646.333 648.485C638.575 655.34 630.584 662.065 622.366 668.644C614.144 675.227 605.831 681.554 597.442 687.627C588.456 692.701 579.272 697.601 569.896 702.313C560.506 707.031 551.08 711.483 541.632 715.671C531.769 718.773 521.746 721.663 511.575 724.328C501.413 726.99 491.27 729.384 481.161 731.515C470.864 732.5 460.456 733.243 449.949 733.735C439.457 734.226 429.039 734.459 418.709 734.442C408.431 733.264 398.095 731.827 387.713 730.123C377.328 728.419 367.071 726.477 356.952 724.308C347.163 721.024 337.37 717.475 327.59 713.658C317.794 709.835 308.172 705.806 298.732 701.584C289.833 696.333 280.985 690.822 272.204 685.05C263.428 679.281 254.864 673.347 246.518 667.263C238.894 660.267 231.374 653.026 223.975 645.544C216.582 638.068 209.431 630.475 202.525 622.778C196.53 614.361 190.688 605.727 185.014 596.882C179.338 588.034 173.923 579.121 168.769 570.159C164.654 560.677 160.734 551.014 157.022 541.18C153.311 531.351 149.869 521.512 146.693 511.68C144.638 501.543 142.811 491.271 141.224 480.874C139.637 470.48 138.315 460.134 137.252 449.848C137.349 439.515 137.698 429.096 138.307 418.605C138.915 408.113 139.773 397.723 140.87 387.446C143.115 377.353 145.624 367.23 148.402 357.089C151.179 346.949 154.18 336.96 157.391 327.133C161.684 317.731 166.242 308.353 171.065 299.015C175.887 289.681 180.894 280.541 186.075 271.602C192.233 263.293 198.644 255.062 205.309 246.926C211.98 238.78 218.795 230.863 225.737 223.181C233.473 216.347 241.439 209.644 249.632 203.084C257.823 196.527 266.104 190.222 274.461 184.171C283.477 179.077 292.694 174.159 302.103 169.431C311.499 164.709 320.931 160.254 330.385 156.064C340.244 152.964 350.261 150.076 360.426 147.413C370.602 144.747 380.757 142.35 390.878 140.217C401.162 139.234 411.557 138.493 422.051 138.001ZM484.447 140.62C477.026 139.403 469.627 138.32 462.256 137.372C469.838 137.491 477.371 137.745 484.849 138.131C492.058 140.155 499.277 142.321 506.5 144.631C499.216 143.176 491.864 141.837 484.447 140.62ZM480.47 136.919C471.518 136.52 462.49 136.31 453.394 136.293C444.347 135.257 435.345 134.42 426.397 133.781C435.552 132.392 444.664 131.218 453.724 130.255C462.614 132.259 471.534 134.48 480.47 136.919ZM515.242 146.442C506.617 143.55 497.995 140.864 489.385 138.381C498.635 138.926 507.799 139.673 516.867 140.615C525.145 144.423 533.406 148.448 541.639 152.691C532.952 150.437 524.15 148.351 515.242 146.442ZM514.037 139.322C504.463 138.374 494.784 137.643 485.012 137.137C475.593 134.495 466.19 132.095 456.818 129.934C466.807 128.924 476.729 128.171 486.571 127.67C495.735 131.29 504.896 135.174 514.037 139.322ZM546.036 153.849C537.373 149.307 528.677 145.005 519.96 140.944C529.946 142.034 539.813 143.361 549.549 144.917C557.761 150.364 565.914 156.068 573.993 162.027C564.819 159.106 555.497 156.377 546.036 153.849ZM547.533 143.586C537.532 142.025 527.394 140.706 517.135 139.637C507.768 135.331 498.379 131.303 488.985 127.552C499.636 127.053 510.191 126.849 520.631 126.933C529.652 132.179 538.626 137.731 547.533 143.586ZM576.958 162.979C568.691 156.819 560.344 150.927 551.935 145.304C562.453 147.03 572.816 149.024 583.006 151.276C590.74 158.283 598.363 165.579 605.858 173.157C596.404 169.553 586.767 166.156 576.958 162.979ZM581.507 149.923C571.148 147.667 560.614 145.677 549.922 143.964C540.895 137.982 531.798 132.31 522.65 126.953C533.916 127.084 545.046 127.552 556.017 128.347C564.626 135.193 573.131 142.388 581.507 149.923ZM608.116 174.023C600.53 166.296 592.811 158.857 584.977 151.715C595.971 154.186 606.762 156.958 617.329 160.017C624.327 168.503 631.149 177.309 637.776 186.421C628.111 182.06 618.22 177.923 608.116 174.023ZM616.198 158.65C605.511 155.588 594.598 152.819 583.481 150.356C575.04 142.716 566.467 135.42 557.786 128.478C569.656 129.378 581.338 130.662 592.802 132.319C600.788 140.708 608.595 149.491 616.198 158.65ZM639.617 187.255C632.949 178.027 626.08 169.108 619.032 160.513C630.458 163.861 641.618 167.547 652.488 171.552C658.555 181.418 664.366 191.632 669.899 202.172C660.081 196.954 649.981 191.976 639.617 187.255ZM651.638 170.174C640.677 166.166 629.423 162.483 617.904 159.142C610.27 149.894 602.428 141.025 594.404 132.554C606.842 134.393 619.021 136.673 630.902 139.38C638.097 149.212 645.018 159.487 651.638 170.174ZM671.465 203.007C665.921 192.375 660.094 182.069 654.007 172.114C665.789 176.499 677.225 181.261 688.282 186.378C693.276 197.491 697.91 208.98 702.163 220.809C692.276 214.612 682.036 208.67 671.465 203.007ZM687.654 184.986C676.525 179.869 665.015 175.111 653.159 170.733C646.532 159.972 639.599 149.625 632.39 139.722C645.296 142.708 657.848 146.199 669.996 150.177C676.289 161.303 682.184 172.921 687.654 184.986ZM703.535 221.672C699.29 209.769 694.66 198.207 689.667 187.021C701.671 192.626 713.224 198.65 724.28 205.068C728.123 217.259 731.474 229.849 734.316 242.788C724.493 235.468 714.223 228.42 703.535 221.672ZM723.831 203.652C712.715 197.239 701.104 191.221 689.042 185.627C683.582 173.504 677.695 161.827 671.406 150.642C674.534 151.678 677.634 152.748 680.707 153.849C690.584 157.389 700.172 161.26 709.444 165.454C713.533 174.771 717.298 184.401 720.727 194.316C721.794 197.401 722.829 200.513 723.831 203.652ZM735.54 243.703C732.72 230.71 729.389 218.064 725.563 205.816C728.407 207.48 731.218 209.171 733.994 210.887C742.919 216.403 751.493 222.183 759.69 228.212C761.753 238.177 763.433 248.38 764.726 258.792C765.129 262.031 765.493 265.289 765.821 268.567C756.282 259.983 746.175 251.683 735.54 243.703ZM765.719 258.669C764.47 248.611 762.861 238.747 760.894 229.102C772.473 237.692 783.291 246.781 793.276 256.324C794.975 270.03 795.813 284.134 795.796 298.551C789.23 291.217 782.275 284.038 774.949 277.034C772.322 274.521 769.646 272.031 766.924 269.564C766.569 265.908 766.168 262.276 765.719 258.669ZM796.793 299.67C796.854 285.253 796.064 271.141 794.417 257.42C805.032 267.668 814.69 278.434 823.302 289.663C824.258 303.781 824.124 318.243 822.929 332.95C815.098 321.563 806.366 310.45 796.793 299.67ZM823.824 334.257C825.072 319.604 825.273 305.186 824.398 291.102C833.338 302.922 841.122 315.248 847.649 328.017C848.222 342.346 847.482 356.906 845.486 371.591C839.343 358.886 832.097 346.417 823.824 334.257ZM846.27 373.225C848.324 358.719 849.162 344.327 848.727 330.151C855.213 343.169 860.396 356.639 864.169 370.496C864.702 384.845 863.775 399.247 861.469 413.606C857.654 399.945 852.56 386.458 846.27 373.225ZM862.102 415.916C864.433 402.222 865.518 388.481 865.286 374.776C868.596 388.022 870.622 401.611 871.272 415.484C871.922 429.36 871.174 443.08 869.116 456.58C868.067 442.913 865.702 429.333 862.102 415.916ZM861.688 418.276C865.325 432.357 867.594 446.609 868.403 460.946C865.942 475.092 862.041 488.986 856.8 502.55C855.908 488.397 853.729 474.148 850.328 459.898C855.354 446.136 859.166 432.233 861.688 418.276ZM856.938 504.942C862.065 492.032 865.984 478.818 868.606 465.365C869.09 479.009 868.246 492.72 865.998 506.425C863.749 520.13 860.166 533.393 855.347 546.167C857.161 532.583 857.671 518.812 856.938 504.942ZM849.701 461.598C853.06 476.031 855.158 490.457 855.927 504.776C850.622 518.099 844.024 531.098 836.228 543.702C835.783 529.597 834.235 515.261 831.623 500.79C838.723 487.911 844.772 474.821 849.701 461.598ZM836.279 545.512C844.056 533.096 850.675 520.29 856.043 507.164C856.673 521.69 855.93 536.1 853.743 550.289C848.394 563.615 841.689 576.395 833.743 588.574C835.813 574.546 836.643 560.157 836.279 545.512ZM830.855 502.175C833.419 516.705 834.904 531.091 835.271 545.236C827.746 557.221 819.137 568.844 809.525 580.04C809.883 566.225 809.35 552.102 807.942 537.754C816.466 526.126 824.122 514.245 830.855 502.175ZM809.48 581.623C819.103 570.502 827.741 558.955 835.312 547.044C835.597 561.86 834.651 576.405 832.427 590.57C824.467 602.5 815.309 613.845 805.062 624.554C807.559 610.666 809.026 596.322 809.48 581.623ZM807.054 538.961C808.418 553.313 808.902 567.433 808.491 581.238C799.442 591.672 789.521 601.732 778.796 611.366C779.852 601.58 780.533 591.608 780.837 581.478C780.946 577.845 781.006 574.191 781.018 570.519C783.498 567.808 785.929 565.078 788.311 562.33C794.949 554.672 801.203 546.876 807.054 538.961ZM778.632 612.856C789.387 603.254 799.345 593.225 808.44 582.819C807.927 597.564 806.389 611.944 803.807 625.857C793.955 636.015 783.118 645.592 771.389 654.545C774.611 641.107 777.026 627.182 778.632 612.856ZM779.836 581.448C779.522 591.936 778.803 602.251 777.68 612.364C770.082 619.133 762.086 625.69 753.716 632.016C751.111 633.984 748.471 635.93 745.795 637.853C748.459 625.301 750.594 612.399 752.187 599.2C762.03 590.26 771.317 581.052 780.012 571.614C779.993 574.908 779.934 578.186 779.836 581.448ZM745.484 639.307C748.473 637.171 751.418 635.006 754.319 632.814C762.404 626.704 770.142 620.377 777.512 613.852C775.862 628.173 773.4 642.085 770.129 655.502C759.108 663.827 747.312 671.605 734.818 678.799C737.885 669.447 740.624 659.836 743.027 649.992C743.889 646.46 744.708 642.898 745.484 639.307ZM751.054 600.225C749.433 613.373 747.274 626.221 744.587 638.717C734.179 646.14 723.241 653.218 711.813 659.919C715.739 648.316 719.268 636.372 722.382 624.124C732.392 616.408 741.958 608.431 751.054 600.225ZM711.32 661.366C722.807 654.669 733.805 647.593 744.272 640.169C743.568 643.388 742.829 646.584 742.055 649.755C739.567 659.946 736.719 669.885 733.519 679.543C724.679 684.585 715.494 689.336 705.991 693.784C703.035 695.167 700.049 696.521 697.032 697.845C702.248 686.121 707.018 673.946 711.32 661.366ZM721.097 625.112C717.968 637.287 714.428 649.158 710.494 660.689C699.963 666.818 689.02 672.628 677.699 678.095C682.829 667.615 687.667 656.81 692.194 645.706C702.19 639.08 711.832 632.207 721.097 625.112ZM676.984 679.55C688.38 674.083 699.395 668.269 709.999 662.134C705.681 674.657 700.897 686.775 695.671 698.44C683.947 703.536 671.776 708.185 659.204 712.364C665.456 701.831 671.391 690.882 676.984 679.55ZM690.712 646.685C686.189 657.695 681.358 668.407 676.24 678.797C665.793 683.8 655.027 688.511 643.967 692.912C650.18 683.696 656.185 674.174 661.962 664.363C671.837 658.695 681.427 652.796 690.712 646.685ZM642.972 694.383C654.126 689.98 664.985 685.262 675.521 680.249C669.93 691.507 663.999 702.383 657.754 712.844C646.18 716.649 634.27 720.056 622.06 723.05C629.257 713.866 636.235 704.303 642.972 694.383ZM660.207 665.366C654.461 675.056 648.491 684.462 642.317 693.565C632.082 697.599 621.597 701.367 610.882 704.854C618.014 697.011 625.004 688.884 631.834 680.481C641.53 675.654 650.992 670.611 660.207 665.366ZM629.667 681.555C622.914 689.8 616.006 697.777 608.96 705.476C599.026 708.67 588.896 711.624 578.586 714.325C586.433 707.941 594.192 701.293 601.848 694.388C611.316 690.308 620.592 686.026 629.667 681.555ZM598.986 695.613C591.498 702.301 583.914 708.742 576.247 714.933C566.697 717.393 556.995 719.637 547.153 721.655C555.452 716.797 563.708 711.702 571.908 706.37C581.093 702.968 590.122 699.379 598.986 695.613ZM567.639 707.934C559.839 712.927 551.99 717.707 544.104 722.272C535.171 724.056 526.126 725.654 516.975 727.06C525.322 723.78 533.663 720.297 541.986 716.609C550.662 713.879 559.215 710.985 567.639 707.934ZM533.452 719.228C526.47 722.207 519.478 725.042 512.482 727.734C505.065 728.818 497.581 729.776 490.035 730.605C497.286 728.971 504.552 727.202 511.829 725.295C519.114 723.387 526.323 721.363 533.452 719.228ZM454.671 737.531C463.519 736.057 472.403 734.384 481.313 732.506C490.376 731.639 499.353 730.585 508.236 729.35C499.565 732.615 490.891 735.66 482.224 738.487C473.109 738.375 463.921 738.058 454.671 737.531ZM449.996 734.734C457.523 734.382 464.999 733.901 472.42 733.295C464.97 734.757 457.54 736.076 450.136 737.255C442.654 736.774 435.133 736.155 427.578 735.396C435.009 735.306 442.484 735.086 449.996 734.734ZM418.651 735.443C427.698 736.479 436.699 737.314 445.647 737.953C436.478 739.345 427.352 740.521 418.279 741.485C409.382 739.48 400.457 737.258 391.514 734.817C400.486 735.216 409.534 735.427 418.651 735.443ZM386.972 734.598C396.398 737.243 405.806 739.644 415.185 741.806C405.193 742.816 395.268 743.57 385.424 744.071C376.255 740.449 367.09 736.563 357.944 732.412C367.519 733.361 377.199 734.092 386.972 734.598ZM387.673 744.954C397.777 744.402 407.965 743.585 418.22 742.498C428.281 744.763 438.305 746.752 448.278 748.468C437.965 751.171 427.684 753.564 417.457 755.652C407.539 752.396 397.605 748.83 387.673 744.954ZM354.847 732.097C364.218 736.405 373.611 740.436 383.01 744.189C372.365 744.688 361.816 744.892 351.381 744.807C342.357 739.561 333.381 734.007 324.472 728.151C334.465 729.71 344.595 731.029 354.847 732.097ZM353.129 745.819C363.729 745.872 374.445 745.628 385.258 745.081C395.333 749.057 405.413 752.714 415.477 756.053C404.432 758.266 393.449 760.123 382.553 761.626C372.707 756.719 362.891 751.448 353.129 745.819ZM322.083 727.773C331.112 733.757 340.212 739.429 349.362 744.788C338.094 744.657 326.961 744.189 315.987 743.394C307.376 736.546 298.87 729.349 290.491 721.813C300.852 724.069 311.389 726.059 322.083 727.773ZM317.378 744.496C328.469 745.269 339.72 745.709 351.108 745.806C360.955 751.525 370.859 756.88 380.795 761.866C368.996 763.454 357.301 764.627 345.742 765.39C336.185 758.844 326.721 751.875 317.378 744.496ZM288.517 721.379C296.96 729.021 305.535 736.319 314.218 743.263C302.348 742.363 290.665 741.079 279.201 739.421C271.214 731.031 263.405 722.246 255.8 713.086C266.487 716.148 277.4 718.917 288.517 721.379ZM280.319 740.592C291.873 742.233 303.646 743.496 315.607 744.37C324.998 751.829 334.514 758.874 344.126 765.494C331.578 766.28 319.192 766.582 307.009 766.405C297.925 758.283 289.018 749.671 280.319 740.592ZM254.094 712.594C261.729 721.843 269.573 730.714 277.599 739.187C265.163 737.348 252.986 735.068 241.107 732.362C233.911 722.528 226.988 712.253 220.367 701.564C231.326 705.571 242.578 709.253 254.094 712.594ZM242.011 733.592C253.961 736.284 266.209 738.545 278.715 740.362C287.436 749.511 296.37 758.191 305.482 766.38C292.237 766.143 279.234 765.338 266.525 763.973C258.054 754.398 249.871 744.258 242.011 733.592ZM218.846 701.005C225.474 711.767 232.408 722.116 239.619 732.02C226.711 729.034 214.157 725.543 202.008 721.564C195.713 710.437 189.817 698.817 184.346 686.75C195.477 691.868 206.989 696.627 218.846 701.005ZM202.741 722.856C214.948 726.818 227.557 730.29 240.52 733.254C248.382 743.978 256.57 754.177 265.048 763.811C261.771 763.447 258.513 763.046 255.277 762.607C244.881 761.199 234.698 759.405 224.759 757.232C218.82 748.967 213.134 740.328 207.716 731.34C206.032 728.545 204.373 725.717 202.741 722.856ZM182.959 686.109C188.419 698.234 194.307 709.912 200.597 721.099C197.469 720.062 194.368 718.993 191.295 717.892C181.418 714.352 171.83 710.48 162.558 706.287C158.468 696.969 154.703 687.338 151.273 677.421C150.206 674.336 149.172 671.224 148.17 668.084C159.285 674.497 170.896 680.515 182.959 686.109ZM163.163 707.657C172.143 711.686 181.417 715.414 190.957 718.834C194.38 720.06 197.837 721.247 201.328 722.394C203.139 725.589 204.983 728.743 206.859 731.856C212.092 740.538 217.576 748.897 223.297 756.909C209.225 753.772 195.645 749.868 182.642 745.212C175.514 733.381 169.012 720.835 163.163 707.657ZM150.328 677.748C153.641 687.327 157.266 696.642 161.196 705.668C148.083 699.673 135.612 693.031 123.861 685.772C119.349 672.718 115.597 659.095 112.616 644.988C120.563 650.797 128.859 656.372 137.48 661.701C140.573 663.612 143.707 665.492 146.883 667.339C147.991 670.842 149.139 674.312 150.328 677.748ZM111.408 644.102C114.346 658.218 118.053 671.858 122.517 684.938C110.003 677.12 98.3169 668.597 87.5585 659.404C83.6873 645.792 80.8116 631.617 78.9228 616.982C88.9501 626.492 99.8027 635.547 111.408 644.102ZM77.7759 615.889C79.6017 630.482 82.4024 644.628 86.1875 658.224C74.9855 648.521 64.8085 638.083 55.7696 626.95C52.2297 613.052 49.9265 598.656 48.8251 583.875C57.4759 595.026 67.1556 605.715 77.7759 615.889ZM47.7193 582.44C48.726 597.058 50.8988 611.31 54.272 625.086C45.2208 613.701 37.35 601.602 30.7786 588.833C27.2739 574.908 25.187 560.629 24.4574 546.105C31.0289 558.673 38.8159 570.805 47.7193 582.44ZM23.3581 543.977C23.9253 557.856 25.7201 571.522 28.7959 584.879C22.8046 572.611 17.9981 559.741 14.4783 546.307C10.958 532.87 8.83659 519.295 8.04324 505.664C11.9115 518.813 17.0475 531.603 23.3581 543.977ZM23.2725 541.583C16.7876 528.567 11.6052 515.099 7.83258 501.246C7.29897 486.896 8.22618 472.494 10.5319 458.136C14.347 471.794 19.4414 485.279 25.7308 498.51C23.6761 513.016 22.8379 527.407 23.2725 541.583ZM9.89917 455.825C7.56848 469.52 6.48311 483.261 6.71514 496.966C3.40411 483.718 1.37765 470.128 0.727852 456.252C0.0781427 442.378 0.825324 428.66 2.88312 415.162C3.93332 428.829 6.2985 442.408 9.89917 455.825ZM25.9908 496.717C19.7041 483.297 14.6526 469.623 10.9231 455.777C13.3421 441.643 17.0934 427.555 22.0985 413.606C25.4661 427.31 29.961 441.012 35.525 454.625C31.2577 468.698 28.0629 482.758 25.9908 496.717ZM21.672 411.845C16.6466 425.607 12.8349 439.51 10.3131 453.465C6.67524 439.385 4.40575 425.133 3.59559 410.797C6.05699 396.649 9.95838 382.754 15.1993 369.188C16.0911 383.342 18.2706 397.594 21.672 411.845ZM35.9885 453.11C30.4592 439.43 26.0152 425.666 22.7151 411.906C27.5837 398.618 33.589 385.46 40.6628 372.51C43.185 386.098 46.6427 399.803 51.003 413.545C45.0833 426.691 40.0646 439.904 35.9885 453.11ZM40.3775 370.952C33.277 383.831 27.2283 396.922 22.2991 410.146C18.9395 395.71 16.8414 381.282 16.0724 366.962C21.3775 353.638 27.9763 340.638 35.7728 328.033C36.2172 342.14 37.7652 356.478 40.3775 370.952ZM51.6211 412.18C47.3025 398.424 43.8931 384.713 41.4248 371.124C48.1064 359.036 55.7191 347.133 64.2072 335.479C65.2082 345.27 66.6156 355.164 68.4244 365.134C69.0736 368.713 69.7745 372.301 70.5269 375.899C68.6647 379.066 66.8541 382.242 65.0957 385.425C60.1949 394.295 55.699 403.221 51.6211 412.18ZM64.0578 333.988C55.5343 345.616 47.8783 357.497 41.1459 369.566C38.5814 355.034 37.0962 340.646 36.7294 326.498C44.254 314.514 52.8634 302.893 62.4745 291.697C62.1167 305.514 62.6496 319.638 64.0578 333.988ZM69.4089 364.956C67.5363 354.633 66.0952 344.395 65.0909 334.271C71.1154 326.07 77.5738 317.994 84.4465 310.066C86.5842 307.599 88.7621 305.148 90.9793 302.711C90.9833 315.543 91.5777 328.608 92.764 341.851C84.9945 352.641 77.8256 363.579 71.2828 374.618C70.6165 371.39 69.9918 368.169 69.4089 364.956ZM90.9815 301.224C88.5022 303.934 86.0715 306.663 83.6904 309.41C77.0519 317.069 70.7979 324.866 64.9462 332.781C63.5816 318.427 63.0973 304.305 63.5081 290.499C72.5571 280.065 82.4783 270.005 93.2041 260.37C92.1474 270.157 91.4668 280.128 91.163 290.259C91.054 293.894 90.9935 297.549 90.9815 301.224ZM93.6591 340.612C92.5102 327.414 91.9514 314.397 91.981 301.614C100.618 292.19 109.846 282.992 119.631 274.061C118.203 286.228 117.235 298.646 116.735 311.275C108.549 320.904 100.85 330.695 93.6591 340.612ZM119.811 272.544C109.968 281.483 100.682 290.691 91.9871 300.128C92.0066 296.832 92.0653 293.552 92.1631 290.289C92.4776 279.801 93.1968 269.485 94.3197 259.372C101.917 252.603 109.914 246.047 118.284 239.72C120.888 237.753 123.528 235.807 126.204 233.884C123.54 246.438 121.405 259.342 119.811 272.544ZM117.787 310.042C118.316 297.481 119.31 285.132 120.76 273.034C129.787 264.849 139.282 256.891 149.22 249.19C146.38 260.509 143.894 272.085 141.775 283.889C133.375 292.448 125.374 301.176 117.787 310.042ZM149.617 247.618C139.607 255.335 130.041 263.312 120.945 271.518C122.565 258.368 124.725 245.518 127.412 233.019C137.82 225.597 148.759 218.519 160.187 211.817C156.261 223.422 152.731 235.368 149.617 247.618ZM143.021 282.623C145.157 270.912 147.655 259.428 150.501 248.2C159.679 241.134 169.231 234.287 179.134 227.683C174.972 237.992 171.078 248.556 167.467 259.355C158.986 266.952 150.833 274.715 143.021 282.623ZM179.802 226.038C169.807 232.664 160.166 239.536 150.902 246.631C154.031 234.453 157.572 222.58 161.506 211.047C172.037 204.918 182.979 199.108 194.3 193.642C189.168 204.124 184.329 214.931 179.802 226.038ZM168.974 258.009C172.581 247.334 176.465 236.891 180.612 226.701C189.785 220.628 199.258 214.762 209.013 209.123C203.666 218.279 198.518 227.684 193.583 237.326C185.104 244.063 176.897 250.963 168.974 258.009ZM210.036 207.38C200.16 213.047 190.57 218.947 181.284 225.059C185.808 214.046 190.64 203.332 195.759 192.94C206.207 187.936 216.974 183.224 228.036 178.823C221.82 188.042 215.814 197.566 210.036 207.38ZM195.48 235.825C200.372 226.354 205.472 217.113 210.764 208.116C219.818 202.925 229.114 197.929 238.638 193.143C232.288 201.021 226.078 209.139 220.024 217.487C211.611 223.447 203.427 229.564 195.48 235.825ZM222.569 215.694C228.504 207.593 234.585 199.713 240.799 192.062C249.626 187.672 258.646 183.461 267.849 179.442C260.737 185.924 253.717 192.629 246.8 199.553C238.53 204.787 230.45 210.171 222.569 215.694ZM250.651 197.136C257.247 190.625 263.934 184.314 270.703 178.205C279.069 174.603 287.585 171.158 296.242 167.881C288.749 172.831 281.305 177.98 273.921 183.327C266.009 187.797 258.251 192.403 250.651 197.136ZM281.722 178.99C287.943 174.616 294.203 170.382 300.497 166.288C307.538 163.68 314.672 161.183 321.894 158.8C315.132 161.909 308.384 165.155 301.654 168.537C294.91 171.925 288.266 175.411 281.722 178.99ZM360.173 146.445C352.893 148.352 345.69 150.374 338.565 152.507C345.552 149.527 352.548 146.691 359.547 143.998C366.967 142.913 374.455 141.955 382.005 141.127C374.741 142.763 367.462 144.535 360.173 146.445ZM390.727 139.226C381.661 140.093 372.68 141.147 363.793 142.382C372.466 139.117 381.143 136.072 389.812 133.244C398.93 133.357 408.12 133.674 417.373 134.203C408.523 135.675 399.638 137.349 390.727 139.226ZM386.702 133.214C377.568 136.242 368.427 139.511 359.292 143.024C349.6 144.442 340.023 146.076 330.57 147.917C339.289 142.929 348.051 138.203 356.842 133.74C366.696 133.319 376.653 133.142 386.702 133.214ZM421.86 133.473C412.093 132.845 402.393 132.452 392.772 132.287C402.329 129.224 411.875 126.426 421.394 123.89C431.112 125.526 440.882 127.421 450.687 129.579C441.131 130.641 431.518 131.937 421.86 133.473ZM419.01 123.494C409.248 126.133 399.458 129.049 389.659 132.242C379.341 132.117 369.116 132.256 358.999 132.65C368.521 127.865 378.075 123.388 387.642 119.221C398.023 120.344 408.486 121.767 419.01 123.494ZM453.782 129.243C443.723 126.978 433.701 124.989 423.73 123.273C434.041 120.571 444.319 118.178 454.544 116.091C464.46 119.346 474.392 122.911 484.322 126.786C474.22 127.339 464.035 128.156 453.782 129.243ZM452.624 115.464C442.244 117.617 431.811 120.084 421.346 122.867C410.661 121.073 400.037 119.591 389.495 118.417C399.84 113.954 410.199 109.854 420.546 106.117C431.201 108.871 441.902 111.987 452.624 115.464ZM486.737 126.659C476.664 122.685 466.586 119.029 456.524 115.69C467.574 113.476 478.562 111.618 489.462 110.115C499.307 115.022 509.122 120.292 518.883 125.921C508.278 125.868 497.556 126.112 486.737 126.659ZM487.873 109.326C476.862 110.875 465.764 112.785 454.604 115.057C443.78 111.509 432.975 108.329 422.216 105.517C433.428 101.51 444.626 97.9304 455.775 94.781C466.488 99.1984 477.197 104.049 487.873 109.326ZM520.904 125.935C511.058 120.216 501.155 114.861 491.22 109.875C503.017 108.288 514.709 107.115 526.266 106.353C535.822 112.898 545.285 119.866 554.626 127.245C543.538 126.471 532.289 126.032 520.904 125.935ZM524.929 105.44C513.288 106.237 501.511 107.449 489.632 109.081C478.892 103.736 468.115 98.8209 457.335 94.3433C469.444 90.9652 481.495 88.095 493.448 85.7358C504.025 91.7932 514.531 98.3666 524.929 105.44ZM556.398 127.371C547.007 119.913 537.493 112.868 527.882 106.249C540.43 105.462 552.815 105.161 564.998 105.339C574.08 113.46 582.986 122.071 591.683 131.148C580.13 129.507 568.358 128.245 556.398 127.371ZM563.858 104.323C551.609 104.174 539.158 104.509 526.546 105.332C516.111 98.1944 505.565 91.5593 494.947 85.4426C507.953 82.9202 520.84 81.0038 533.557 79.697C543.836 87.3036 553.95 95.5221 563.858 104.323ZM593.288 131.379C584.568 122.231 575.636 113.551 566.525 105.363C579.771 105.601 592.777 106.406 605.488 107.772C613.957 117.346 622.139 127.485 629.998 138.15C618.046 135.458 605.796 133.196 593.288 131.379ZM604.502 106.661C591.738 105.323 578.682 104.548 565.386 104.344C555.464 95.4861 545.333 87.2107 535.035 79.5477C538.315 79.2225 541.584 78.9379 544.841 78.6941C555.304 77.9106 565.638 77.5476 575.813 77.6072C583.339 84.4562 590.696 91.7236 597.864 99.3878C600.095 101.774 602.308 104.199 604.502 106.661ZM631.488 138.488C623.628 127.765 615.441 117.567 606.965 107.933C610.237 108.297 613.49 108.698 616.723 109.136C627.121 110.545 637.306 112.339 647.248 114.513C653.184 122.775 658.868 131.411 664.283 140.395C665.969 143.192 667.629 146.022 669.262 148.885C657.057 144.924 644.449 141.452 631.488 138.488ZM646.372 113.299C636.749 111.225 626.901 109.505 616.857 108.144C613.257 107.656 609.631 107.214 605.98 106.819C603.542 104.067 601.08 101.362 598.594 98.7044C591.672 91.3014 584.571 84.2663 577.31 77.619C591.726 77.7624 605.819 78.7568 619.505 80.6083C628.939 90.7007 637.91 101.622 646.372 113.299ZM665.14 139.879C659.909 131.201 654.428 122.845 648.71 114.836C662.781 117.974 676.361 121.877 689.363 126.534C696.49 138.364 702.991 150.907 708.84 164.084C699.859 160.055 690.585 156.326 681.044 152.907C677.622 151.68 674.165 150.494 670.675 149.347C668.863 146.15 667.018 142.994 665.14 139.879ZM688.544 125.181C675.515 120.571 661.918 116.713 647.836 113.618C639.409 101.915 630.473 90.9594 621.073 80.8243C635.685 82.8757 649.826 85.9088 663.394 89.931C672.469 100.794 680.864 112.576 688.544 125.181ZM710.206 164.7C704.398 151.506 697.937 138.936 690.852 127.071C704.718 132.116 717.92 138.023 730.354 144.779C736.97 157.287 742.729 170.553 747.619 184.473C735.834 177.256 723.336 170.655 710.206 164.7ZM748.968 185.304C744.149 171.411 738.469 158.158 731.94 145.647C744.915 152.81 757.04 160.904 768.196 169.914C774.546 182.77 779.791 196.372 783.941 210.598C773.161 201.49 761.471 193.047 748.968 185.304ZM785.321 211.771C781.298 197.685 776.21 184.198 770.048 171.426C781.27 180.681 791.485 190.881 800.568 202.006C806.889 214.895 811.897 228.425 815.63 242.476C806.589 231.549 796.449 221.302 785.321 211.771ZM817.147 244.33C813.708 230.875 809.113 217.884 803.329 205.461C811.738 216.214 819.114 227.802 825.35 240.209C831.585 252.618 836.482 265.453 840.092 278.619C833.575 266.563 825.892 255.121 817.147 244.33ZM848.641 327.757C848.073 313.876 846.277 300.209 843.2 286.851C849.194 299.122 854.002 311.995 857.523 325.434C861.043 338.87 863.165 352.445 863.958 366.077C860.09 352.926 854.953 340.133 848.641 327.757ZM817.729 246.654C826.778 258.036 834.647 270.131 841.217 282.897C844.723 296.822 846.811 311.103 847.541 325.628C840.97 313.061 833.183 300.929 824.279 289.294C823.273 274.679 821.101 260.428 817.729 246.654ZM785.813 213.515C797.015 223.218 807.192 233.657 816.232 244.79C819.77 258.686 822.073 273.081 823.174 287.859C814.523 276.709 804.844 266.02 794.224 255.847C792.398 241.255 789.597 227.11 785.813 213.515ZM749.483 186.802C761.998 194.62 773.683 203.143 784.442 212.336C788.313 225.946 791.188 240.12 793.077 254.754C783.05 245.244 772.197 236.189 760.592 227.634C757.654 213.52 753.947 199.881 749.483 186.802ZM710.807 166.073C723.918 172.068 736.389 178.709 748.14 185.967C752.651 199.02 756.403 212.642 759.383 226.747C751.437 220.939 743.141 215.364 734.52 210.036C731.428 208.124 728.293 206.245 725.118 204.397C724.01 200.895 722.862 197.425 721.673 193.989C718.36 184.412 714.735 175.098 710.807 166.073ZM6.00069 365.306C8.25015 351.597 11.8342 338.331 16.6548 325.554C14.8392 339.143 14.3286 352.921 15.0609 366.796C9.93354 379.707 6.01479 392.923 3.39229 406.378C2.90777 392.73 3.75119 379.014 6.00069 365.306ZM35.7217 326.222C27.9443 338.639 21.3249 351.446 15.9564 364.574C15.3258 350.042 16.0699 335.626 18.2597 321.432C23.609 308.106 30.3142 295.326 38.2611 283.147C36.1896 297.179 35.358 311.574 35.7217 326.222ZM38.6231 280.779C30.9235 292.341 24.3427 304.453 18.9799 317.067C21.3436 303.622 25.0194 290.387 30.068 277.45C35.1185 264.509 41.3826 252.278 48.7545 240.782C44.1547 253.693 40.7916 267.059 38.6231 280.779ZM39.9612 278.791C42.3656 264.45 46.0898 250.509 51.1813 237.084C59.1827 225.164 68.3963 214.059 78.6993 203.8C73.7581 217.091 69.9538 230.993 67.2649 245.393C57.0773 255.92 47.9409 267.069 39.9612 278.791ZM79.5455 201.559C69.6128 211.266 60.6597 221.743 52.7931 232.964C57.9007 220.303 64.2483 208.121 71.8767 196.516C79.5036 184.913 88.1688 174.257 97.764 164.549C90.5833 176.22 84.5172 188.592 79.5455 201.559ZM68.5292 244.095C71.3309 229.545 75.2815 215.514 80.4021 202.122C90.6677 192.108 101.984 182.915 114.233 174.572C108.903 187.637 104.486 201.362 100.986 215.643C89.2612 224.521 78.4109 234.019 68.5292 244.095ZM114.923 172.897C102.767 181.077 91.5112 190.084 81.2674 199.893C86.5989 186.368 93.1378 173.507 100.906 161.436C111.214 151.434 122.54 142.484 134.756 134.588C127.159 146.562 120.547 159.37 114.923 172.897ZM102.252 214.69C105.819 200.374 110.314 186.629 115.731 173.559C127.48 165.671 140.072 158.556 153.406 152.237C147.461 164.711 142.204 177.828 137.654 191.507C125.138 198.663 113.311 206.403 102.252 214.69ZM154.091 150.808C140.777 157.054 128.19 164.089 116.429 171.89C122.195 158.239 128.977 145.336 136.77 133.3C148.893 125.64 161.873 119.001 175.588 113.386C167.658 125.058 160.484 137.566 154.091 150.808ZM138.957 190.766C143.548 177.101 148.848 164.006 154.838 151.563C167.348 145.711 180.503 140.556 194.22 136.117C189.275 144.626 184.599 153.458 180.201 162.587C178.624 165.862 177.083 169.176 175.578 172.526C172.209 173.994 168.877 175.5 165.584 177.041C156.405 181.337 147.521 185.915 138.957 190.766ZM194.976 134.823C181.245 139.22 168.068 144.332 155.527 150.139C161.993 136.877 169.247 124.366 177.264 112.706C190.396 107.433 204.193 103.092 218.549 99.6832C210.14 110.649 202.27 122.388 194.976 134.823ZM181.103 163.021C185.655 153.57 190.507 144.44 195.645 135.659C205.34 132.566 215.312 129.828 225.532 127.453C228.711 126.715 231.914 126.011 235.14 125.343C227.602 135.726 220.405 146.642 213.581 158.052C200.953 162.215 188.724 166.85 176.942 171.935C178.3 168.933 179.687 165.962 181.103 163.021ZM236.016 124.141C232.417 124.877 228.847 125.656 225.306 126.479C215.434 128.772 205.791 131.404 196.404 134.369C203.736 121.956 211.643 110.248 220.089 99.3216C233.543 96.1987 247.483 93.8911 261.823 92.4008C255.217 99.6957 248.807 107.361 242.608 115.377C240.383 118.253 238.186 121.175 236.016 124.141ZM215.033 157.576C221.861 146.225 229.059 135.367 236.595 125.045C249.123 122.497 261.995 120.48 275.162 119.006C266.857 128.008 258.776 137.483 250.95 147.404C238.666 150.383 226.681 153.779 215.033 157.576ZM276.2 117.884C262.982 119.33 250.056 121.322 237.473 123.846C239.427 121.191 241.402 118.572 243.4 115.989C249.817 107.691 256.461 99.7697 263.312 92.2492C273.439 91.2386 283.764 90.6341 294.256 90.4362C297.518 90.3747 300.797 90.3525 304.091 90.3697C294.558 98.9588 285.247 108.142 276.2 117.884ZM252.525 147.025C260.335 137.176 268.397 127.772 276.68 118.838C288.792 117.523 301.151 116.666 313.717 116.277C304.769 123.763 295.955 131.665 287.304 139.967C275.478 141.955 263.875 144.312 252.525 147.025ZM289.056 139.676C297.666 131.458 306.435 123.638 315.336 116.229C326.916 115.908 338.669 115.982 350.566 116.461C341.142 122.352 331.785 128.607 322.518 135.219C311.189 136.38 300.027 137.869 289.056 139.676ZM324.529 135.017C333.719 128.502 342.997 122.34 352.338 116.535C363.325 117.013 374.431 117.835 385.634 119.007C375.929 123.27 366.238 127.852 356.582 132.75C345.767 133.216 335.076 133.974 324.529 135.017ZM418.827 105.676C408.382 109.48 397.926 113.655 387.485 118.197C376.169 116.978 364.948 116.115 353.847 115.601C363.978 109.353 374.183 103.525 384.431 98.1284C395.82 100.221 407.296 102.736 418.827 105.676ZM382.838 97.8384C372.527 103.302 362.262 109.199 352.073 115.522C340.09 115.007 328.249 114.901 316.582 115.195C326.27 107.184 336.112 99.6603 346.072 92.6433C358.195 93.875 370.464 95.6065 382.838 97.8384ZM420.497 105.071C408.888 102.078 397.333 99.5131 385.865 97.3762C397.01 91.5529 408.204 86.2386 419.408 81.4448C431.006 85.1692 442.642 89.4122 454.277 94.1661C443.052 97.3673 431.782 101.003 420.497 105.071ZM417.954 80.9804C406.701 85.8282 395.46 91.1991 384.271 97.0818C371.838 94.8064 359.508 93.0347 347.322 91.7658C358.179 84.1703 369.175 77.1765 380.263 70.8095C392.745 73.5776 405.325 76.9712 417.954 80.9804ZM455.837 93.724C444.152 88.9152 432.464 84.6201 420.813 80.8465C433.009 75.676 445.216 71.1226 457.382 67.201C469.011 72.5018 480.607 78.4347 492.122 84.979C480.11 87.3811 468.001 90.2971 455.837 93.724ZM456.029 66.5873C443.827 70.5561 431.586 75.1579 419.358 80.378C406.694 76.3224 394.075 72.8838 381.553 70.072C384.415 68.4419 387.284 66.8535 390.157 65.3072C399.397 60.3358 408.69 55.8009 418.01 51.7167C427.671 54.9121 437.347 58.5587 447.011 62.6448C450.018 63.9165 453.025 65.2308 456.029 66.5873ZM493.621 84.6818C482.081 78.0845 470.456 72.0997 458.797 66.7478C461.935 65.7484 465.071 64.7912 468.204 63.8763C478.276 60.9342 488.31 58.4304 498.276 56.373C507.06 61.5066 515.765 67.0845 524.367 73.0897C527.042 74.9572 529.707 76.8659 532.361 78.8154C519.599 80.1608 506.668 82.1176 493.621 84.6818ZM496.982 55.6204C487.347 57.6396 477.652 60.074 467.923 62.9158C464.434 63.9348 460.941 65.0064 457.444 66.1299C454.099 64.6086 450.75 63.1396 447.401 61.7232C438.066 57.7763 428.718 54.2379 419.382 51.1187C432.611 45.3858 445.891 40.5617 459.148 36.6864C471.869 42.0685 484.504 48.3961 496.982 55.6204ZM524.94 72.2693C516.631 66.4687 508.225 61.0649 499.743 56.0734C513.876 53.2161 527.87 51.2585 541.644 50.2243C552.964 58.1314 564.003 66.9446 574.704 76.602C564.861 76.574 554.872 76.9395 544.766 77.6963C541.139 77.9679 537.497 78.2898 533.84 78.6621C530.887 76.4806 527.92 74.3494 524.94 72.2693ZM540.345 49.3215C526.566 50.4095 512.574 52.4157 498.45 55.3159C485.993 48.0538 473.376 41.6808 460.668 36.2463C474.853 32.1767 489.007 29.1956 503.039 27.3519C515.745 33.5835 528.204 40.932 540.345 49.3215ZM576.202 76.6093C565.531 66.9194 554.519 58.0654 543.222 50.1098C557.941 49.0788 572.404 49.1058 586.51 50.2197C597.639 58.9541 608.295 68.729 618.422 79.4552C604.72 77.6553 590.619 76.7089 576.202 76.6093ZM585.083 49.1079C571.009 48.0755 556.59 48.1161 541.924 49.2007C529.857 40.792 517.47 33.4074 504.833 27.1223C519.539 25.2906 534.105 24.7123 548.426 25.4445C561.123 32.1137 573.363 40.0359 585.083 49.1079ZM619.992 79.6654C609.94 68.9357 599.363 59.1404 588.312 50.3681C603.078 51.6339 617.447 54.097 631.304 57.791C642.332 66.9511 652.654 77.2409 662.229 88.5469C648.677 84.6111 634.564 81.6533 619.992 79.6654ZM629.457 56.2728C615.72 52.7469 601.494 50.4157 586.89 49.2464C575.353 40.213 563.308 32.2906 550.813 25.5788C565.328 26.4704 579.583 28.7165 593.467 32.3765C606.163 39.0899 618.173 47.0951 629.457 56.2728ZM663.968 89.058C654.564 77.8281 644.433 67.5784 633.611 58.4187C647.624 62.3091 661.103 67.4709 673.924 73.9387C684.94 83.1407 695.018 93.4626 704.143 104.779C691.439 98.4749 678.009 93.2375 663.968 89.058ZM706.283 105.855C697.669 94.9642 688.187 84.967 677.852 75.9721C689.909 82.3752 701.362 89.9616 712.106 98.7613C722.847 107.558 732.538 117.289 741.189 127.844C730.332 119.482 718.66 112.155 706.283 105.855ZM743.957 131.295C752.829 142.595 760.548 154.798 767.126 167.776C756.011 158.968 743.963 151.052 731.097 144.044C724.231 131.097 716.447 118.957 707.76 107.742C720.655 114.458 732.763 122.307 743.957 131.295ZM747.377 134.101C757.846 142.874 767.477 152.68 776.16 163.527C784.846 174.375 792.308 185.92 798.579 198.056C789.695 187.613 779.798 178.014 768.996 169.274C762.829 156.818 755.626 145.057 747.377 134.101ZM665.126 90.4509C679.306 94.7585 692.849 100.155 705.634 106.648C714.523 117.907 722.484 130.125 729.503 143.183C717.065 136.515 703.875 130.687 690.036 125.713C682.431 113.121 674.116 101.334 665.126 90.4509ZM136.049 132.572C124.31 140.005 113.37 148.396 103.338 157.742C110.97 146.411 119.717 135.807 129.598 126.036C139.475 116.267 150.173 107.641 161.583 100.138C152.126 110.066 143.613 120.914 136.049 132.572ZM138.08 131.3C146.112 119.171 155.188 107.944 165.304 97.7464C177.464 90.1106 190.399 83.7134 203.986 78.5315C194.061 88.6672 184.928 99.8247 176.611 111.891C163.021 117.365 150.139 123.835 138.08 131.3ZM178.294 111.22C186.775 99.0615 196.094 87.8463 206.224 77.691C219.674 72.7189 233.75 68.9241 248.332 66.2843C238.145 76.0549 228.525 86.8006 219.516 98.4283C205.194 101.77 191.419 106.034 178.294 111.22ZM249.644 65.0346C235.213 67.5632 221.268 71.2131 207.921 76.0069C218.295 65.8177 229.502 56.7277 241.512 48.8589C254.993 43.9173 268.976 40.3488 283.344 38.1045C271.534 45.9532 260.283 54.9648 249.644 65.0346ZM221.06 98.0722C230.144 86.441 239.844 75.7083 250.113 65.9681C264.054 63.5409 278.452 62.1626 293.204 61.8139C282.696 70.7938 272.554 80.6424 262.831 91.292C248.487 92.7388 234.534 94.9993 221.06 98.0722ZM294.411 60.7876C279.707 61.0779 265.346 62.3847 251.429 64.7279C262.249 54.6024 273.693 45.5729 285.708 37.7477C299.899 35.6801 314.457 34.8944 329.271 35.3441C317.279 42.7814 305.638 51.2898 294.411 60.7876ZM264.323 91.1447C274.078 80.5247 284.25 70.7142 294.786 61.7804C308.595 61.5233 322.711 62.1646 337.048 63.6888C329.068 69.4524 321.201 75.6197 313.469 82.173C310.694 84.5246 307.937 86.926 305.197 89.3763C301.525 89.3475 297.871 89.3673 294.237 89.4358C284.102 89.6268 274.122 90.1966 264.323 91.1447ZM338.265 62.8138C323.932 61.2461 309.814 60.5561 295.995 60.7602C307.296 51.2747 319.012 42.7956 331.079 35.4051C345.221 35.9294 359.592 37.5747 374.094 40.3008C361.951 46.8981 349.987 54.4209 338.265 62.8138ZM314.116 82.9363C322.121 76.1518 330.269 69.7833 338.537 63.8501C348.65 64.967 358.871 66.522 369.173 68.5094C372.378 69.1279 375.592 69.7883 378.812 70.4904C367.699 76.9112 356.68 83.9595 345.802 91.6101C332.572 90.2767 319.516 89.5372 306.684 89.3906C309.147 87.1993 311.624 85.0477 314.116 82.9363ZM389.683 64.4261C386.482 66.1483 383.288 67.9227 380.101 69.7488C376.513 68.9565 372.933 68.2158 369.362 67.5269C359.412 65.6072 349.534 64.0898 339.754 62.9799C351.501 54.6225 363.488 47.1433 375.648 40.597C389.209 43.2164 402.881 46.7782 416.588 51.2495C407.584 55.2276 398.608 59.6241 389.683 64.4261ZM417.96 50.6466C404.267 46.1337 390.602 42.5238 377.043 39.8504C390.071 32.9213 403.295 27.0629 416.635 22.3424C430.358 25.7955 444.072 30.3923 457.689 36.0736C444.439 40.0024 431.171 44.8736 417.96 50.6466ZM459.209 35.6269C445.659 29.9119 432.009 25.2646 418.342 21.7448C432.348 16.8944 446.479 13.2996 460.642 11.0381C474.446 14.9215 488.064 20.125 501.413 26.561C487.429 28.4774 473.331 31.5159 459.209 35.6269ZM458.337 10.4024C444.352 12.7687 430.406 16.426 416.586 21.2988C402.373 17.7389 388.147 15.401 374.003 14.3519C387.629 9.26133 401.569 5.51423 415.745 3.21031C430.072 4.17993 444.298 6.60789 458.337 10.4024ZM503.208 26.3209C490.048 19.8844 476.62 14.6402 463.005 10.6731C477.388 8.5278 491.799 7.76129 506.141 8.45482C519.952 12.3817 533.361 17.7138 546.304 24.3435C532.135 23.7508 517.736 24.4284 503.208 26.3209ZM501.874 7.28972C488.172 6.90495 474.421 7.83704 460.701 10.0148C447.325 6.26491 433.773 3.74872 420.118 2.54648C433.637 0.639394 447.361 0.0450818 461.226 0.849079C475.095 1.65331 488.663 3.8311 501.874 7.28972ZM370.23 5.10907C383.963 3.01227 397.687 2.32157 411.329 2.95785C397.843 5.43061 384.583 9.20259 371.613 14.1868C357.748 13.3003 343.967 13.6575 330.359 15.3215C343.19 10.6427 356.496 7.20605 370.23 5.10907ZM326.22 16.8803C340.437 14.849 354.858 14.2653 369.381 15.0575C356.196 20.2796 343.316 26.7559 330.814 34.3944C316.172 33.8675 301.771 34.5386 287.718 36.4532C299.984 28.6429 312.836 22.0808 326.22 16.8803ZM375.488 39.5478C361.044 36.7747 346.725 35.067 332.625 34.4655C345.314 26.81 358.387 20.3565 371.768 15.2C386.079 16.1283 400.483 18.3868 414.88 21.9069C401.602 26.6885 388.445 32.5912 375.488 39.5478ZM321.848 17.5517C309.176 22.7735 296.993 29.2188 285.346 36.7887C271.602 38.804 258.199 42.018 245.237 46.4736C256.813 39.2312 269.112 33.1044 282.107 28.1988C295.1 23.2941 308.376 19.7656 321.848 17.5517ZM237.375 50.4246C226.065 58.1664 215.489 67.0031 205.67 76.8282C192.646 81.6564 180.204 87.5862 168.452 94.6387C178.268 85.1501 189.022 76.6023 200.711 69.1036C212.401 61.6038 224.656 55.3914 237.375 50.4246ZM548.697 24.4558C536.394 18.0076 523.661 12.7293 510.556 8.71471C524.177 9.65988 537.726 11.9322 551.121 15.6013C564.517 19.2709 577.334 24.2212 589.536 30.3497C576.214 27.125 562.569 25.1778 548.697 24.4558ZM344.553 92.4914C334.556 99.5713 324.681 107.16 314.962 115.239C302.329 115.598 289.901 116.428 277.72 117.72C286.758 108.036 296.057 98.9113 305.576 90.3801C318.359 90.4925 331.369 91.1959 344.553 92.4914ZM597.733 33.5486C610.86 37.305 623.642 42.3451 635.983 48.7198C648.327 55.0959 659.837 62.6047 670.5 71.1387C658.138 65.2136 645.195 60.4712 631.774 56.8802C621.078 48.013 609.719 40.2012 597.733 33.5486ZM322.884 136.188C333.263 135.129 343.784 134.347 354.428 133.848C345.42 138.463 336.444 143.354 327.516 148.52C317.411 150.541 307.45 152.8 297.648 155.286C305.971 148.623 314.389 142.255 322.884 136.188ZM324.825 150.086C316.518 154.949 308.253 160.05 300.045 165.388C290.877 168.785 281.865 172.368 273.018 176.127C280.508 169.436 288.095 162.993 295.765 156.8C305.304 154.343 314.995 152.102 324.825 150.086ZM327.874 149.469C336.823 147.681 345.886 146.079 355.054 144.671C346.703 147.952 338.358 151.437 330.031 155.127C321.333 157.863 312.759 160.765 304.314 163.824C312.122 158.824 319.979 154.039 327.874 149.469ZM320.875 136.396C312.265 142.586 303.735 149.085 295.305 155.886C284.817 158.592 274.512 161.558 264.406 164.773C272.044 156.486 279.841 148.526 287.775 140.903C298.627 139.086 309.668 137.58 320.875 136.396ZM242.327 190.189C249.082 181.941 255.993 173.962 263.04 166.26C272.978 163.065 283.112 160.11 293.426 157.408C285.576 163.794 277.814 170.444 270.156 177.351C260.684 181.433 251.404 185.716 242.327 190.189ZM286.025 141.199C278.029 148.924 270.173 156.991 262.481 165.389C251.643 168.879 241.037 172.656 230.683 176.703C237.399 166.872 244.353 157.396 251.521 148.296C262.78 145.574 274.291 143.204 286.025 141.199ZM229.685 178.17C239.92 174.137 250.404 170.369 261.119 166.882C253.984 174.727 246.992 182.857 240.16 191.263C230.465 196.089 221.005 201.132 211.791 206.377C217.538 196.683 223.51 187.276 229.685 178.17ZM249.948 148.679C242.749 157.865 235.769 167.43 229.031 177.352C217.875 181.756 207.015 186.474 196.477 191.488C202.07 180.227 208.002 169.349 214.249 158.886C225.824 155.08 237.736 151.672 249.948 148.679ZM212.799 159.365C206.545 169.9 200.609 180.852 195.015 192.187C183.62 197.654 172.604 203.467 162.001 209.602C166.32 197.077 171.105 184.956 176.332 173.289C188.056 168.193 200.227 163.544 212.799 159.365ZM174.971 173.884C169.754 185.61 164.983 197.788 160.68 210.37C149.193 217.067 138.194 224.144 127.727 231.568C128.431 228.349 129.17 225.153 129.944 221.982C132.433 211.788 135.281 201.846 138.483 192.186C147.321 187.145 156.505 182.394 166.008 177.947C168.965 176.563 171.953 175.209 174.971 173.884ZM128.972 221.745C128.11 225.277 127.291 228.839 126.515 232.43C123.527 234.566 120.581 236.73 117.681 238.922C109.596 245.033 101.857 251.359 94.4879 257.885C96.1377 243.56 98.6004 229.646 101.873 216.226C112.894 207.901 124.69 200.124 137.184 192.93C134.115 202.284 131.376 211.898 128.972 221.745ZM100.613 217.183C97.3901 230.623 94.9743 244.551 93.368 258.88C82.613 268.483 72.6539 278.512 63.5591 288.918C64.072 274.17 65.6106 259.787 68.1932 245.872C78.0455 235.714 88.8836 226.136 100.613 217.183ZM66.9383 247.175C64.4401 261.066 62.9735 275.413 62.5195 290.114C52.8969 301.235 44.2591 312.781 36.6886 324.69C36.4039 309.87 37.3519 295.32 39.578 281.152C47.5365 269.224 56.693 257.881 66.9383 247.175ZM421.908 134.478C429.39 134.96 436.912 135.58 444.467 136.339C437.021 136.43 429.532 136.649 422.004 137.002C414.491 137.354 407.028 137.834 399.62 138.438C407.072 136.976 414.503 135.657 421.908 134.478ZM247.43 200.339C253.751 196.341 260.184 192.43 266.726 188.612C260.777 193.047 254.869 197.61 249.007 202.303C243.143 206.998 237.395 211.767 231.763 216.604C236.921 211.055 242.145 205.633 247.43 200.339ZM243.599 202.782C237.318 209.162 231.126 215.726 225.032 222.468C218.198 228.505 211.545 234.644 205.074 240.873C210.167 233.141 215.391 225.584 220.737 218.208C228.18 212.939 235.803 207.794 243.599 202.782ZM218.203 220.012C212.599 227.824 207.131 235.834 201.81 244.038C194.808 250.877 188.025 257.823 181.465 264.862C185.583 255.711 189.891 246.745 194.375 237.974C202.094 231.847 210.039 225.855 218.203 220.012ZM180.196 267.702C186.38 261.002 192.766 254.384 199.35 247.862C194.517 255.432 189.81 263.164 185.238 271.052C179.819 278.365 174.597 285.74 169.571 293.166C172.95 284.531 176.495 276.041 180.196 267.702ZM192.486 239.481C187.916 248.502 183.532 257.727 179.348 267.145C172.356 274.726 165.62 282.414 159.147 290.192C161.962 279.915 165.028 269.82 168.332 259.924C176.11 252.963 184.164 246.143 192.486 239.481ZM158.513 292.524C164.791 284.924 171.318 277.409 178.092 269.994C174.229 278.812 170.54 287.797 167.037 296.941C161.611 305.085 156.421 313.288 151.468 321.537C153.596 311.72 155.947 302.044 158.513 292.524ZM166.829 261.273C163.504 271.337 160.425 281.602 157.604 292.054C150.71 300.407 144.118 308.862 137.833 317.401C139.141 306.213 140.769 295.195 142.706 284.369C150.415 276.522 158.46 268.816 166.829 261.273ZM137.602 319.408C143.763 310.983 150.224 302.637 156.978 294.39C154.38 304.174 152.009 314.118 149.873 324.211C144.611 333.077 139.623 341.994 134.909 350.946C135.526 340.301 136.427 329.782 137.602 319.408ZM141.464 285.637C139.537 296.582 137.924 307.721 136.638 319.031C129.92 328.227 123.559 337.517 117.561 346.878C117.215 334.982 117.271 323.232 117.721 311.66C125.23 302.84 133.15 294.157 141.464 285.637ZM117.615 348.652C123.526 339.372 129.794 330.16 136.413 321.04C135.252 331.582 134.374 342.271 133.787 353.088C128.781 362.692 124.09 372.334 119.718 381.993C118.67 370.772 117.972 359.65 117.615 348.652ZM116.673 312.895C116.249 324.554 116.224 336.391 116.605 348.375C110.169 358.494 104.157 368.694 98.5786 378.944C96.4852 366.55 94.8908 354.266 93.7941 342.133C100.922 332.252 108.555 322.494 116.673 312.895ZM98.8509 380.541C104.362 370.352 110.303 360.212 116.665 350.15C117.055 361.262 117.794 372.499 118.888 383.836C114.23 394.226 109.94 404.635 106.019 415.037C103.206 403.467 100.817 391.958 98.8509 380.541ZM92.9029 343.373C94.0359 355.569 95.6699 367.915 97.8061 380.369C91.8005 391.49 86.3057 402.668 81.3337 413.864C77.4666 401.195 74.2141 388.581 71.5857 376.072C78.0745 365.058 85.1887 354.143 92.9029 343.373ZM81.7819 415.324C86.6994 404.176 92.1369 393.044 98.0827 381.966C100.093 393.464 102.53 405.052 105.396 416.7C101.204 427.935 97.4444 439.162 94.1194 450.347C89.4932 438.655 85.3783 426.967 81.7819 415.324ZM70.8339 377.354C73.5055 389.903 76.8026 402.556 80.7157 415.262C75.359 427.433 70.6205 439.623 66.5156 451.782C65.1939 448.766 63.9144 445.747 62.6774 442.729C58.6989 433.02 55.1602 423.303 52.0724 413.607C56.26 404.333 60.8978 395.092 65.9715 385.908C67.5503 383.051 69.1712 380.199 70.8339 377.354ZM67.1142 453.141C71.1715 441.018 75.8612 428.862 81.168 416.722C84.8129 428.419 88.9794 440.159 93.66 451.901C90.0976 464.028 87.0468 476.105 84.5112 488.091C78.0926 476.499 72.287 464.833 67.1142 453.141ZM61.7516 443.108C63.1294 446.471 64.5599 449.832 66.0424 453.192C64.88 456.676 63.7696 460.157 62.7117 463.635C59.7619 473.332 57.2198 482.999 55.0934 492.611C48.0098 480.055 41.8245 467.353 36.5851 454.575C40.6077 441.362 45.5794 428.137 51.4591 414.972C54.4744 424.343 57.9086 433.73 61.7516 443.108ZM55.8315 493.914C57.9997 483.971 60.6151 473.965 63.669 463.926C64.6188 460.804 65.6109 457.679 66.6453 454.551C71.8688 466.274 77.7262 477.969 84.1973 489.587C81.4882 502.604 79.3879 515.512 77.9007 528.258C75.9795 525.581 74.0992 522.893 72.2603 520.195C66.3498 511.525 60.868 502.756 55.8315 493.914ZM36.1281 456.09C41.42 468.855 47.651 481.541 54.7726 494.075C51.7159 508.164 49.5543 522.131 48.313 535.895C40.0606 523.664 32.8524 511.125 26.7636 498.352C28.7634 484.344 31.9016 470.226 36.1281 456.09ZM49.2012 537.204C50.3887 523.445 52.5017 509.475 55.5156 495.377C60.4134 503.916 65.7245 512.384 71.4335 520.759C73.4817 523.763 75.5811 526.756 77.731 529.735C77.3182 533.386 76.9559 537.023 76.6441 540.646C75.775 550.741 75.2984 560.724 75.2168 570.565C65.6761 559.755 56.9838 548.615 49.2012 537.204ZM26.514 500.143C32.6571 512.848 39.9023 525.315 48.1746 537.473C46.9265 552.127 46.7251 566.547 47.6009 580.633C38.661 568.812 30.8765 556.486 24.3497 543.717C23.7774 529.388 24.5181 514.828 26.514 500.143ZM77.5832 614.316C66.9672 604.067 57.3088 593.301 48.6967 582.071C47.7399 567.952 47.874 553.489 49.0691 538.781C56.9005 550.169 65.6338 561.283 75.2074 572.064C75.1464 586.482 75.9358 600.594 77.5832 614.316ZM78.7242 615.412C77.025 601.705 76.1875 587.6 76.2047 573.182C82.77 580.516 89.7246 587.693 97.0491 594.697C99.6769 597.21 102.352 599.7 105.075 602.168C105.43 605.825 105.832 609.459 106.28 613.068C107.529 623.125 109.139 632.989 111.105 642.634C99.5264 634.044 88.7085 624.955 78.7242 615.412ZM107.273 612.944C106.871 609.704 106.506 606.444 106.178 603.164C115.717 611.748 125.824 620.048 136.46 628.028C139.28 641.023 142.611 653.671 146.437 665.92C143.593 664.256 140.783 662.566 138.006 660.849C129.08 655.333 120.507 649.553 112.309 643.523C110.246 633.559 108.566 623.357 107.273 612.944ZM136.138 626.534C125.561 618.557 115.514 610.262 106.033 601.686C104.809 588.962 104.149 575.951 104.06 562.705C112.146 571.908 120.727 580.937 129.777 589.759C131.455 602.284 133.58 614.556 136.138 626.534ZM147.721 666.668C143.877 654.476 140.526 641.884 137.684 628.944C147.506 636.263 157.776 643.311 168.463 650.058C172.709 661.963 177.339 673.527 182.333 684.715C170.329 679.111 158.776 673.086 147.721 666.668ZM167.921 648.531C157.308 641.792 147.11 634.756 137.359 627.452C134.785 615.544 132.641 603.343 130.94 590.889C139.323 599.007 148.105 606.948 157.267 614.685C160.48 626.237 164.037 637.528 167.921 648.531ZM183.718 685.358C178.723 674.244 174.088 662.753 169.835 650.921C179.723 657.12 189.964 663.062 200.536 668.725C206.082 679.36 211.91 689.667 217.998 699.624C206.215 695.239 194.776 690.476 183.718 685.358ZM199.718 667.149C189.239 661.499 179.089 655.574 169.289 649.396C165.406 638.485 161.846 627.287 158.626 615.828C167.144 622.973 175.988 629.942 185.144 636.714C189.748 647.126 194.611 657.277 199.718 667.149ZM219.517 700.186C213.448 690.318 207.636 680.102 202.103 669.561C211.918 674.777 222.015 679.754 232.376 684.473C239.046 693.704 245.916 702.625 252.966 711.223C241.543 707.875 230.384 704.19 219.517 700.186ZM231.195 682.833C220.957 678.131 210.98 673.177 201.281 667.989C196.201 658.233 191.359 648.202 186.771 637.913C195.317 644.187 204.131 650.289 213.202 656.204C219.015 665.339 225.018 674.219 231.195 682.833ZM254.669 711.719C247.67 703.23 240.846 694.421 234.217 685.308C243.881 689.668 253.772 693.805 263.875 697.705C271.463 705.435 279.184 712.876 287.021 720.02C276.027 717.549 265.236 714.778 254.669 711.719ZM262.185 695.975C252.255 692.1 242.532 687.994 233.032 683.672C226.925 675.212 220.985 666.491 215.231 657.52C223.73 663.012 232.451 668.339 241.386 673.487C248.191 681.229 255.129 688.728 262.185 695.975ZM288.992 720.46C281.256 713.451 273.63 706.152 266.133 698.571C275.588 702.176 285.227 705.573 295.037 708.751C303.307 714.913 311.657 720.808 320.07 726.433C309.55 724.707 299.185 722.712 288.992 720.46ZM292.545 706.884C283.007 703.743 273.634 700.395 264.438 696.849C257.539 689.815 250.751 682.542 244.088 675.034C252.451 679.796 260.999 684.402 269.723 688.841C277.252 695.084 284.863 701.1 292.545 706.884ZM322.456 726.819C314.24 721.371 306.084 715.664 298.001 709.703C307.163 712.619 316.473 715.345 325.92 717.87C334.591 722.418 343.296 726.724 352.022 730.79C342.044 729.701 332.184 728.375 322.456 726.819ZM321.901 715.744C312.973 713.289 304.17 710.655 295.502 707.85C288.197 702.404 280.953 696.749 273.783 690.887C281.802 694.894 289.967 698.759 298.273 702.475C306.112 707.099 313.991 711.522 321.901 715.744ZM355.115 731.119C346.828 727.307 338.558 723.277 330.316 719.029C338.995 721.281 347.788 723.366 356.687 725.274C365.33 728.173 373.971 730.865 382.599 733.354C373.348 732.809 364.184 732.062 355.115 731.119ZM348.243 722.377C340.846 720.683 333.525 718.866 326.286 716.932C319.651 713.451 313.036 709.828 306.446 706.064C313.282 709.008 320.209 711.852 327.226 714.59C334.227 717.323 341.235 719.918 348.243 722.377ZM387.136 733.605C379.908 731.575 372.67 729.403 365.428 727.085C372.735 728.546 380.111 729.889 387.551 731.11C394.988 732.331 402.403 733.415 409.789 734.365C402.186 734.246 394.633 733.992 387.136 733.605ZM271.654 685.886C277.942 690.019 284.264 694.019 290.615 697.886C283.734 694.692 276.953 691.394 270.276 687.999C264.511 683.216 258.795 678.298 253.133 673.248C259.197 677.541 265.371 681.756 271.654 685.886ZM245.883 668.038C252.589 674.19 259.376 680.153 266.234 685.925C258.003 681.664 249.932 677.253 242.029 672.702C236.013 665.854 230.101 658.814 224.304 651.587C231.325 657.182 238.52 662.668 245.883 668.038ZM220.758 648.74C226.826 656.416 233.023 663.885 239.337 671.143C230.66 666.088 222.189 660.864 213.93 655.484C208.643 647.167 203.514 638.639 198.557 629.908C205.746 636.304 213.148 642.586 220.758 648.74ZM196.236 627.833C201.283 636.824 206.512 645.603 211.908 654.161C203.001 648.306 194.346 642.269 185.952 636.067C181.736 626.52 177.739 616.753 173.975 606.781C181.145 613.918 188.567 620.941 196.236 627.833ZM172.264 605.071C176.051 615.216 180.078 625.152 184.33 634.864C175.291 628.135 166.559 621.213 158.149 614.12C155.208 603.519 152.556 592.699 150.208 581.679C157.264 589.594 164.619 597.398 172.264 605.071ZM148.866 580.168C151.204 591.311 153.852 602.254 156.794 612.973C147.72 605.268 139.024 597.363 130.723 589.284C129.194 577.802 128.04 566.107 127.272 554.227C134.118 562.986 141.319 571.641 148.866 580.168ZM126.181 552.827C126.921 564.796 128.053 576.581 129.565 588.152C120.584 579.354 112.072 570.351 104.052 561.178C104.01 548.994 104.449 536.613 105.375 524.075C111.887 533.759 118.826 543.353 126.181 552.827ZM104.473 522.728C103.51 535.33 103.037 547.777 103.049 560.027C94.3617 550.025 86.2586 539.823 78.7689 529.463C80.217 516.762 82.2766 503.897 84.9432 490.921C90.9396 501.603 97.4547 512.218 104.473 522.728ZM77.641 540.731C77.9209 537.479 78.2417 534.215 78.6033 530.94C86.1491 541.319 94.3087 551.539 103.053 561.555C103.109 574.85 103.738 587.912 104.934 600.687C102.498 598.468 100.1 596.23 97.7406 593.974C90.1577 586.723 82.9735 579.287 76.2095 571.686C76.2633 561.512 76.7412 551.184 77.641 540.731ZM104.599 521.112C97.6445 510.64 91.1906 500.065 85.2531 489.425C87.7453 477.498 90.7497 465.478 94.2627 453.406C98.6183 464.231 103.411 475.057 108.634 485.851C106.87 497.714 105.526 509.479 104.599 521.112ZM108.898 484.095C103.743 473.366 99.0139 462.608 94.7176 451.852C97.9899 440.741 101.693 429.587 105.823 418.423C108.514 429.208 111.573 440.043 114.999 450.901C112.602 462.032 110.57 473.105 108.898 484.095ZM115.427 448.926C112.071 438.17 109.076 427.44 106.441 416.76C110.293 406.456 114.508 396.143 119.086 385.848C120.141 396.397 121.504 407.03 123.179 417.729C120.279 428.163 117.696 438.569 115.427 448.926ZM123.831 415.4C122.222 404.863 120.917 394.392 119.909 384.004C124.184 374.481 128.768 364.975 133.661 355.503C133.155 365.607 132.902 375.821 132.912 386.131C129.607 395.9 126.581 405.662 123.831 415.4ZM133.917 383.184C133.956 373.145 134.245 363.198 134.774 353.359C139.333 344.622 144.154 335.917 149.236 327.258C147.292 336.679 145.554 346.228 144.03 355.892C140.416 364.985 137.046 374.087 133.917 383.184ZM145.724 351.673C147.233 342.532 148.933 333.498 150.817 324.579C155.473 316.74 160.342 308.941 165.425 301.192C162.278 309.589 159.286 318.116 156.458 326.768C152.676 335.054 149.098 343.359 145.724 351.673ZM160.222 318.673C162.68 311.493 165.251 304.401 167.931 297.403C172.087 291.168 176.382 284.967 180.814 278.806C177.176 285.289 173.629 291.873 170.176 298.556C166.722 305.243 163.404 311.951 160.222 318.673ZM145.001 356.158C147.771 349.189 150.685 342.225 153.743 335.272C151.53 342.377 149.426 349.562 147.437 356.825C145.447 364.088 143.596 371.343 141.88 378.583C142.792 371.043 143.833 363.566 145.001 356.158ZM143.337 360.386C142.003 369.259 140.849 378.227 139.881 387.284C137.906 396.17 136.134 405.033 134.563 413.862C134.138 404.605 133.923 395.413 133.912 386.295C136.836 377.661 139.977 369.02 143.337 360.386ZM132.922 389.244C132.98 398.866 133.265 408.569 133.783 418.341C132.138 427.99 130.734 437.596 129.564 447.148C127.515 437.317 125.729 427.526 124.201 417.788C126.844 408.292 129.751 398.772 132.922 389.244ZM130.207 450.191C131.271 441.135 132.548 432.028 134.04 422.881C134.58 431.832 135.315 440.84 136.251 449.895C136.165 459.005 136.275 468.049 136.574 477.018C134.234 468.053 132.112 459.107 130.207 450.191ZM123.558 420.117C125.163 430.108 127.041 440.154 129.194 450.239C127.993 460.48 127.063 470.656 126.398 480.752C122.633 470.778 119.178 460.805 116.033 450.853C118.234 440.65 120.741 430.398 123.558 420.117ZM127.256 483.011C127.867 473.174 128.73 463.26 129.851 453.282C131.908 462.68 134.204 472.111 136.743 481.562C137.14 491.34 137.763 501.026 138.605 510.61C134.557 501.422 130.774 492.217 127.256 483.011ZM115.61 452.827C118.837 462.928 122.381 473.047 126.244 483.165C125.576 493.974 125.213 504.689 125.148 515.29C119.628 505.467 114.467 495.593 109.669 485.693C111.294 474.813 113.273 463.85 115.61 452.827ZM126.141 517.049C126.173 506.612 126.494 496.064 127.111 485.423C130.758 494.86 134.683 504.295 138.885 513.711C139.84 523.977 141.046 534.124 142.494 544.138C136.738 535.166 131.286 526.13 126.141 517.049ZM109.41 487.448C114.286 497.439 119.53 507.402 125.139 517.312C125.11 528.7 125.424 539.955 126.074 551.054C118.799 541.63 111.937 532.089 105.497 522.46C106.388 510.91 107.691 499.229 109.41 487.448ZM127.16 552.457C126.487 541.475 126.144 530.338 126.138 519.069C131.393 528.277 136.964 537.437 142.845 546.53C144.44 557.244 146.313 567.803 148.454 578.189C141.013 569.728 133.911 561.143 127.16 552.457ZM171.423 602.803C163.926 595.223 156.713 587.517 149.791 579.703C147.651 569.485 145.772 559.098 144.163 548.558C149.694 557.033 155.495 565.447 161.564 573.784C164.633 583.631 167.923 593.308 171.423 602.803ZM160.645 570.81C154.775 562.662 149.16 554.443 143.803 546.169C142.356 536.421 141.139 526.543 140.161 516.551C144.128 525.319 148.336 534.069 152.785 542.787C155.206 552.267 157.829 561.611 160.645 570.81ZM151.676 538.378C147.521 530.092 143.585 521.781 139.866 513.454C139.025 504.376 138.38 495.204 137.938 485.949C140.329 494.599 142.923 503.264 145.723 511.934C147.533 520.856 149.519 529.673 151.676 538.378ZM144.01 503.172C141.775 495.911 139.685 488.655 137.738 481.41C137.434 473.915 137.264 466.366 137.23 458.768C138.097 466.16 139.098 473.58 140.235 481.025C141.372 488.473 142.631 495.856 144.01 503.172ZM153.727 542.432C151.873 535.17 150.138 527.827 148.526 520.41C150.909 527.452 153.429 534.495 156.086 541.534C158.745 548.577 161.509 555.532 164.376 562.396C160.684 555.764 157.135 549.107 153.727 542.432ZM154.866 546.83C159 554.788 163.336 562.718 167.874 570.61C171.499 578.962 175.276 587.174 179.195 595.242C173.412 588.005 167.836 580.697 162.47 573.329C159.76 564.626 157.223 555.79 154.866 546.83ZM163.403 576.297C169.103 584.045 175.035 591.725 181.197 599.324C185.538 608.099 190.049 616.698 194.718 625.115C187.284 618.367 180.084 611.497 173.126 604.518C169.682 595.281 166.438 585.87 163.403 576.297ZM197.027 627.199C192.564 619.245 188.243 611.125 184.073 602.846C189.772 609.771 195.662 616.628 201.742 623.405C207.029 630.827 212.436 638.081 217.952 645.163C210.787 639.285 203.811 633.293 197.027 627.199ZM239.347 661.957C233.268 657.394 227.31 652.751 221.474 648.033C216.822 642.145 212.245 636.136 207.75 630.008C212.797 635.478 217.968 640.893 223.264 646.248C228.565 651.608 233.928 656.845 239.347 661.957ZM196.614 616.098C191.623 610.377 186.766 604.603 182.044 598.781C178.721 592.061 175.497 585.239 172.377 578.317C176.175 584.715 180.107 591.085 184.172 597.422C188.235 603.756 192.384 609.982 196.614 616.098ZM136.396 440.97C135.721 433.409 135.186 425.884 134.788 418.4C136.049 411.012 137.45 403.599 138.994 396.167C138.307 403.572 137.744 411.033 137.308 418.547C136.872 426.059 136.569 433.535 136.396 440.97ZM204.535 246.291C199.761 252.12 195.116 257.997 190.602 263.916C194.507 257.391 198.504 250.976 202.589 244.676C207.961 239.43 213.463 234.247 219.092 229.133C214.17 234.734 209.316 240.454 204.535 246.291ZM833.381 590.943C841.08 579.38 847.661 567.268 853.023 554.653C850.659 568.105 846.982 581.347 841.931 594.289C836.882 607.227 830.621 619.455 823.251 630.948C827.851 618.034 831.214 604.665 833.381 590.943ZM832.044 592.93C829.64 607.274 825.916 621.218 820.825 634.646C812.821 646.571 803.604 657.68 793.296 667.943C798.24 654.648 802.046 640.741 804.735 626.336C814.925 615.807 824.063 604.655 832.044 592.93ZM792.45 670.184C802.387 660.473 811.344 649.992 819.214 638.765C814.105 651.431 807.756 663.618 800.124 675.227C792.492 686.838 783.82 697.502 774.216 707.215C781.403 695.539 787.475 683.159 792.45 670.184ZM803.471 627.634C800.669 642.189 796.716 656.225 791.593 669.621C781.328 679.634 770.013 688.826 757.765 697.169C763.097 684.1 767.515 670.371 771.015 656.085C782.74 647.207 793.59 637.709 803.471 627.634ZM757.075 698.844C769.23 690.665 780.485 681.658 790.728 671.85C785.393 685.383 778.848 698.251 771.073 710.328C760.768 720.324 749.447 729.269 737.236 737.161C744.836 725.185 751.45 712.374 757.075 698.844ZM769.75 657.038C766.182 671.358 761.686 685.108 756.267 698.182C744.518 706.07 731.925 713.185 718.591 719.504C724.538 707.026 729.797 693.905 734.347 680.222C746.864 673.066 758.69 665.326 769.75 657.038ZM717.906 720.932C731.22 714.686 743.808 707.651 755.569 699.85C749.801 713.504 743.018 726.411 735.222 738.449C723.099 746.109 710.119 752.747 696.404 758.361C704.336 746.687 711.511 734.177 717.906 720.932ZM733.045 680.963C728.453 694.632 723.151 707.731 717.159 720.178C704.649 726.029 691.493 731.184 677.776 735.623C682.723 727.112 687.401 718.277 691.8 709.145C693.378 705.869 694.92 702.554 696.425 699.202C699.792 697.735 703.123 696.231 706.415 694.69C715.594 690.394 724.479 685.814 733.045 680.963ZM677.021 736.918C690.751 732.52 703.929 727.409 716.47 721.602C710.002 734.866 702.747 747.379 694.728 759.04C681.595 764.313 667.799 768.654 653.442 772.062C661.853 761.095 669.725 749.354 677.021 736.918ZM690.898 708.711C686.345 718.165 681.491 727.298 676.351 736.081C666.658 739.175 656.687 741.912 646.467 744.286C643.287 745.025 640.083 745.729 636.856 746.397C644.397 736.011 651.596 725.091 658.422 713.677C671.05 709.515 683.279 704.879 695.061 699.794C693.703 702.797 692.315 705.769 690.898 708.711ZM635.98 747.599C639.58 746.863 643.151 746.084 646.693 745.261C656.565 742.967 666.206 740.336 675.592 737.372C668.259 749.786 660.35 761.496 651.902 772.424C638.448 775.546 624.508 777.853 610.168 779.343C616.777 772.046 623.19 764.377 629.391 756.358C631.615 753.483 633.811 750.563 635.98 747.599ZM656.97 714.153C650.14 725.508 642.94 736.37 635.4 746.696C622.874 749.243 610.002 751.26 596.837 752.734C605.145 743.728 613.229 734.249 621.058 724.324C633.34 721.346 645.323 717.95 656.97 714.153ZM595.799 753.855C609.016 752.409 621.941 750.418 634.522 747.894C632.57 750.547 630.596 753.165 628.6 755.746C622.18 764.048 615.533 771.972 608.679 779.495C598.555 780.505 588.234 781.109 577.745 781.307C574.481 781.368 571.2 781.391 567.904 781.373C577.438 772.783 586.75 763.599 595.799 753.855ZM619.483 724.704C611.67 734.556 603.605 743.964 595.319 752.901C583.206 754.217 570.846 755.074 558.279 755.463C567.231 747.973 576.049 740.068 584.703 731.762C596.53 729.774 608.133 727.417 619.483 724.704ZM582.951 732.054C574.338 740.275 565.565 748.099 556.66 755.511C545.083 755.832 533.332 755.757 521.439 755.279C530.868 749.384 540.23 743.125 549.501 736.509C560.827 735.348 571.984 733.86 582.951 732.054ZM547.49 736.712C538.296 743.23 529.013 749.397 519.666 755.205C508.671 754.726 497.556 753.903 486.345 752.73C496.055 748.465 505.751 743.882 515.412 738.981C526.236 738.515 536.935 737.756 547.49 736.712ZM453.149 766.061C463.595 762.257 474.051 758.082 484.493 753.54C495.819 754.76 507.048 755.625 518.158 756.139C508.025 762.388 497.818 768.217 487.568 773.614C476.172 771.521 464.688 769.003 453.149 766.061ZM482.484 753.32C472.137 757.783 461.778 761.883 451.43 765.62C440.783 762.867 430.091 759.754 419.377 756.279C429.759 754.126 440.195 751.658 450.662 748.874C461.337 750.667 471.951 752.147 482.484 753.32ZM512.995 739.08C503.468 743.868 493.909 748.348 484.337 752.517C473.965 751.394 463.512 749.973 452.998 748.247C462.77 745.605 472.569 742.686 482.377 739.489C492.681 739.613 502.892 739.474 512.995 739.08ZM479.264 739.444C469.698 742.511 460.142 745.313 450.614 747.851C440.894 746.215 431.123 744.32 421.315 742.162C430.885 741.098 440.512 739.799 450.183 738.261C459.948 738.887 469.645 739.28 479.264 739.444ZM485.335 738.517C494.466 735.489 503.605 732.22 512.737 728.708C522.412 727.292 531.972 725.661 541.408 723.823C532.695 728.808 523.938 733.531 515.152 737.991C505.312 738.411 495.368 738.589 485.335 738.517ZM517.566 737.883C526.568 733.27 535.539 728.382 544.462 723.221C554.579 721.197 564.551 718.936 574.364 716.447C566.043 723.108 557.628 729.475 549.136 735.541C538.748 736.601 528.219 737.384 517.566 737.883ZM551.145 735.332C559.752 729.144 568.279 722.647 576.707 715.847C587.191 713.142 597.493 710.177 607.594 706.963C599.959 715.247 592.165 723.205 584.233 730.826C573.385 732.643 562.348 734.149 551.145 735.332ZM585.982 730.53C593.976 722.807 601.829 714.742 609.519 706.347C620.358 702.856 630.965 699.079 641.319 695.032C634.605 704.861 627.653 714.335 620.487 723.433C609.228 726.155 597.717 728.525 585.982 730.53ZM384.143 762.415C395.148 760.866 406.242 758.957 417.397 756.686C428.213 760.231 439.009 763.409 449.761 766.219C438.553 770.224 427.362 773.802 416.217 776.949C405.513 772.535 394.811 767.688 384.143 762.415ZM451.479 766.666C463.096 769.661 474.658 772.228 486.134 774.367C474.994 780.188 463.804 785.5 452.604 790.292C440.999 786.566 429.357 782.321 417.715 777.564C428.935 774.365 440.2 770.731 451.479 766.666ZM382.384 762.66C393.116 768.001 403.885 772.912 414.658 777.387C402.548 780.765 390.495 783.636 378.541 785.995C367.971 779.941 357.471 773.371 347.079 766.303C358.723 765.505 370.502 764.292 382.384 762.66ZM379.867 786.752C391.88 784.35 403.99 781.434 416.156 778.006C427.847 782.818 439.541 787.115 451.199 790.891C439.001 796.062 426.793 800.617 414.625 804.539C402.99 799.236 391.387 793.3 379.867 786.752ZM345.462 766.411C355.891 773.544 366.43 780.175 377.042 786.288C364.036 788.81 351.149 790.726 338.433 792.033C328.16 784.43 318.051 776.216 308.149 767.421C320.399 767.569 332.85 767.234 345.462 766.411ZM339.628 792.914C352.39 791.569 365.321 789.613 378.368 787.049C389.914 793.65 401.544 799.638 413.21 804.992C410.069 805.992 406.931 806.95 403.797 807.866C393.727 810.807 383.695 813.311 373.73 815.368C364.944 810.233 356.236 804.654 347.632 798.647C344.953 796.777 342.286 794.866 339.628 792.914ZM306.621 767.4C316.537 776.252 326.663 784.523 336.955 792.182C333.677 792.507 330.411 792.791 327.157 793.035C316.694 793.818 306.36 794.181 296.185 794.122C288.66 787.274 281.304 780.007 274.138 772.344C271.91 769.962 269.701 767.542 267.511 765.084C280.273 766.421 293.327 767.195 306.621 767.4ZM297.294 795.127C307.137 795.155 317.126 794.789 327.232 794.033C330.856 793.761 334.496 793.439 338.149 793.068C341.106 795.251 344.076 797.385 347.059 799.467C355.37 805.269 363.779 810.675 372.264 815.667C358.133 818.524 344.142 820.482 330.37 821.517C319.044 813.606 307.999 804.789 297.294 795.127ZM273.407 773.028C280.329 780.429 287.428 787.463 294.688 794.11C280.27 793.966 266.175 792.972 252.488 791.12C243.059 781.032 234.093 770.117 225.635 758.446C235.256 760.519 245.101 762.238 255.142 763.599C258.747 764.088 262.378 764.53 266.032 764.926C268.467 767.673 270.926 770.374 273.407 773.028ZM253.571 792.273C267.274 794.073 281.377 795.02 295.795 795.12C306.472 804.814 317.49 813.672 328.792 821.631C314.072 822.663 299.608 822.636 285.5 821.523C274.364 812.785 263.703 803.005 253.571 792.273ZM224.17 758.127C232.594 769.824 241.525 780.774 250.92 790.904C236.308 788.852 222.166 785.819 208.598 781.796C199.528 770.939 191.138 759.162 183.462 746.565C196.491 751.174 210.089 755.032 224.17 758.127ZM209.763 783.18C223.315 787.116 237.429 790.074 252.001 792.063C262.058 802.798 272.641 812.598 283.697 821.375C268.931 820.109 254.562 817.647 240.705 813.953C229.67 804.789 219.343 794.493 209.763 783.18ZM181.97 746.033C189.571 758.618 197.881 770.398 206.866 781.276C192.685 776.968 179.142 771.571 166.356 765.076C157.473 753.824 149.517 741.613 142.501 728.563C154.94 735.231 168.13 741.059 181.97 746.033ZM140.908 727.702C147.77 740.641 155.549 752.773 164.23 763.983C151.33 757.263 139.218 749.41 128.02 740.416C119.159 729.126 111.448 716.935 104.877 703.97C115.993 712.778 128.041 720.694 140.908 727.702ZM103.007 702.473C109.168 714.915 116.363 726.664 124.601 737.611C114.14 728.842 104.516 719.041 95.8378 708.202C87.1608 697.364 79.7041 685.831 73.4368 673.707C82.3177 684.143 92.2106 693.737 103.007 702.473ZM71.4466 669.756C65.1198 656.861 60.1068 643.323 56.3716 629.264C65.4124 640.19 75.5514 650.438 86.6791 659.968C90.7028 674.057 95.7913 687.546 101.955 700.32C90.7382 691.069 80.5271 680.875 71.4466 669.756ZM68.6844 666.3C60.2691 655.542 52.8883 643.949 46.6496 631.534C40.4115 619.121 35.5134 606.281 31.9031 593.11C38.4216 605.171 46.1062 616.616 54.8537 627.41C58.2959 640.873 62.8954 653.871 68.6844 666.3ZM140.064 726.099C127.089 718.937 114.964 710.842 103.807 701.832C97.4553 688.974 92.2092 675.37 88.0591 661.142C98.8391 670.25 110.529 678.693 123.033 686.436C127.853 700.331 133.534 713.586 140.064 726.099ZM181.154 744.674C167.287 739.63 154.085 733.723 141.65 726.967C135.033 714.458 129.272 701.189 124.382 687.267C136.168 694.484 148.666 701.085 161.797 707.04C167.606 720.237 174.067 732.809 181.154 744.674ZM735.942 739.178C747.676 731.748 758.612 723.363 768.64 714.023C761.013 725.341 752.273 735.935 742.402 745.697C732.527 755.463 721.833 764.087 710.426 771.589C719.877 761.667 728.383 750.826 735.942 739.178ZM733.912 740.449C725.884 752.569 716.814 763.788 706.706 773.98C694.545 781.618 681.607 788.017 668.018 793.2C677.938 783.068 687.068 771.916 695.381 759.856C708.97 754.382 721.853 747.913 733.912 740.449ZM693.698 760.527C685.22 772.679 675.905 783.889 665.78 794.04C652.329 799.013 638.252 802.809 623.669 805.449C633.852 795.682 643.469 784.94 652.475 773.317C666.797 769.976 680.572 765.712 693.698 760.527ZM622.357 806.698C636.789 804.169 650.735 800.519 664.083 795.724C653.707 805.916 642.498 815.009 630.485 822.879C617.002 827.821 603.018 831.389 588.649 833.633C600.462 825.784 611.715 816.77 622.357 806.698ZM650.931 773.673C641.849 785.3 632.153 796.028 621.888 805.765C607.947 808.192 593.549 809.57 578.798 809.919C589.302 800.942 599.44 791.097 609.16 780.452C623.505 779.006 637.457 776.746 650.931 773.673ZM577.591 810.946C592.294 810.655 606.655 809.348 620.571 807.005C609.749 817.133 598.303 826.164 586.285 833.99C572.095 836.057 557.538 836.842 542.725 836.393C554.72 828.954 566.362 820.445 577.591 810.946ZM607.668 780.599C597.917 791.215 587.748 801.022 577.216 809.953C563.408 810.21 549.294 809.569 534.957 808.045C542.936 802.282 550.801 796.116 558.532 789.564C561.305 787.215 564.06 784.815 566.797 782.367C570.472 782.396 574.128 782.376 577.764 782.307C587.895 782.116 597.872 781.547 607.668 780.599ZM533.741 808.92C548.072 810.487 562.189 811.177 576.007 810.973C564.704 820.46 552.986 828.94 540.918 836.332C526.777 835.807 512.408 834.162 497.907 831.436C510.051 824.838 522.018 817.314 533.741 808.92ZM557.885 788.801C549.882 795.584 541.735 801.952 533.469 807.884C523.354 806.767 513.13 805.212 502.827 803.224C499.623 802.606 496.411 801.945 493.192 801.244C504.301 794.825 515.316 787.78 526.19 780.132C539.42 781.466 552.478 782.206 565.31 782.352C562.849 784.542 560.374 786.692 557.885 788.801ZM482.316 807.311C485.519 805.588 488.715 803.812 491.903 801.985C495.49 802.777 499.068 803.518 502.637 804.206C512.59 806.126 522.47 807.644 532.251 808.754C520.503 817.113 508.515 824.593 496.353 831.14C482.792 828.521 469.119 824.959 455.412 820.487C464.415 816.509 473.392 812.113 482.316 807.311ZM490.452 801.662C487.588 803.293 484.718 804.883 481.842 806.43C472.603 811.401 463.31 815.936 453.99 820.02C444.329 816.825 434.653 813.178 424.989 809.092C421.984 807.821 418.979 806.508 415.978 805.153C428.182 801.183 440.424 796.58 452.654 791.359C465.315 795.414 477.932 798.851 490.452 801.662ZM524.67 779.976C513.817 787.569 502.825 794.56 491.741 800.925C479.262 798.157 466.684 794.765 454.058 790.757C465.307 785.91 476.543 780.541 487.728 774.661C500.159 776.936 512.487 778.708 524.67 779.976ZM489.161 773.904C499.474 768.44 509.741 762.542 519.932 756.218C531.912 756.732 543.75 756.839 555.414 756.545C545.725 764.557 535.881 772.081 525.92 779.099C513.799 777.867 501.533 776.136 489.161 773.904ZM527.439 779.251C537.437 772.17 547.314 764.58 557.034 756.501C569.668 756.142 582.097 755.311 594.279 754.019C585.239 763.705 575.939 772.831 566.418 781.363C553.635 781.25 540.624 780.547 527.439 779.251ZM404.078 808.826C407.569 807.807 411.064 806.734 414.563 805.61C417.906 807.13 421.252 808.598 424.599 810.014C433.934 813.961 443.281 817.499 452.617 820.618C439.389 826.351 426.108 831.175 412.852 835.05C400.133 829.669 387.5 823.343 375.024 816.12C384.657 814.101 394.35 811.667 404.078 808.826ZM454.04 821.09C467.733 825.603 481.399 829.213 494.958 831.887C481.931 838.816 468.707 844.674 455.366 849.395C441.643 845.942 427.929 841.345 414.31 835.663C427.56 831.734 440.828 826.863 454.04 821.09ZM373.557 816.425C386.011 823.685 398.626 830.057 411.332 835.491C397.15 839.559 382.999 842.54 368.97 844.384C356.265 838.154 343.808 830.807 331.67 822.419C345.446 821.331 359.435 819.325 373.557 816.425ZM370.596 845.175C384.576 843.258 398.671 840.22 412.79 836.11C426.341 841.825 439.992 846.473 453.659 849.992C439.657 854.842 425.53 858.436 411.371 860.697C397.566 856.814 383.947 851.611 370.596 845.175ZM330.09 822.54C342.155 830.947 354.541 838.33 367.176 844.613C352.468 846.446 337.9 847.025 323.578 846.293C310.883 839.625 298.645 831.705 286.926 822.635C301.002 823.667 315.423 823.626 330.09 822.54ZM325.7 847.394C339.871 847.986 354.271 847.308 368.8 845.415C381.963 851.851 395.392 857.096 409.008 861.062C394.624 863.209 380.212 863.976 365.869 863.283C352.056 859.356 338.645 854.024 325.7 847.394ZM285.12 822.496C296.655 831.527 308.698 839.448 321.191 846.158C306.675 845.267 292.418 843.021 278.532 839.36C265.84 832.649 253.833 824.646 242.552 815.471C256.289 818.997 270.515 821.327 285.12 822.496ZM282.464 841.387C295.787 844.612 309.433 846.559 323.307 847.281C335.612 853.73 348.346 859.009 361.453 863.023C347.83 862.079 334.278 859.806 320.88 856.136C307.483 852.466 294.666 847.516 282.464 841.387ZM410.774 870.886C396.909 870.082 383.344 867.905 370.137 864.448C383.839 864.832 397.592 863.899 411.312 861.721C424.688 865.47 438.24 867.985 451.894 869.187C438.372 871.095 424.643 871.69 410.774 870.886ZM456.267 868.523C441.941 867.554 427.715 865.127 413.676 861.333C427.657 858.966 441.6 855.31 455.415 850.438C469.626 853.998 483.85 856.335 497.993 857.384C484.372 862.473 470.438 866.219 456.267 868.523ZM500.228 856.536C485.919 855.608 471.517 853.35 457.122 849.83C470.399 845.049 483.556 839.146 496.513 832.189C510.955 834.962 525.273 836.67 539.372 837.271C526.682 844.927 513.609 851.38 500.228 856.536ZM502.615 856.679C515.8 851.457 528.68 844.981 541.182 837.342C555.823 837.869 570.223 837.199 584.274 835.285C572.006 843.096 559.151 849.658 545.765 854.858C531.552 856.888 517.134 857.471 502.615 856.679ZM550.137 854.187C562.812 848.965 574.998 842.52 586.647 834.949C600.392 832.934 613.797 829.72 626.76 825.264C615.185 832.506 602.887 838.632 589.892 843.538C576.895 848.444 563.614 851.973 550.137 854.187ZM634.622 821.313C645.935 813.57 656.514 804.731 666.334 794.903C679.36 790.074 691.804 784.142 703.558 777.088C693.739 786.581 682.982 795.132 671.289 802.633C659.597 810.134 647.342 816.346 634.622 821.313ZM541.625 856.417C528.8 861.092 515.499 864.527 501.771 866.623C488.042 868.719 474.321 869.41 460.684 868.775C474.163 866.302 487.418 862.531 500.383 857.55C514.244 858.436 528.021 858.079 541.625 856.417ZM240.235 814.864C250.928 823.728 262.284 831.537 274.267 838.188C261.14 834.432 248.357 829.392 236.017 823.017C223.679 816.644 212.173 809.139 201.514 800.609C213.874 806.533 226.816 811.274 240.235 814.864ZM198.09 797.81C187.064 788.601 176.978 778.272 167.847 766.945C180.551 773.251 193.982 778.489 208.024 782.669C217.432 793.906 227.569 804.161 238.398 813.326C224.386 809.436 210.91 804.276 198.09 797.81ZM194.161 795.776C182.099 789.372 170.642 781.783 159.895 772.981C149.144 764.175 139.444 754.435 130.787 743.867C141.648 752.234 153.324 759.566 165.706 765.869C174.327 776.77 183.816 786.775 194.161 795.776ZM571.456 705.471C564.435 708.07 557.323 710.559 550.122 712.935C556.879 709.828 563.621 706.586 570.345 703.207C577.055 699.835 583.668 696.367 590.179 692.807C583.975 697.167 577.732 701.388 571.456 705.471ZM575.711 703.878C583.187 698.939 590.615 693.803 597.983 688.471C605.928 683.983 613.718 679.359 621.349 674.607C614.754 681.116 608.068 687.427 601.3 693.534C592.918 697.144 584.386 700.594 575.711 703.878ZM604.154 692.297C611.265 685.817 618.284 679.113 625.199 672.19C633.467 666.958 641.543 661.576 649.421 656.056C643.487 664.155 637.407 672.033 631.194 679.682C622.371 684.071 613.355 688.279 604.154 692.297ZM633.356 678.602C639.705 670.725 645.913 662.609 651.966 654.263C660.381 648.302 668.568 642.183 676.517 635.92C671.625 645.391 666.525 654.631 661.234 663.627C652.178 668.818 642.881 673.815 633.356 678.602ZM677.621 633.771C669.901 639.9 661.954 645.893 653.787 651.738C659.401 643.914 664.877 635.89 670.206 627.673C677.206 620.836 683.987 613.892 690.545 606.853C686.423 616.015 682.111 624.991 677.621 633.771ZM662.984 662.619C668.331 653.464 673.479 644.06 678.413 634.42C686.893 627.683 695.099 620.783 703.021 613.737C699.415 624.412 695.531 634.854 691.384 645.043C682.211 651.116 672.739 656.981 662.984 662.619ZM703.664 611.823C695.886 618.783 687.832 625.603 679.511 632.265C684.086 623.234 688.474 613.999 692.662 604.57C699.652 596.992 706.385 589.307 712.856 581.531C710.039 591.816 706.971 601.919 703.664 611.823ZM692.862 644.061C697.024 633.753 700.918 623.19 704.529 612.391C713.012 604.794 721.165 597.029 728.978 589.12C726.843 600.831 724.344 612.315 721.497 623.542C712.318 630.609 702.766 637.456 692.862 644.061ZM729.294 587.374C721.583 595.222 713.537 602.929 705.167 610.473C708.494 600.403 711.576 590.129 714.399 579.669C721.293 571.317 727.885 562.861 734.17 554.322C732.861 565.517 731.232 576.542 729.294 587.374ZM722.779 622.553C725.619 611.234 728.105 599.658 730.224 587.854C738.624 579.295 746.625 570.568 754.212 561.702C753.683 574.263 752.688 586.612 751.238 598.71C742.211 606.894 732.716 614.852 722.779 622.553ZM754.278 560.084C746.769 568.903 738.85 577.587 730.535 586.106C732.464 575.155 734.078 564.009 735.365 552.692C742.081 543.498 748.441 534.209 754.438 524.85C754.784 536.752 754.728 548.507 754.278 560.084ZM752.367 597.682C753.795 585.515 754.764 573.097 755.264 560.469C763.451 550.839 771.15 541.048 778.341 531.13C779.49 544.328 780.048 557.345 780.019 570.129C771.381 579.553 762.153 588.751 752.367 597.682ZM778.206 529.609C771.078 539.491 763.445 549.25 755.326 558.849C755.75 547.185 755.775 535.342 755.393 523.353C761.83 513.234 767.842 503.034 773.42 492.785C775.514 505.183 777.109 517.472 778.206 529.609ZM781.02 569.032C781.016 556.199 780.422 543.134 779.236 529.891C787.006 519.1 794.175 508.162 800.718 497.122C801.384 500.348 802.008 503.567 802.59 506.777C804.464 517.103 805.905 527.344 806.909 537.471C800.885 545.671 794.427 553.747 787.555 561.675C785.417 564.142 783.238 566.594 781.02 569.032ZM800.415 495.668C793.926 506.683 786.812 517.598 779.097 528.369C777.964 516.169 776.329 503.819 774.192 491.36C780.198 480.239 785.692 469.061 790.664 457.865C794.533 470.538 797.786 483.156 800.415 495.668ZM803.575 506.599C802.926 503.023 802.226 499.437 801.474 495.842C803.336 492.675 805.146 489.501 806.904 486.319C811.805 477.447 816.301 468.52 820.379 459.561C824.698 473.317 828.108 487.029 830.576 500.618C823.894 512.706 816.281 524.609 807.793 536.263C806.792 526.469 805.384 516.572 803.575 506.599ZM819.928 458.134C815.74 467.408 811.102 476.651 806.028 485.835C804.45 488.691 802.829 491.542 801.167 494.387C798.495 481.834 795.197 469.176 791.282 456.467C796.639 444.298 801.377 432.109 805.481 419.951C806.804 422.971 808.085 425.992 809.324 429.014C813.302 438.723 816.84 448.439 819.928 458.134ZM831.338 499.231C828.816 485.643 825.358 471.939 820.997 458.196C826.917 445.05 831.935 431.837 836.011 418.631C841.541 432.312 845.985 446.076 849.285 459.838C844.417 473.124 838.412 486.282 831.338 499.231ZM835.415 417.166C831.392 430.379 826.421 443.604 820.541 456.768C817.526 447.399 814.092 438.013 810.25 428.635C808.87 425.269 807.438 421.904 805.954 418.542C807.117 415.056 808.228 411.573 809.287 408.094C812.236 398.399 814.777 388.734 816.904 379.124C823.988 391.682 830.175 404.386 835.415 417.166ZM849.902 458.137C846.534 444.432 842.039 430.73 836.475 417.116C840.743 403.041 843.938 388.979 846.01 375.018C852.297 388.44 857.349 402.116 861.078 415.964C858.659 430.1 854.907 444.188 849.902 458.137ZM845.237 373.383C843.237 387.393 840.099 401.513 835.872 415.651C830.579 402.884 824.347 390.196 817.224 377.66C820.282 363.569 822.444 349.601 823.685 335.836C831.939 348.068 839.148 360.608 845.237 373.383ZM796.784 301.168C806.324 311.977 815.015 323.117 822.797 334.526C821.609 348.287 819.496 362.259 816.481 376.358C811.584 367.821 806.274 359.354 800.566 350.981C798.518 347.977 796.419 344.985 794.27 342.006C794.683 338.356 795.045 334.719 795.357 331.096C796.226 320.998 796.703 311.013 796.784 301.168ZM799.739 351.544C805.649 360.213 811.13 368.98 816.165 377.822C813.997 387.762 811.382 397.766 808.329 407.803C807.379 410.926 806.386 414.053 805.351 417.182C800.129 405.462 794.273 393.77 787.803 382.156C790.513 369.138 792.613 356.23 794.1 343.484C796.021 346.16 797.901 348.847 799.739 351.544ZM787.489 383.652C793.906 395.24 799.711 406.903 804.883 418.592C800.826 430.714 796.136 442.869 790.83 455.007C787.186 443.313 783.021 431.576 778.342 419.838C781.904 407.712 784.954 395.636 787.489 383.652ZM777.882 421.392C782.507 433.081 786.621 444.765 790.216 456.405C785.299 467.553 779.861 478.685 773.916 489.763C771.906 478.27 769.469 466.685 766.605 455.042C770.797 443.806 774.557 432.578 777.882 421.392ZM765.981 456.705C768.793 468.27 771.182 479.775 773.147 491.188C767.636 501.376 761.696 511.516 755.334 521.578C754.944 510.471 754.205 499.239 753.112 487.908C757.77 477.517 762.061 467.108 765.981 456.705ZM752.282 489.751C753.329 500.967 754.027 512.084 754.383 523.076C748.474 532.354 742.207 541.565 735.589 550.683C736.75 540.147 737.627 529.465 738.214 518.654C743.22 509.051 747.91 499.41 752.282 489.751ZM737.092 520.796C736.475 531.435 735.575 541.947 734.4 552.315C728.24 560.741 721.779 569.086 715.025 577.333C717.62 567.558 719.99 557.622 722.124 547.538C727.387 538.67 732.377 529.75 737.092 520.796ZM720.528 550.212C718.402 560.021 716.053 569.687 713.49 579.199C707.214 586.797 700.689 594.309 693.918 601.722C697.777 592.914 701.461 583.94 704.96 574.807C710.386 566.663 715.576 558.46 720.528 550.212ZM702.425 578.582C699.051 587.206 695.511 595.685 691.815 604.013C685.632 610.713 679.248 617.328 672.666 623.85C677.487 616.297 682.182 608.584 686.744 600.716C692.168 593.396 697.395 586.015 702.425 578.582ZM681.379 607.852C677.486 614.358 673.5 620.753 669.428 627.035C664.072 632.265 658.587 637.433 652.976 642.532C657.875 636.956 662.707 631.261 667.466 625.45C672.233 619.631 676.871 613.762 681.379 607.852ZM628.401 668.961C634.706 662.556 640.922 655.967 647.038 649.197C653.853 643.175 660.488 637.052 666.943 630.838C661.841 638.584 656.608 646.153 651.253 653.541C643.813 658.808 636.194 663.952 628.401 668.961ZM622.991 669.426C628.881 664.71 634.654 659.921 640.308 655.062C635.128 660.638 629.88 666.086 624.57 671.404C618.219 675.422 611.754 679.351 605.179 683.186C611.16 678.73 617.099 674.143 622.991 669.426ZM704.065 574.345C699.905 580.587 695.606 586.795 691.168 592.962C694.812 586.469 698.366 579.875 701.823 573.181C705.279 566.49 708.599 559.779 711.783 553.053C709.322 560.241 706.748 567.34 704.065 574.345ZM706.571 570.556C709.722 562.152 712.716 553.618 715.546 544.958C719.327 536.676 722.903 528.375 726.275 520.065C724.766 529.21 723.065 538.248 721.179 547.17C716.524 555.009 711.654 562.808 706.571 570.556ZM722.761 544.491C724.705 535.066 726.444 525.514 727.97 515.846C731.584 506.751 734.955 497.647 738.085 488.547C738.045 498.59 737.757 508.54 737.226 518.383C732.667 527.122 727.844 535.83 722.761 544.491ZM738.089 485.436C735.165 494.073 732.023 502.716 728.662 511.352C729.995 502.483 731.149 493.518 732.117 484.466C734.094 475.574 735.867 466.706 737.438 457.871C737.863 467.128 738.079 476.32 738.089 485.436ZM738.34 516.239C738.847 506.132 739.099 495.914 739.09 485.601C742.393 475.834 745.419 466.074 748.168 456.338C749.777 466.877 751.083 477.351 752.09 487.74C747.816 497.262 743.232 506.768 738.34 516.239ZM747.798 453.95C745.156 463.444 742.25 472.961 739.079 482.487C739.022 472.866 738.737 463.164 738.219 453.392C739.863 443.747 741.267 434.143 742.436 424.594C744.485 434.424 746.271 444.214 747.798 453.95ZM752.914 485.897C751.858 475.346 750.495 464.71 748.82 454.009C751.721 443.574 754.304 433.168 756.572 422.811C759.929 433.568 762.925 444.3 765.559 454.982C761.708 465.287 757.492 475.6 752.914 485.897ZM755.967 420.884C753.766 431.087 751.258 441.339 748.442 451.621C746.836 441.631 744.959 431.587 742.807 421.503C744.008 411.262 744.938 401.085 745.603 390.988C749.367 400.96 752.822 410.932 755.967 420.884ZM766.178 453.319C763.486 442.532 760.427 431.696 757.001 420.836C759.397 409.704 761.43 398.63 763.102 387.639C768.258 398.37 772.987 409.129 777.284 419.887C774.012 430.999 770.309 442.153 766.178 453.319ZM762.331 386.041C760.706 396.922 758.727 407.886 756.389 418.91C753.163 408.81 749.619 398.692 745.757 388.574C746.424 377.764 746.787 367.048 746.853 356.445C752.372 366.268 757.533 376.141 762.331 386.041ZM777.739 418.333C773.383 407.506 768.59 396.679 763.366 385.883C765.13 374.022 766.473 362.26 767.4 350.628C774.355 361.101 780.81 371.677 786.748 382.317C784.256 394.243 781.252 406.262 777.739 418.333ZM766.502 349.28C765.611 360.828 764.309 372.507 762.59 384.286C757.715 374.295 752.47 364.333 746.862 354.424C746.891 343.039 746.577 331.786 745.927 320.689C753.201 330.112 760.063 339.652 766.502 349.28ZM787.057 380.822C781.061 370.139 774.545 359.523 767.526 349.012C768.489 336.41 768.963 323.963 768.951 311.713C777.638 321.715 785.742 331.918 793.232 342.278C791.784 354.979 789.724 367.845 787.057 380.822ZM767.948 310.562C767.99 322.746 767.55 335.128 766.624 347.666C760.113 337.982 753.174 328.389 745.82 318.917C745.08 306.947 743.948 295.161 742.436 283.589C751.417 292.387 759.928 301.389 767.948 310.562ZM793.398 340.802C785.851 330.422 777.691 320.202 768.947 310.184C768.89 296.887 768.261 283.822 767.066 271.044C769.501 273.263 771.899 275.501 774.258 277.757C781.842 285.009 789.027 292.446 795.791 300.048C795.738 310.225 795.26 320.556 794.36 331.011C794.08 334.263 793.759 337.527 793.398 340.802ZM765.966 270.046C767.19 282.772 767.85 295.785 767.94 309.035C759.854 299.833 751.274 290.804 742.224 281.982C740.546 269.454 738.42 257.179 735.862 245.197C746.438 253.175 756.486 261.47 765.966 270.046ZM704.077 223.2C714.691 229.939 724.889 236.975 734.641 244.28C737.216 256.191 739.36 268.395 741.061 280.853C732.679 272.734 723.897 264.793 714.734 257.056C711.52 245.5 707.963 234.206 704.077 223.2ZM715.207 258.768C724.281 266.473 732.978 274.378 741.278 282.458C742.808 293.94 743.962 305.636 744.729 317.516C737.883 308.757 730.682 300.103 723.136 291.576C720.797 280.432 718.15 269.488 715.207 258.768ZM723.547 293.555C730.989 302.015 738.09 310.6 744.841 319.286C745.514 330.266 745.857 341.4 745.863 352.667C740.607 343.458 735.036 334.296 729.154 325.203C727.56 314.492 725.687 303.937 723.547 293.555ZM729.505 327.595C735.261 336.568 740.714 345.605 745.86 354.686C745.828 365.124 745.507 375.674 744.89 386.317C741.242 376.879 737.317 367.443 733.115 358.026C732.16 347.758 730.954 337.61 729.505 327.595ZM733.395 361.127C737.443 370.316 741.226 379.522 744.745 388.729C744.134 398.566 743.27 408.482 742.149 418.46C740.092 409.061 737.796 399.629 735.257 390.177C734.86 380.399 734.237 370.712 733.395 361.127ZM735.425 394.721C737.766 403.687 739.888 412.635 741.794 421.551C740.729 430.604 739.453 439.708 737.961 448.853C737.421 439.896 736.685 430.882 735.749 421.821C735.834 412.719 735.725 403.683 735.425 394.721ZM735.604 430.747C736.279 438.313 736.815 445.844 737.214 453.334C735.952 460.727 734.549 468.145 733.004 475.583C733.692 468.173 734.256 460.706 734.692 453.188C735.128 445.67 735.431 438.188 735.604 430.747ZM734.262 390.329C734.565 397.817 734.735 405.358 734.77 412.948C733.903 405.562 732.903 398.146 731.767 390.707C730.631 383.27 729.373 375.897 727.998 368.591C730.229 375.845 732.317 383.093 734.262 390.329ZM734.062 385.791C731.673 377.148 729.082 368.491 726.284 359.83C724.474 350.903 722.487 342.08 720.33 333.37C724.482 341.652 728.417 349.96 732.134 358.283C732.975 367.362 733.62 376.534 734.062 385.791ZM731.839 355.187C727.874 346.422 723.668 337.676 719.221 328.961C716.799 319.478 714.175 310.131 711.358 300.929C717.227 309.075 722.841 317.292 728.196 325.564C729.644 335.314 730.861 345.192 731.839 355.187ZM709.533 298.41C712.244 307.116 714.782 315.956 717.139 324.919C713.003 316.956 708.665 309.021 704.124 301.124C700.498 292.77 696.72 284.555 692.799 276.485C698.586 283.726 704.164 291.038 709.533 298.41ZM727.836 323.175C722.307 314.702 716.507 306.29 710.439 297.954C707.372 288.112 704.083 278.439 700.585 268.947C708.079 276.525 715.29 284.229 722.211 292.041C724.349 302.255 726.228 312.639 727.836 323.175ZM698.882 267.232C702.324 276.465 705.567 285.872 708.601 295.442C702.898 287.69 696.962 280.006 690.797 272.402C686.459 263.635 681.951 255.042 677.286 246.632C684.722 253.38 691.923 260.252 698.882 267.232ZM721.793 290.065C714.739 282.152 707.387 274.35 699.744 266.679C695.957 256.532 691.93 246.595 687.677 236.881C696.714 243.609 705.444 250.53 713.852 257.622C716.794 268.223 719.445 279.044 721.793 290.065ZM686.055 235.678C690.271 245.227 694.269 254.996 698.034 264.97C690.862 257.831 683.438 250.807 675.769 243.913C670.72 234.921 665.491 226.14 660.094 217.581C669.002 223.437 677.66 229.475 686.055 235.678ZM713.375 255.913C704.859 248.769 696.017 241.802 686.863 235.031C682.258 224.615 677.393 214.459 672.284 204.583C682.761 210.233 692.911 216.157 702.709 222.334C706.593 233.249 710.154 244.451 713.375 255.913ZM670.721 203.744C675.803 213.503 680.647 223.539 685.236 233.832C676.689 227.557 667.873 221.453 658.8 215.538C652.985 206.398 646.978 197.513 640.798 188.896C651.039 193.599 661.019 198.554 670.721 203.744ZM609.806 175.753C619.737 179.628 629.46 183.734 638.961 188.056C645.072 196.521 651.014 205.246 656.771 214.221C648.273 208.73 639.553 203.403 630.618 198.256C623.809 190.508 616.867 183.005 609.806 175.753ZM632.668 200.599C641.343 205.654 649.814 210.878 658.072 216.257C663.36 224.576 668.49 233.105 673.448 241.838C666.26 235.444 658.86 229.164 651.252 223.011C645.183 215.332 638.984 207.86 632.668 200.599ZM654.059 226.587C661.221 232.465 668.195 238.455 674.977 244.547C679.436 252.495 683.754 260.608 687.921 268.881C682.22 261.953 676.327 255.094 670.245 248.315C664.965 240.904 659.567 233.66 654.059 226.587ZM675.374 255.622C680.367 261.345 685.226 267.122 689.95 272.946C693.275 279.668 696.5 286.492 699.621 293.416C695.823 287.02 691.892 280.651 687.827 274.315C683.761 267.975 679.608 261.744 675.374 255.622ZM650.537 223.718C655.181 229.596 659.75 235.595 664.237 241.712C659.194 236.247 654.027 230.836 648.735 225.485C643.449 220.14 638.102 214.917 632.698 209.819C638.765 214.374 644.712 219.009 650.537 223.718ZM647.707 220.164C640.697 214.578 633.515 209.1 626.163 203.738C619.449 197.577 612.653 191.605 605.785 185.825C614.012 190.084 622.077 194.492 629.976 199.04C635.994 205.892 641.908 212.934 647.707 220.164ZM627.917 196.708C619.558 191.949 611.016 187.345 602.296 182.909C594.76 176.658 587.14 170.636 579.45 164.845C588.986 167.986 598.358 171.334 607.553 174.879C614.457 181.917 621.25 189.196 627.917 196.708ZM576.492 163.88C583.806 169.332 591.058 174.994 598.236 180.862C590.205 176.849 582.027 172.978 573.708 169.256C565.861 164.627 557.973 160.2 550.055 155.975C558.997 158.433 567.812 161.07 576.492 163.88ZM523.687 149.338C531.093 151.034 538.422 152.851 545.67 154.787C552.313 158.272 558.937 161.899 565.534 165.668C558.705 162.726 551.784 159.885 544.774 157.149C537.749 154.408 530.718 151.805 523.687 149.338ZM581.366 173.846C588.26 177.045 595.054 180.349 601.743 183.75C607.518 188.542 613.243 193.468 618.914 198.528C612.835 194.223 606.646 189.998 600.347 185.857C594.053 181.72 587.724 177.716 581.366 173.846ZM707.621 309.337C711.316 315.975 714.869 322.637 718.279 329.317C720.133 336.584 721.869 343.931 723.482 351.354C721.096 344.303 718.574 337.25 715.913 330.203C713.254 323.159 710.489 316.203 707.621 309.337ZM730.118 493.167C729.206 500.703 728.165 508.176 726.999 515.58C724.229 522.545 721.317 529.505 718.261 536.454C720.473 529.353 722.576 522.172 724.564 514.913C726.552 507.654 728.403 500.403 730.118 493.167Z" stroke="url(#paint0_linear_2007_3281)"/>
<defs>
<linearGradient id="paint0_linear_2007_3281" x1="0.228038" y1="456.274" x2="871.772" y2="415.462" gradientUnits="userSpaceOnUse">
<stop stop-color="#FF5200"/>
<stop offset="0.467707" stop-color="#FCAF8A"/>
</linearGradient>
</defs>
</svg>
