<svg width="549" height="550" viewBox="0 0 549 550" fill="none" xmlns="http://www.w3.org/2000/svg">
<path opacity="0.7" d="M218.758 95.6391C225.086 93.6757 231.409 91.882 237.717 90.2551C244.159 89.3483 250.677 88.5899 257.265 87.9859C263.85 87.3821 270.395 86.9426 276.892 86.6629C283.394 87.1154 289.94 87.7297 296.523 88.5101C303.095 89.2892 309.594 90.2211 316.012 91.2994C322.273 93.0927 328.543 95.0531 334.814 97.1831C341.088 99.3142 347.258 101.58 353.319 103.972C359.062 107.024 364.78 110.241 370.463 113.624C376.15 117.009 381.709 120.504 387.134 124.099C392.124 128.284 397.054 132.625 401.916 137.121C406.777 141.616 411.488 146.191 416.048 150.837C420.057 155.966 423.977 161.237 427.797 166.644C431.618 172.053 435.277 177.511 438.773 183.006C441.627 188.854 444.363 194.821 446.974 200.9C449.585 206.982 452.028 213.076 454.303 219.174C455.88 225.493 457.318 231.903 458.608 238.398C459.899 244.893 461.021 251.365 461.98 257.806C462.208 264.311 462.281 270.877 462.194 277.495C462.106 284.113 461.858 290.675 461.457 297.171C460.328 303.584 459.034 310.024 457.571 316.482C456.108 322.942 454.5 329.314 452.755 335.59C450.319 341.623 447.716 347.649 444.945 353.658C442.176 359.659 439.286 365.544 436.281 371.308C432.637 376.715 428.831 382.079 424.863 387.39C420.893 392.704 416.828 397.877 412.675 402.907C408.001 407.422 403.178 411.863 398.209 416.219C393.232 420.582 388.191 424.788 383.095 428.836C377.573 432.289 371.921 435.636 366.143 438.871C360.37 442.102 354.567 445.167 348.742 448.067C342.621 450.297 336.394 452.397 330.067 454.36C323.749 456.321 317.436 458.112 311.137 459.737C304.685 460.646 298.157 461.406 291.559 462.01C284.959 462.616 278.399 463.056 271.887 463.335C265.4 462.883 258.87 462.27 252.303 461.491C245.727 460.712 239.224 459.779 232.802 458.7C226.546 456.908 220.28 454.949 214.014 452.82C207.751 450.693 201.591 448.432 195.541 446.044C189.786 442.986 184.056 439.763 178.362 436.374C172.671 432.987 167.11 429.49 161.682 425.892C156.696 421.71 151.768 417.372 146.909 412.878C142.049 408.383 137.337 403.808 132.777 399.161C128.767 394.032 124.848 388.763 121.029 383.356C117.211 377.951 113.555 372.499 110.062 367.009C107.205 361.155 104.466 355.183 101.853 349.096C99.2398 343.012 96.7961 336.914 94.5196 330.813C92.9435 324.498 91.5072 318.092 90.2173 311.601C88.9273 305.109 87.8052 298.64 86.8473 292.202C86.6183 285.694 86.5451 279.126 86.6331 272.505C86.7211 265.884 86.9687 259.32 87.3705 252.821C88.4992 246.411 89.7928 239.973 91.2549 233.518C92.7164 227.065 94.322 220.701 96.0647 214.432C98.503 208.392 101.108 202.36 103.883 196.345C106.66 190.324 109.56 184.42 112.576 178.638C116.21 173.248 120.005 167.9 123.961 162.605C127.916 157.311 131.965 152.157 136.102 147.145C140.791 142.613 145.631 138.156 150.618 133.785C155.598 129.419 160.642 125.211 165.741 121.16C171.26 117.71 176.909 114.364 182.684 111.131C188.465 107.895 194.276 104.827 200.107 101.924C206.221 99.6972 212.44 97.5998 218.758 95.6391ZM257.174 86.9897C253.554 87.3216 249.955 87.7 246.378 88.1239C249.945 87.2883 253.505 86.5059 257.058 85.7761C260.685 85.8475 264.328 85.9694 267.987 86.1424C264.395 86.3759 260.79 86.6581 257.174 86.9897ZM252.517 85.713C247.53 86.7955 242.531 87.9816 237.522 89.2724C232.394 89.9951 227.313 90.8116 222.285 91.7189C227.132 89.6673 231.984 87.7282 236.838 85.9011C242.024 85.7337 247.252 85.6701 252.517 85.713ZM276.905 85.661C271.745 85.3026 266.613 85.0457 261.512 84.8881C266.683 83.8881 271.837 82.9994 276.969 82.2207C282.075 83.1348 287.201 84.1593 292.341 85.2955C287.229 85.3177 282.082 85.4388 276.905 85.661ZM273.906 81.6852C268.282 82.5826 262.634 83.6114 256.966 84.7738C251.184 84.6616 245.444 84.6773 239.753 84.8174C245.322 82.7724 250.891 80.8746 256.452 79.1234C262.237 79.834 268.058 80.6873 273.906 81.6852ZM296.888 85.3018C291.256 83.9902 285.639 82.8124 280.045 81.7666C285.921 80.9236 291.766 80.2248 297.572 79.6677C303.084 81.5659 308.6 83.6107 314.113 85.8028C308.421 85.5112 302.678 85.343 296.888 85.3018ZM295.286 78.8887C289.222 79.5066 283.118 80.2784 276.982 81.2069C270.877 80.1167 264.799 79.1836 258.758 78.4053C264.886 76.5192 271.003 74.811 277.097 73.2799C283.146 74.9719 289.213 76.8412 295.286 78.8887ZM317.221 85.9747C311.476 83.6387 305.725 81.4623 299.977 79.4449C306.361 78.8743 312.697 78.4754 318.974 78.2449C324.539 81.1572 330.084 84.2468 335.599 87.512C329.542 86.856 323.413 86.3421 317.221 85.9747ZM317.183 77.314C310.742 77.5822 304.242 78.0268 297.693 78.6513C291.471 76.5127 285.255 74.5604 279.056 72.7936C285.701 71.1643 292.318 69.7457 298.892 68.5363C305.002 71.2495 311.103 74.1761 317.183 77.314ZM338.002 87.7802C332.362 84.3951 326.687 81.1933 320.991 78.1765C327.83 77.9642 334.598 77.9522 341.281 78.1362C346.693 82.0603 352.053 86.1913 357.347 90.5245C350.991 89.4477 344.539 88.531 338.002 87.7802ZM339.843 77.099C333.044 76.9412 326.159 76.9852 319.203 77.2355C313.034 74.0128 306.84 71.0069 300.637 68.2201C307.798 66.9419 314.907 65.9125 321.946 65.1302C327.961 68.869 333.932 72.8607 339.843 77.099ZM359.339 90.8677C353.975 86.4329 348.542 82.2052 343.054 78.1897C350.325 78.4282 357.493 78.8994 364.543 79.5978C369.649 84.5055 374.66 89.6516 379.56 95.0262C372.941 93.4579 366.196 92.0693 359.339 90.8677ZM363.373 78.4792C356.235 77.8009 348.978 77.3542 341.618 77.1449C335.655 72.8294 329.628 68.7641 323.555 64.9555C331.227 64.1428 338.813 63.6242 346.292 63.3976C352.084 68.1317 357.784 73.1631 363.373 78.4792ZM381.287 95.4401C376.351 89.9791 371.301 84.7495 366.153 79.7616C373.824 80.5614 381.352 81.6314 388.713 82.9644C393.394 88.7991 397.924 94.9056 402.285 101.267C395.445 99.1202 388.441 97.1748 381.287 95.4401ZM387.755 81.7765C380.324 80.4611 372.727 79.4122 364.986 78.6367C359.371 73.252 353.642 68.154 347.817 63.3554C355.965 63.1514 363.982 63.2953 371.837 63.784C377.308 69.4419 382.621 75.4465 387.755 81.7765ZM403.83 101.757C399.458 95.3226 394.913 89.1448 390.214 83.2402C398.226 84.7348 406.039 86.5423 413.621 88.6536C417.796 95.3253 421.745 102.304 425.451 109.563C418.455 106.731 411.241 104.125 403.83 101.757ZM412.83 87.3973C405.192 85.3046 397.325 83.5181 389.259 82.0468C384.12 75.6589 378.799 69.5962 373.318 63.8804C375.229 64.0102 377.13 64.1604 379.021 64.3312C385.579 64.9235 392.015 65.7619 398.309 66.8445C402.262 71.8606 406.067 77.1174 409.715 82.5998C410.766 84.1804 411.805 85.7797 412.83 87.3973ZM426.866 110.14C423.167 102.823 419.223 95.7864 415.05 89.056C416.892 89.5802 418.72 90.1224 420.535 90.6826C426.827 92.6255 432.947 94.7836 438.879 97.1512C441.702 102.88 444.332 108.813 446.76 114.935C447.46 116.699 448.143 118.479 448.809 120.274C441.773 116.639 434.45 113.256 426.866 110.14ZM447.69 114.566C445.393 108.777 442.917 103.153 440.266 97.7103C448.502 101.06 456.367 104.817 463.813 108.966C466.951 116.89 469.646 125.179 471.889 133.782C466.84 130.442 461.588 127.25 456.15 124.216C454.167 123.11 452.16 122.024 450.128 120.96C449.34 118.807 448.527 116.676 447.69 114.566ZM473.136 134.613C470.935 125.999 468.284 117.692 465.191 109.741C473.099 114.23 480.523 119.167 487.406 124.533C490.163 132.813 492.335 141.46 493.923 150.413C487.463 144.841 480.519 139.566 473.136 134.613ZM495.119 151.453C493.594 142.539 491.497 133.918 488.826 125.651C495.947 131.326 502.472 137.469 508.332 144.058C510.885 152.498 512.71 161.272 513.824 170.31C508.174 163.709 501.921 157.414 495.119 151.453ZM514.996 171.693C513.982 162.814 512.29 154.18 509.905 145.856C515.685 152.574 520.785 159.742 525.136 167.34C527.649 175.727 529.335 184.361 530.225 193.177C525.832 185.715 520.736 178.542 514.996 171.693ZM531.424 195.252C530.721 187.075 529.345 179.044 527.269 171.213C531.039 178.336 534.165 185.82 536.594 193.647C539.023 201.475 540.682 209.415 541.607 217.422C538.885 209.791 535.474 202.392 531.424 195.252ZM531.61 197.642C535.867 205.414 539.365 213.486 542.041 221.821C542.755 230.547 542.608 239.342 541.646 248.151C538.901 239.939 535.408 231.865 531.218 223.973C532.072 215.077 532.213 206.28 531.61 197.642ZM542.388 250.43C543.4 242.285 543.723 234.144 543.322 226.053C545.528 233.804 547.03 241.773 547.778 249.933C548.526 258.094 548.499 266.204 547.739 274.227C546.662 266.198 544.864 258.254 542.388 250.43ZM531.035 225.776C535.233 233.856 538.694 242.121 541.367 250.523C540.267 259.272 538.366 268.029 535.708 276.738C533.23 268.411 530.079 260.118 526.29 251.907C528.523 243.143 530.113 234.415 531.035 225.776ZM536.215 278.478C538.9 269.954 540.866 261.38 542.073 252.806C544.62 261.291 546.364 269.912 547.249 278.62C546.133 287.303 544.161 295.876 541.389 304.293C540.41 295.691 538.672 287.068 536.215 278.478ZM525.893 253.441C529.651 261.72 532.756 270.078 535.171 278.464C532.534 286.784 529.208 295.056 525.23 303.234C523.279 294.929 520.762 286.58 517.701 278.234C520.983 269.971 523.721 261.692 525.893 253.441ZM525.587 304.778C529.593 296.67 532.964 288.462 535.662 280.203C538.087 288.979 539.755 297.782 540.623 306.556C537.727 314.886 534.047 323.057 529.635 331.024C528.944 322.364 527.585 313.598 525.587 304.778ZM517.143 279.625C520.164 287.986 522.634 296.344 524.533 304.653C520.744 312.288 516.387 319.837 511.494 327.261C510.598 321.274 509.456 315.236 508.072 309.164C507.568 306.951 507.031 304.734 506.463 302.513C507.536 300.485 508.576 298.454 509.584 296.419C512.35 290.839 514.871 285.237 517.143 279.625ZM511.712 328.744C516.64 321.344 521.04 313.815 524.879 306.196C526.834 315.076 528.133 323.896 528.752 332.601C524.443 340.19 519.47 347.591 513.879 354.762C513.697 346.233 512.971 337.544 511.712 328.744ZM507.097 309.386C508.56 315.807 509.752 322.187 510.667 328.507C507.118 333.817 503.294 339.06 499.207 344.224C498.028 345.713 496.828 347.195 495.606 348.67C495.236 340.76 494.504 332.726 493.411 324.601C497.899 317.739 502.021 310.805 505.764 303.825C506.231 305.682 506.675 307.536 507.097 309.386ZM495.672 350.156C497.142 348.395 498.582 346.625 499.991 344.845C503.856 339.962 507.488 335.005 510.877 329.988C512.094 338.795 512.772 347.484 512.902 356.005C507.608 362.686 501.778 369.164 495.448 375.408C495.816 369.366 495.954 363.224 495.863 356.998C495.83 354.728 495.766 352.447 495.672 350.156ZM492.571 325.878C493.626 333.96 494.321 341.947 494.656 349.811C489.601 355.843 484.184 361.755 478.425 367.523C478.957 359.995 479.206 352.33 479.168 344.551C483.936 338.404 488.408 332.173 492.571 325.878ZM478.314 369.047C484.13 363.269 489.603 357.343 494.715 351.294C494.786 353.208 494.835 355.114 494.863 357.013C494.959 363.596 494.798 370.084 494.38 376.455C489.804 380.911 484.973 385.246 479.901 389.447C478.439 390.658 476.958 391.858 475.456 393.046C476.739 385.232 477.693 377.222 478.314 369.047ZM478.171 345.829C478.177 353.542 477.9 361.14 477.344 368.6C472.03 373.866 466.43 379.01 460.558 384.013C461.978 376.987 463.181 369.817 464.158 362.522C469.074 357.041 473.748 351.472 478.171 345.829ZM460.233 385.601C466.175 380.579 471.845 375.413 477.226 370.122C476.578 378.246 475.597 386.203 474.29 393.964C468.091 398.814 461.563 403.471 454.731 407.915C456.815 400.663 458.653 393.217 460.233 385.601ZM462.969 363.84C461.972 371.045 460.754 378.123 459.323 385.059C453.908 389.625 448.267 394.07 442.409 398.382C444.66 391.965 446.745 385.405 448.657 378.712C453.629 373.841 458.401 368.879 462.969 363.84ZM441.817 400.056C447.764 395.718 453.493 391.242 458.992 386.644C457.395 394.189 455.544 401.563 453.449 408.744C447.157 412.79 440.61 416.657 433.827 420.329C436.677 413.752 439.344 406.989 441.817 400.056ZM447.209 380.123C445.298 386.692 443.218 393.131 440.978 399.43C435.573 403.365 429.987 407.186 424.229 410.883C427.217 405.171 430.081 399.32 432.815 393.336C437.779 389.017 442.579 384.609 447.209 380.123ZM430.986 394.918C428.288 400.732 425.466 406.417 422.527 411.968C417.222 415.331 411.774 418.589 406.189 421.732C409.785 416.815 413.294 411.765 416.708 406.587C421.604 402.779 426.364 398.887 430.986 394.918ZM414.243 408.488C410.939 413.416 407.55 418.225 404.081 422.91C398.978 425.738 393.763 428.471 388.44 431.103C392.46 427.074 396.424 422.924 400.324 418.655C405.074 415.343 409.715 411.952 414.243 408.488ZM396.579 421.234C392.985 425.08 389.339 428.826 385.648 432.47C380.981 434.731 376.234 436.914 371.41 439.015C375.529 435.995 379.619 432.874 383.673 429.655C388.058 426.912 392.36 424.104 396.579 421.234ZM376.05 434.306C373.128 436.524 370.189 438.69 367.236 440.804C363.889 442.216 360.506 443.589 357.088 444.921C360.278 443.245 363.459 441.519 366.632 439.744C369.809 437.965 372.949 436.152 376.05 434.306ZM335.194 455.595C339.852 453.497 344.501 451.295 349.137 448.988C354.002 447.215 358.8 445.36 363.529 443.427C359.212 446.444 354.865 449.352 350.494 452.15C345.456 453.393 340.354 454.542 335.194 455.595ZM330.364 455.316C333.844 454.236 337.294 453.114 340.714 451.953C337.394 453.514 334.068 455.023 330.739 456.478C327.171 457.163 323.576 457.803 319.955 458.395C323.422 457.419 326.892 456.393 330.364 455.316ZM311.332 460.72C316.46 459.997 321.539 459.18 326.567 458.272C321.713 460.328 316.852 462.27 311.99 464.1C306.8 464.268 301.568 464.331 296.299 464.288C301.298 463.203 306.311 462.014 311.332 460.72ZM291.85 465.228C297.637 465.34 303.381 465.324 309.075 465.184C303.505 467.23 297.934 469.128 292.372 470.88C286.583 470.168 280.76 469.315 274.909 468.316C280.533 467.419 286.182 466.39 291.85 465.228ZM294.77 471.166C300.571 469.302 306.38 467.278 312.188 465.095C318.388 464.892 324.529 464.541 330.602 464.046C325.001 467.164 319.374 470.107 313.732 472.871C307.462 472.474 301.138 471.906 294.77 471.166ZM271.832 468.794C277.941 469.885 284.022 470.819 290.066 471.598C283.941 473.483 277.828 475.19 271.737 476.72C265.686 475.028 259.618 473.158 253.543 471.11C259.602 470.493 265.701 469.722 271.832 468.794ZM273.682 477.258C279.925 475.657 286.19 473.871 292.465 471.899C298.997 472.697 305.485 473.315 311.917 473.754C305.757 476.729 299.581 479.492 293.402 482.042C286.86 480.658 280.283 479.064 273.682 477.258ZM251.136 471.348C257.359 473.487 263.577 475.439 269.778 477.206C263.132 478.836 256.513 480.255 249.937 481.465C243.826 478.751 237.723 475.824 231.642 472.685C238.084 472.417 244.586 471.972 251.136 471.348ZM251.56 482.181C258.244 480.921 264.97 479.446 271.723 477.755C278.428 479.625 285.113 481.278 291.761 482.714C285.022 485.453 278.281 487.939 271.557 490.168C264.895 487.761 258.223 485.098 251.56 482.181ZM229.622 472.764C235.793 475.987 241.987 478.994 248.192 481.781C241.031 483.06 233.922 484.089 226.882 484.871C220.866 481.132 214.894 477.139 208.982 472.9C215.781 473.058 222.666 473.014 229.622 472.764ZM228.259 485.722C235.381 484.902 242.572 483.83 249.814 482.505C256.545 485.487 263.286 488.21 270.019 490.673C262.685 493.063 255.373 495.148 248.105 496.924C241.454 493.498 234.831 489.761 228.259 485.722ZM207.207 472.854C213.171 477.171 219.199 481.237 225.273 485.046C217.603 485.859 210.018 486.377 202.54 486.604C196.747 481.869 191.046 476.837 185.457 471.52C192.593 472.199 199.849 472.645 207.207 472.854ZM203.725 487.567C211.267 487.308 218.916 486.755 226.648 485.904C233.261 490.004 239.926 493.8 246.622 497.283C238.695 499.176 230.823 500.703 223.038 501.858C216.51 497.461 210.063 492.691 203.725 487.567ZM183.843 471.363C189.459 476.748 195.19 481.847 201.015 486.646C192.866 486.85 184.848 486.707 176.992 486.218C171.52 480.559 166.206 474.554 161.071 468.223C168.503 469.538 176.102 470.587 183.843 471.363ZM178.027 487.282C185.934 487.741 194.001 487.853 202.197 487.615C208.552 492.795 215.019 497.62 221.569 502.072C219.672 502.342 217.78 502.591 215.893 502.817C209.355 503.601 202.887 504.119 196.506 504.369C191.596 500.283 186.779 495.931 182.07 491.326C180.713 489.999 179.366 488.651 178.027 487.282ZM159.567 467.953C164.707 474.341 170.028 480.405 175.51 486.121C173.599 485.992 171.698 485.841 169.807 485.671C163.248 485.078 156.813 484.24 150.519 483.157C146.566 478.141 142.76 472.883 139.112 467.4C138.06 465.819 137.022 464.22 135.996 462.602C143.634 464.695 151.501 466.481 159.567 467.953ZM151.449 484.329C157.42 485.327 163.514 486.107 169.717 486.667C171.978 486.871 174.253 487.046 176.543 487.192C178.139 488.838 179.748 490.454 181.371 492.041C185.824 496.396 190.375 500.527 195.011 504.422C186.125 504.712 177.412 504.479 168.922 503.717C162.831 497.754 156.997 491.277 151.449 484.329ZM138.279 467.954C141.729 473.14 145.321 478.126 149.045 482.899C140.293 481.335 131.819 479.295 123.673 476.785C118.955 469.685 114.595 462.137 110.613 454.188C116.246 456.405 122.046 458.435 127.996 460.273C130.165 460.942 132.355 461.587 134.563 462.205C135.783 464.148 137.022 466.064 138.279 467.954ZM109.22 453.634C113.164 461.603 117.485 469.178 122.164 476.313C113.495 473.566 105.206 470.28 97.3577 466.463C92.9392 458.936 89.0168 450.929 85.6012 442.501C93.079 446.608 100.968 450.324 109.22 453.634ZM84.2153 441.733C87.5605 450.136 91.4042 458.133 95.7367 465.664C87.5909 461.594 79.932 456.942 72.8302 451.715C68.5775 443.989 64.9679 435.787 61.9988 427.178C68.898 432.459 76.3228 437.316 84.2153 441.733ZM60.5656 426.069C63.4037 434.543 66.8533 442.637 70.9176 450.283C63.8667 444.914 57.3874 438.962 51.5515 432.434C47.3506 424.754 43.9071 416.659 41.2035 408.221C47.052 414.607 53.5272 420.562 60.5656 426.069ZM39.599 406.441C41.9868 414.293 45.0024 421.862 48.6603 429.09C43.4924 422.907 38.8791 416.237 34.8765 409.087C30.8732 401.935 27.5993 394.514 25.0302 386.875C29.2794 393.772 34.1538 400.3 39.599 406.441ZM38.9203 404.142C33.1411 397.426 28.0419 390.258 23.6912 382.662C21.1787 374.275 19.493 365.641 18.6026 356.825C22.9956 364.286 28.0909 371.457 33.8302 378.306C34.844 387.185 36.5351 395.818 38.9203 404.142ZM17.4033 354.75C18.1065 362.928 19.483 370.958 21.5584 378.79C17.7879 371.666 14.6613 364.181 12.2322 356.353C9.80348 348.526 8.14406 340.587 7.21935 332.581C9.94203 340.212 13.3533 347.61 17.4033 354.75ZM33.6342 376.505C27.8484 369.474 22.7439 362.109 18.3821 354.446C17.6395 345.66 17.6783 336.699 18.4677 327.627C22.6222 335.258 27.4291 342.715 32.8427 349.959C32.481 358.995 32.7397 367.863 33.6342 376.505ZM17.6095 326.031C16.7554 334.926 16.6147 343.723 17.2173 352.361C12.9602 344.589 9.46202 336.517 6.78551 328.182C6.07136 319.456 6.21755 310.659 7.17973 301.85C9.92559 310.063 13.4189 318.138 17.6095 326.031ZM32.9123 348.376C27.5143 341.058 22.7395 333.529 18.634 325.828C19.4832 317.141 21.0165 308.358 23.2068 299.532C26.8422 307.25 31.0404 314.894 35.7707 322.422C34.2778 331.186 33.3207 339.854 32.9123 348.376ZM22.5372 298.096C20.3046 306.86 18.7138 315.589 17.7922 324.228C13.5941 316.147 10.1319 307.881 7.45856 299.477C8.55911 290.728 10.4603 281.97 13.1187 273.261C15.5961 281.589 18.7478 289.883 22.5372 298.096ZM36.0271 320.945C31.3331 313.394 27.1787 305.732 23.5938 297.999C25.7127 289.743 28.4044 281.453 31.6471 273.174C33.7683 278.844 36.1402 284.511 38.756 290.162C39.71 292.223 40.6964 294.281 41.715 296.337C41.0874 298.543 40.4919 300.747 39.9287 302.946C38.3839 308.979 37.0821 314.984 36.0271 320.945ZM31.1264 271.769C27.8439 280.032 25.1057 288.311 22.9345 296.562C19.1755 288.281 16.0703 279.922 13.6556 271.535C16.2922 263.215 19.6181 254.943 23.5952 246.766C25.5467 255.072 28.0642 263.421 31.1264 271.769ZM39.6638 289.742C36.8978 283.766 34.4064 277.775 32.1972 271.783C34.5651 265.852 37.2153 259.927 40.1396 254.027C40.9825 252.326 41.8482 250.627 42.7365 248.93C44.7433 256.591 47.1296 264.298 49.8884 272.018C46.9256 279.663 44.3355 287.303 42.1259 294.908C41.2825 293.187 40.4618 291.465 39.6638 289.742ZM42.3637 247.491C41.2914 249.518 40.2511 251.549 39.2432 253.582C36.4777 259.163 33.9556 264.766 31.6842 270.378C28.6623 262.016 26.1915 253.657 24.2925 245.347C28.0816 237.712 32.4382 230.162 37.3313 222.739C38.2276 228.726 39.3695 234.764 40.7535 240.836C41.2581 243.05 41.7949 245.268 42.3637 247.491ZM50.4445 270.595C47.7325 262.908 45.3917 255.239 43.4289 247.617C47.1194 240.665 51.1884 233.756 55.6223 226.917C56.6678 234.391 58.018 241.941 59.6727 249.543C56.2865 256.547 53.2085 263.572 50.4445 270.595ZM55.4146 225.403C50.9271 232.264 46.8052 239.199 43.0628 246.178C42.5956 244.32 42.1509 242.465 41.7289 240.613C40.2654 234.193 39.074 227.813 38.1587 221.492C41.708 216.183 45.532 210.939 49.6191 205.775C50.7973 204.287 51.9974 202.805 53.2191 201.33C53.5892 209.242 54.3212 217.276 55.4146 225.403ZM60.3819 248.086C58.7718 240.542 57.463 233.052 56.4559 225.639C60.5588 219.383 64.9671 213.187 69.6704 207.073C69.7419 214.242 70.0565 221.505 70.6175 228.846C66.9485 235.228 63.5351 241.648 60.3819 248.086ZM69.6583 205.452C64.8897 211.599 60.4182 217.831 56.2545 224.126C55.1997 216.043 54.5045 208.054 54.1694 200.189C59.2248 194.157 64.6417 188.244 70.4009 182.476C69.8694 190.005 69.6204 197.672 69.6583 205.452ZM71.5065 227.308C70.9837 220.053 70.7029 212.875 70.6606 205.793C75.0078 200.201 79.602 194.679 84.4352 189.244C83.5675 195.99 82.8917 202.842 82.4135 209.786C78.5635 215.585 74.9266 221.43 71.5065 227.308ZM84.6663 187.483C79.7509 192.963 75.0777 198.532 70.6551 204.174C70.6486 196.46 70.9258 188.86 71.4821 181.399C76.7958 176.133 82.3958 170.99 88.2672 165.987C86.8465 173.015 85.6438 180.186 84.6663 187.483ZM83.5363 208.106C84.04 201.282 84.7354 194.549 85.617 187.922C90.086 182.949 94.7555 178.049 99.6193 173.236C97.8839 179.446 96.2978 185.766 94.8678 192.189C90.9108 197.446 87.1327 202.755 83.5363 208.106ZM100.169 171.291C95.1967 176.163 90.4234 181.125 85.8555 186.165C86.8527 178.959 88.0705 171.878 89.502 164.941C94.9173 160.375 100.56 155.929 106.418 151.616C104.166 158.035 102.081 164.597 100.169 171.291ZM96.3285 190.261C97.7588 184.013 99.3374 177.863 101.058 171.821C105.548 167.428 110.2 163.108 115.01 158.872C112.515 164.431 110.132 170.101 107.868 175.878C103.871 180.621 100.024 185.418 96.3285 190.261ZM109.884 173.505C112.092 167.997 114.408 162.587 116.828 157.282C121.23 153.456 125.761 149.699 130.417 146.02C127.321 150.8 124.305 155.687 121.376 160.677C117.421 164.902 113.59 169.18 109.884 173.505ZM124.503 157.376C127.221 152.863 130.009 148.437 132.865 144.102C136.959 140.921 141.148 137.798 145.43 134.74C142.023 138.557 138.667 142.466 135.366 146.465C131.651 150.056 128.029 153.694 124.503 157.376ZM141.855 140.329C144.257 137.547 146.686 134.811 149.141 132.122C152.127 130.041 155.158 127.99 158.231 125.972C155.455 128.278 152.697 130.632 149.958 133.032C147.213 135.439 144.511 137.872 141.855 140.329ZM182.196 110.258C179.021 112.035 175.885 113.846 172.787 115.69C175.711 113.471 178.652 111.304 181.607 109.188C184.956 107.775 188.341 106.402 191.761 105.069C188.564 106.749 185.375 108.478 182.196 110.258ZM199.712 101.003C194.845 102.777 190.045 104.632 185.314 106.565C189.633 103.548 193.981 100.639 198.353 97.8404C203.393 96.5979 208.497 95.4484 213.658 94.3953C208.999 96.4936 204.349 98.6961 199.712 101.003ZM195.337 98.5968C190.564 101.704 185.821 104.942 181.115 108.309C175.78 110.562 170.536 112.914 165.387 115.36C169.645 111.224 173.963 107.223 178.333 103.36C183.913 101.654 189.583 100.065 195.337 98.5968ZM217.815 92.5519C212.133 93.6447 206.519 94.8537 200.978 96.1745C205.999 93.0177 211.05 90.0048 216.123 87.137C221.931 86.6292 227.803 86.2536 233.731 86.014C228.421 88.0594 223.113 90.2385 217.815 92.5519ZM213.717 87.3552C208.434 90.3832 203.176 93.5681 197.953 96.9088C191.926 98.3972 185.988 100.018 180.147 101.766C184.976 97.5528 189.866 93.5067 194.808 89.6311C201.026 88.7157 207.332 87.9554 213.717 87.3552ZM236.641 84.9067C230.441 85.1095 224.301 85.4604 218.229 85.9552C223.829 82.8375 229.455 79.8961 235.095 77.1325C241.364 77.5297 247.687 78.0968 254.053 78.8367C248.254 80.7009 242.447 82.724 236.641 84.9067ZM233.08 77.0105C227.306 79.875 221.548 82.9251 215.82 86.1594C209.262 86.7365 202.785 87.4819 196.4 88.39C201.808 84.1984 207.276 80.2106 212.791 76.4312C219.479 76.4246 226.247 76.6164 233.08 77.0105ZM256.358 78.1041C249.828 77.3058 243.342 76.6887 236.911 76.2494C243.073 73.2731 249.253 70.5088 255.434 67.9582C261.975 69.342 268.552 70.9362 275.152 72.7417C268.905 74.3436 262.637 76.1308 256.358 78.1041ZM253.698 67.5957C247.421 70.2175 241.148 73.0586 234.894 76.1174C227.944 75.6822 221.06 75.4552 214.256 75.4326C220.279 71.3512 226.357 67.5181 232.471 63.9391C239.49 64.9085 246.572 66.127 253.698 67.5957ZM277.111 72.2451C270.406 70.3752 263.723 68.7225 257.076 67.2861C263.813 64.5474 270.552 62.0627 277.275 59.8341C283.936 62.2408 290.607 64.9039 297.27 67.8208C290.587 69.0799 283.862 70.5542 277.111 72.2451ZM275.751 59.288C268.956 61.5709 262.146 64.1142 255.339 66.9156C248.133 65.3978 240.97 64.1347 233.87 63.1251C240.546 59.2629 247.265 55.7038 254.004 52.4553C261.224 54.4247 268.481 56.7034 275.751 59.288ZM299.015 67.4966C292.285 64.5152 285.545 61.7916 278.812 59.3287C286.146 56.9391 293.459 54.8548 300.726 53.0784C307.376 56.5047 313.998 60.2411 320.569 64.2792C313.448 65.0996 306.257 66.1715 299.015 67.4966ZM299.367 52.383C292.044 54.2038 284.676 56.3357 277.289 58.7757C269.967 56.1392 262.656 53.8116 255.381 51.7962C262.741 48.2955 270.124 45.1658 277.499 42.417C284.801 45.3614 292.1 48.6869 299.367 52.383ZM322.18 64.0978C315.569 59.9982 308.904 56.2027 302.209 52.7199C310.138 50.8262 318.01 49.2999 325.797 48.1447C332.324 52.5416 338.77 57.3105 345.108 62.4349C337.564 62.6933 329.914 63.2468 322.18 64.0978ZM324.563 47.3188C316.733 48.5137 308.819 50.0814 300.852 52.0181C293.556 48.2712 286.227 44.8956 278.892 41.9024C280.691 41.2435 282.49 40.6073 284.288 39.9939C290.52 37.8673 296.74 36.0156 302.931 34.4446C308.583 37.4197 314.198 40.6748 319.761 44.2C321.366 45.2172 322.967 46.2569 324.563 47.3188ZM346.635 62.3866C340.281 57.2065 333.815 52.3824 327.266 47.931C329.16 47.6609 331.05 47.4129 332.933 47.1869C339.473 46.4025 345.943 45.8845 352.325 45.6349C357.234 49.7191 362.048 54.0693 366.755 58.6728C368.113 60.0008 369.462 61.3498 370.802 62.7196C362.896 62.2607 354.83 62.1488 346.635 62.3866ZM351.172 44.6818C345.123 44.9472 338.999 45.4518 332.814 46.1937C330.562 46.4639 328.301 46.7655 326.033 47.0985C324.128 45.819 322.215 44.571 320.296 43.355C315.035 40.0211 309.726 36.927 304.382 34.0813C313.013 31.9504 321.584 30.3671 330.046 29.3473C337.245 33.9147 344.299 39.0379 351.172 44.6818ZM367.455 57.9576C363.003 53.6041 358.455 49.475 353.82 45.5813C362.707 45.2917 371.419 45.525 379.909 46.287C385.999 52.2497 391.832 58.7254 397.379 65.6725C391.408 64.6746 385.313 63.895 379.11 63.3349C376.85 63.1307 374.575 62.9557 372.286 62.8099C370.689 61.1629 369.078 59.5453 367.455 57.9576ZM378.775 45.1852C370.273 44.4744 361.554 44.2884 352.67 44.6209C345.824 38.944 338.794 33.78 331.616 29.1643C340.653 28.1482 349.561 27.7779 358.283 28.0729C365.383 33.1526 372.225 38.8738 378.775 45.1852ZM398.857 65.9243C393.343 58.9506 387.542 52.44 381.483 46.4346C390.533 47.3196 399.324 48.8098 407.794 50.912C413.68 57.3548 419.181 64.371 424.274 71.9035C416.105 69.4407 407.616 67.4462 398.857 65.9243ZM425.789 72.3669C420.771 64.8441 415.349 57.8219 409.546 51.3567C418.36 53.6443 426.819 56.6023 434.852 60.2385C440.617 66.9101 445.852 74.1819 450.545 81.9845C442.699 78.2533 434.427 75.0458 425.789 72.3669ZM452.178 82.7713C447.641 75.0734 442.585 67.875 437.02 61.2414C445.034 65.0278 452.61 69.5031 459.676 74.6755C465.381 81.3135 470.43 88.5134 474.828 96.2033C467.78 91.1732 460.207 86.6941 452.178 82.7713ZM476.768 97.6111C472.8 90.4282 468.279 83.654 463.199 77.3452C469.539 82.3185 475.437 87.8825 480.838 94.0436C486.24 100.205 490.984 106.782 495.085 113.719C489.495 107.856 483.37 102.485 476.768 97.6111ZM509.226 143.558C506.838 135.704 503.821 128.135 500.162 120.906C505.332 127.091 509.947 133.762 513.951 140.915C517.954 148.067 521.228 155.488 523.797 163.127C519.548 156.228 514.672 149.7 509.226 143.558ZM477.909 99.7183C484.958 105.086 491.436 111.036 497.271 117.561C501.473 125.243 504.917 133.338 507.621 141.777C501.773 135.392 495.297 129.436 488.259 123.93C485.422 115.457 481.973 107.364 477.909 99.7183ZM453.09 84.3374C461.236 88.4076 468.895 93.0596 475.997 98.2866C480.249 106.011 483.858 114.213 486.826 122.821C479.927 117.54 472.503 112.683 464.611 108.267C461.266 99.8644 457.422 91.8681 453.09 84.3374ZM426.663 73.6886C435.332 76.4358 443.62 79.7209 451.469 83.5382C455.887 91.0642 459.809 99.0711 463.225 107.498C455.747 103.391 447.858 99.6748 439.606 96.3649C435.662 88.397 431.342 80.8226 426.663 73.6886ZM399.783 67.1029C408.535 68.6671 417.009 70.7067 425.154 73.2169C429.871 80.3155 434.231 87.8626 438.213 95.8114C432.58 93.594 426.78 91.5642 420.83 89.7268C418.661 89.057 416.472 88.4127 414.263 87.7943C413.044 85.8519 411.805 83.9355 410.547 82.0456C407.098 76.8609 403.507 71.8756 399.783 67.1029ZM1.04624 300.063C0.297807 291.9 0.325349 283.789 1.08586 275.764C2.1622 283.795 3.96062 291.744 6.43804 299.571C5.42548 307.717 5.10238 315.858 5.50432 323.951C3.29702 316.198 1.7947 308.226 1.04624 300.063ZM12.6112 271.521C9.92604 280.045 7.95945 288.62 6.75289 297.195C4.20436 288.706 2.46087 280.082 1.57638 271.37C2.69239 262.686 4.6644 254.113 7.43721 245.697C8.41528 254.302 10.1533 262.928 12.6112 271.521ZM7.18569 243.313C4.50159 251.07 2.49271 258.966 1.20309 266.964C0.656851 258.925 0.845062 250.819 1.80971 242.682C2.77477 234.542 4.48834 226.613 6.90082 218.921C6.28398 226.999 6.3904 235.145 7.18569 243.313ZM7.98777 241.055C7.26047 232.224 7.3483 223.428 8.29407 214.726C11.1905 206.466 14.9009 198.492 19.3618 190.837C18.5303 199.455 18.4373 208.25 19.0547 217.163C14.6567 224.941 10.9506 232.919 7.98777 241.055ZM19.6111 188.454C15.3742 195.481 11.7685 202.785 8.84477 210.339C9.98189 202.361 11.8515 194.471 14.487 186.712C17.122 178.954 20.4445 171.559 24.4006 164.54C22.1193 172.311 20.5308 180.3 19.6111 188.454ZM19.955 215.591C19.4071 206.503 19.6062 197.545 20.5815 188.783C25.1456 181.238 30.4444 174.01 36.4156 167.135C35.2919 175.749 34.7976 184.606 34.9189 193.648C29.3145 200.746 24.3109 208.073 19.955 215.591ZM36.6595 165.339C30.7396 172.034 25.4551 179.068 20.8652 186.411C21.9888 177.624 23.9022 169.04 26.6352 160.726C31.1869 153.245 36.4761 146.213 42.4335 139.65C39.8284 147.907 37.9088 156.492 36.6595 165.339ZM35.9058 192.408C35.8401 183.316 36.403 174.419 37.608 165.777C43.4005 159.249 49.8036 153.044 56.763 147.192C55.1678 155.571 54.0717 164.221 53.4738 173.091C47.1142 179.304 41.2452 185.754 35.9058 192.408ZM57.0655 145.636C50.108 151.414 43.6906 157.54 37.8671 163.988C39.2206 154.984 41.2777 146.263 44.0536 137.895C50.0865 131.463 56.7718 125.496 64.0417 120.012C61.1516 128.205 58.8266 136.766 57.0655 145.636ZM54.5492 172.047C55.1899 163.18 56.3324 154.541 57.9772 146.179C64.5441 140.745 71.5945 135.62 79.084 130.829C77.4678 136.662 76.0556 142.641 74.8504 148.75C74.4111 150.977 73.9993 153.221 73.6151 155.482C71.8103 156.898 70.0334 158.33 68.2848 159.779C63.489 163.752 58.9064 167.844 54.5492 172.047ZM79.4888 129.386C71.9764 134.141 64.8947 139.23 58.2886 144.628C60.1144 135.721 62.5148 127.135 65.4904 118.931C72.5136 113.75 80.0668 109.012 88.0909 104.735C84.7882 112.6 81.9177 120.834 79.4888 129.386ZM75.8318 148.944C77.1062 142.484 78.6124 136.172 80.3467 130.027C85.749 126.62 91.3754 123.384 97.2097 120.329C98.8913 119.449 100.59 118.583 102.306 117.733C99.4267 125.109 96.8281 132.745 94.5222 140.611C87.6316 145.055 81.0454 149.713 74.7876 154.567C75.1163 152.681 75.4644 150.806 75.8318 148.944ZM102.85 116.349C100.791 117.359 98.7563 118.39 96.7456 119.443C91.2281 122.332 85.8941 125.383 80.7577 128.588C83.2278 120.048 86.1417 111.834 89.4892 103.996C97.0423 100.046 105.004 96.4996 113.326 93.3698C110.533 98.7393 107.908 104.294 105.459 110.018C104.566 112.106 103.697 114.217 102.85 116.349ZM95.8089 139.786C98.1324 131.975 100.746 124.396 103.638 117.078C110.71 113.622 118.064 110.424 125.671 107.497C122.124 114.157 118.779 121.058 115.65 128.179C108.793 131.855 102.173 135.73 95.8089 139.786ZM126.393 106.15C118.729 109.064 111.318 112.251 104.187 115.698C104.902 113.92 105.632 112.158 106.379 110.412C108.969 104.358 111.754 98.4981 114.728 92.8477C120.721 90.6381 126.898 88.643 133.241 86.8676C135.068 86.356 136.91 85.8627 138.764 85.3878C134.414 92.005 130.285 98.9342 126.393 106.15ZM117.081 127.417C120.212 120.369 123.555 113.541 127.097 106.953C134.093 104.304 141.301 101.883 148.699 99.7009C144.544 105.541 140.53 111.601 136.67 117.868C129.951 120.874 123.416 124.061 117.081 127.417ZM138.293 117.147C142.134 110.971 146.125 105.001 150.253 99.247C157.058 97.2783 164.021 95.5114 171.127 93.9547C166.462 98.9005 161.889 104.045 157.421 109.38C150.896 111.809 144.517 114.401 138.293 117.147ZM159.318 108.681C163.735 103.458 168.253 98.4217 172.861 93.5797C179.396 92.1839 186.051 90.9655 192.812 89.9308C187.76 93.9329 182.763 98.1128 177.833 102.467C171.544 104.393 165.37 106.467 159.318 108.681ZM211.017 76.4376C205.424 80.3064 199.88 84.3889 194.4 88.6802C187.517 89.6988 180.741 90.907 174.086 92.2982C179.128 87.0557 184.274 82.0446 189.509 77.2743C196.571 76.7636 203.746 76.483 211.017 76.4376ZM187.894 77.3952C182.615 82.2446 177.428 87.3381 172.349 92.6661C165.15 94.2103 158.095 95.9693 151.2 97.9343C155.728 91.6905 160.419 85.7064 165.253 79.9979C172.649 78.8608 180.203 77.991 187.894 77.3952ZM212.48 75.4313C205.121 75.4453 197.858 75.6989 190.708 76.1871C196.437 71.0199 202.27 66.1405 208.188 61.561C215.655 61.9862 223.223 62.706 230.867 63.7218C224.693 67.3689 218.558 71.2741 212.48 75.4313ZM206.664 61.4782C200.713 66.1214 194.848 71.0667 189.091 76.3016C181.331 76.8713 173.707 77.7182 166.243 78.8359C171.544 72.6429 177.017 66.78 182.638 61.2681C190.504 60.9883 198.523 61.0576 206.664 61.4782ZM232.265 62.9009C224.559 61.8452 216.929 61.0888 209.398 60.6301C215.869 55.6762 222.439 51.0805 229.081 46.8588C236.832 48.2202 244.658 49.9545 252.531 52.0575C245.746 55.3613 238.983 58.9784 232.265 62.9009ZM227.618 46.6061C220.953 50.8817 214.362 55.5321 207.872 60.5412C199.685 60.0855 191.617 59.983 183.701 60.2316C185.075 58.8988 186.459 57.587 187.85 56.2964C192.679 51.8187 197.608 47.5971 202.625 43.6441C208.997 44.0632 215.451 44.7528 221.966 45.7106C223.845 45.9868 225.729 46.2853 227.618 46.6061ZM253.907 51.392C245.996 49.2451 238.129 47.4682 230.337 46.066C231.958 45.0482 233.584 44.0527 235.214 43.0797C240.868 39.7035 246.568 36.5987 252.297 33.7748C258.443 35.5095 264.611 37.5256 270.784 39.8167C272.563 40.4769 274.342 41.16 276.121 41.8657C268.711 44.6624 261.297 47.8412 253.907 51.392ZM250.856 33.3731C245.438 36.0758 240.049 39.0278 234.701 42.2208C232.752 43.3842 230.809 44.5796 228.872 45.8067C226.612 45.4131 224.358 45.0511 222.111 44.7209C215.95 43.8151 209.842 43.148 203.803 42.722C210.822 37.2643 218.008 32.3317 225.323 27.958C233.757 29.2025 242.283 31.0132 250.856 33.3731ZM271.132 38.8788C265.294 36.7122 259.459 34.7899 253.641 33.1178C261.642 29.2383 269.698 25.9074 277.764 23.1503C285.751 26.1201 293.712 29.6629 301.605 33.7521C295.744 35.2692 289.859 37.0359 283.965 39.0471C281.816 39.7804 279.665 40.5463 277.514 41.3444C275.387 40.4903 273.259 39.6683 271.132 38.8788ZM276.279 22.6052C268.223 25.4141 260.182 28.7905 252.2 32.7084C243.638 30.3072 235.117 28.4491 226.684 27.1521C234.527 22.548 242.515 18.586 250.605 15.3077C259.155 17.0605 267.731 19.5039 276.279 22.6052ZM303.057 33.3811C295.184 29.254 287.239 25.6661 279.262 22.6449C287.889 19.7726 296.526 17.5586 305.118 16.034C313.115 19.5251 320.992 23.6966 328.707 28.5055C320.244 29.5779 311.678 31.2087 303.057 33.3811ZM303.458 15.3196C294.918 16.9127 286.34 19.1797 277.778 22.0894C269.295 18.9524 260.779 16.4577 252.283 14.6377C260.758 11.308 269.34 8.72925 277.976 6.94922C286.562 8.95851 295.074 11.765 303.458 15.3196ZM330.28 28.3124C322.637 23.4823 314.829 19.2732 306.9 15.7277C315.882 14.2327 324.813 13.4944 333.631 13.5489C341.609 17.2984 349.348 21.8112 356.808 27.0291C348.122 26.8119 339.261 27.2463 330.28 28.3124ZM331.46 12.5505C322.802 12.6239 314.043 13.4508 305.241 14.9967C297.045 11.435 288.721 8.58253 280.319 6.48602C289.026 4.83925 297.783 4.00681 306.537 4.0374C315.058 6.05499 323.379 8.91264 331.46 12.5505ZM358.619 27.0839C351.345 21.8981 343.799 17.3794 336.019 13.5831C344.879 13.7826 353.619 14.7894 362.176 16.64C370.087 20.3833 377.628 24.906 384.773 30.1413C376.288 28.4134 367.55 27.4015 358.619 27.0839ZM387.118 30.6386C380.572 25.6913 373.686 21.3428 366.481 17.6461C374.296 19.6108 381.949 22.2951 389.39 25.7272C396.828 29.1582 403.835 33.2349 410.401 37.9022C402.91 34.8206 395.131 32.4057 387.118 30.6386ZM413.961 40.5236C420.928 45.8337 427.37 51.8308 433.275 58.4436C425.335 54.989 416.998 52.182 408.328 50.0144C402.288 43.4252 395.843 37.4328 389.018 32.0992C397.64 34.1355 405.977 36.936 413.961 40.5236ZM417.964 42.4026C425.204 45.9505 432.134 50.1688 438.702 55.0755C445.272 59.9831 451.284 65.4338 456.74 71.3714C450.051 66.7964 442.94 62.8142 435.465 59.4175C430.087 53.2112 424.25 47.5208 417.964 42.4026ZM360.089 28.1437C369.186 28.5485 378.075 29.6829 386.688 31.5692C393.717 36.8982 400.353 42.925 406.568 49.5842C398.118 47.5657 389.359 46.148 380.353 45.3235C373.878 39.0061 367.112 33.2626 360.089 28.1437ZM43.173 137.371C37.5647 143.367 32.5171 149.765 28.0852 156.55C30.857 148.978 34.3283 141.643 38.5222 134.596C42.7147 127.553 47.5052 121.006 52.8376 114.96C48.9869 122.092 45.7696 129.581 43.173 137.371ZM44.8243 135.633C47.7522 127.267 51.4112 119.263 55.8169 111.694C61.8233 105.326 68.4571 99.5497 75.6466 94.371C71.3799 101.908 67.7161 109.909 64.6536 118.306C57.4714 123.624 50.8403 129.405 44.8243 135.633ZM66.1157 117.236C69.3127 108.707 73.1394 100.602 77.5965 92.9905C84.8345 87.9544 92.6141 83.5078 100.865 79.6557C96.3332 87.0703 92.2779 94.9635 88.7102 103.276C80.7034 107.481 73.1525 112.14 66.1157 117.236ZM101.818 78.1144C93.6877 81.8222 85.9997 86.0983 78.8205 90.9389C83.4222 83.3674 88.6628 76.3031 94.5429 69.8183C101.742 64.8372 109.432 60.5662 117.542 56.995C111.803 63.4784 106.558 70.5398 101.818 78.1144ZM90.116 102.545C93.7547 94.2092 97.889 86.3075 102.507 78.8999C110.454 75.2923 118.827 72.2285 127.566 69.7125C122.698 76.7213 118.177 84.1801 114.022 92.0424C105.685 95.132 97.7003 98.6372 90.116 102.545ZM128.475 68.4145C119.768 70.863 111.414 73.8498 103.471 77.3712C108.37 69.6963 113.796 62.5662 119.736 56.0501C127.863 52.6284 136.398 49.8961 145.271 47.8433C139.298 54.1521 133.691 61.0277 128.475 68.4145ZM115.429 91.5261C119.622 83.6839 124.181 76.2535 129.087 69.2812C137.297 66.9881 145.822 65.1742 154.614 63.8432C150.763 68.5159 147.04 73.4049 143.454 78.497C142.146 80.3536 140.856 82.2373 139.585 84.1474C137.361 84.7068 135.156 85.2925 132.971 85.9042C126.973 87.5833 121.12 89.4586 115.429 91.5261ZM155.57 62.6895C146.773 63.9782 138.233 65.7465 130.002 67.9915C135.293 60.597 140.978 53.7294 147.033 47.4453C155.557 45.5688 164.385 44.3127 173.456 43.6685C167.239 49.5107 161.268 55.8649 155.57 62.6895ZM144.271 79.0731C148.064 73.6887 152.008 68.534 156.093 63.624C162.413 62.7091 168.868 62.0421 175.44 61.6243C177.335 61.5038 179.24 61.4041 181.154 61.3251C175.522 66.8946 170.04 72.8153 164.732 79.0662C156.63 80.3227 148.719 81.8996 141.028 83.7886C142.096 82.1979 143.178 80.626 144.271 79.0731ZM187.17 55.5629C185.506 57.1061 183.854 58.6794 182.214 60.2825C179.922 60.3674 177.642 60.4819 175.376 60.626C169.162 61.0211 163.049 61.6384 157.054 62.4771C162.784 55.6799 168.787 49.3615 175.034 43.5628C183.54 43.0267 192.256 43.025 201.132 43.5508C196.394 47.3206 191.737 51.3282 187.17 55.5629ZM202.307 42.6213C193.435 42.0528 184.715 42.007 176.197 42.4915C182.91 36.3581 189.9 30.8223 197.13 25.9341C205.857 25.8709 214.752 26.4776 223.758 27.7334C216.462 32.1558 209.3 37.1299 202.307 42.6213ZM225.117 26.9173C216.167 25.6131 207.321 24.9434 198.633 24.9298C206.231 19.9097 214.091 15.6022 222.17 12.065C230.985 12.2452 239.893 13.2207 248.832 14.9541C240.808 18.2885 232.888 22.2901 225.117 26.9173ZM219.781 12.0356C211.899 15.625 204.233 19.9435 196.82 24.9365C187.884 25.0168 179.12 25.7964 170.592 27.2988C177.878 22.2517 185.541 17.9285 193.553 14.395C202.156 12.773 210.919 11.9993 219.781 12.0356ZM250.509 14.2675C241.752 12.4881 233.019 11.4285 224.366 11.1247C232.54 7.70382 240.933 5.06905 249.502 3.27902C258.254 3.48122 266.986 4.54619 275.645 6.42384C267.191 8.29594 258.797 10.9256 250.509 14.2675ZM245.082 3.25052C237.208 5.16021 229.494 7.77887 221.97 11.0599C213.763 10.9041 205.633 11.4335 197.627 12.6787C205.105 9.67453 212.873 7.34815 220.911 5.75108C228.95 4.15348 237.021 3.33297 245.082 3.25052ZM166.1 22.7575C173.632 19.5233 181.356 17.0427 189.223 15.2861C181.917 18.7919 174.914 22.9586 168.235 27.7336C160.174 29.288 152.33 31.4968 144.758 34.3802C151.45 29.8846 158.568 25.992 166.1 22.7575ZM141.13 36.9062C149.209 33.53 157.62 30.9506 166.297 29.1432C159.335 34.2923 152.735 40.1095 146.523 46.5338C137.799 48.4705 129.389 51.0551 121.36 54.2978C127.435 47.848 134.03 42.0272 141.13 36.9062ZM174.615 42.5878C165.59 43.1727 156.796 44.3572 148.294 46.1505C154.683 39.661 161.474 33.8144 168.639 28.6752C177.301 27.0181 186.217 26.12 195.323 25.9569C188.168 30.8863 181.254 36.4465 174.615 42.5878ZM137.08 38.6783C130.665 43.6254 124.683 49.1556 119.145 55.2131C111.585 58.4089 104.373 62.1995 97.5665 66.5932C103.177 60.806 109.329 55.5196 116.023 50.7906C122.716 46.0626 129.752 42.0315 137.08 38.6783ZM90.9499 72.3937C85.7034 78.5661 81.0018 85.2187 76.8441 92.2948C70.1139 96.9922 63.8483 102.199 58.1041 107.911C62.3877 101.086 67.3052 94.6374 72.8687 88.6213C78.433 82.6043 84.4786 77.1977 90.9499 72.3937ZM277.989 5.9245C269.995 4.06612 261.933 2.89373 253.844 2.4473C261.783 1.06331 269.866 0.402893 278.06 0.511752C286.255 0.620659 294.319 1.49574 302.219 3.09048C294.121 3.32163 286.03 4.27928 277.989 5.9245ZM163.746 80.2339C158.891 86.0116 154.184 92.0666 149.642 98.3825C142.171 100.553 134.891 102.966 127.823 105.611C131.72 98.4527 135.853 91.5819 140.204 85.0235C147.839 83.1144 155.697 81.515 163.746 80.2339ZM310.957 4.12647C319.012 4.42328 327.056 5.45787 335.049 7.26818C343.045 9.07897 350.752 11.6122 358.15 14.8158C350.179 13.3578 342.066 12.6121 333.857 12.5494C326.422 9.06869 318.778 6.24519 310.957 4.12647ZM158.018 110.226C163.905 108.039 169.91 105.987 176.025 104.074C171.483 108.137 166.999 112.349 162.581 116.707C157.002 119.413 151.539 122.229 146.196 125.149C150.044 120.022 153.988 115.046 158.018 110.226ZM160.373 118.902C156.349 122.936 152.381 127.091 148.477 131.365C143.736 134.672 139.105 138.056 134.586 141.512C137.89 136.583 141.282 131.772 144.752 127.086C149.849 124.261 155.057 121.531 160.373 118.902ZM163.166 117.535C167.842 115.27 172.598 113.082 177.433 110.977C173.311 113.999 169.22 117.12 165.163 120.342C160.766 123.092 156.452 125.908 152.222 128.786C155.82 124.935 159.47 121.184 163.166 117.535ZM156.128 110.934C152.017 115.9 147.997 121.03 144.077 126.316C138.323 129.51 132.711 132.824 127.249 136.249C130.485 130.22 133.859 124.352 137.36 118.655C143.467 115.929 149.726 113.353 156.128 110.934ZM117.838 155.087C120.536 149.272 123.359 143.584 126.299 138.031C131.606 134.667 137.056 131.408 142.643 128.263C139.046 133.182 135.536 138.234 132.12 143.414C127.223 147.223 122.46 151.117 117.838 155.087ZM135.743 119.382C132.206 125.192 128.801 131.178 125.539 137.328C119.663 141.06 113.963 144.921 108.448 148.9C110.921 142.058 113.585 135.386 116.427 128.898C122.673 125.558 129.117 122.382 135.743 119.382ZM107.849 150.569C113.254 146.634 118.84 142.813 124.597 139.116C121.609 144.83 118.743 150.683 116.008 156.669C111.045 160.988 106.246 165.395 101.616 169.881C103.528 163.31 105.608 156.869 107.849 150.569ZM115.002 129.664C112.151 136.243 109.484 143.007 107.01 149.942C101.062 154.281 95.3327 158.757 89.8331 163.356C91.4308 155.809 93.282 148.433 95.3776 141.25C101.671 137.204 108.218 133.337 115.002 129.664ZM94.0961 142.079C92.0107 149.333 90.173 156.781 88.5924 164.399C82.6501 169.421 76.9808 174.586 71.5995 179.877C72.2483 171.752 73.2294 163.793 74.5368 156.03C80.736 151.18 87.2636 146.524 94.0961 142.079ZM73.3701 156.948C72.0871 164.764 71.1326 172.776 70.5125 180.952C64.6962 186.731 59.2224 192.657 54.1104 198.706C54.0398 196.792 53.9905 194.886 53.9627 192.987C53.8661 186.402 54.0273 179.913 54.4462 173.539C59.0216 169.084 63.8519 164.75 68.923 160.549C70.3855 159.338 71.8679 158.137 73.3701 156.948ZM52.9624 193.002C52.9957 195.272 53.0595 197.553 53.1537 199.844C51.6833 201.604 50.2435 203.375 48.8347 205.155C44.9694 210.038 41.3376 214.994 37.9491 220.011C36.732 211.203 36.0531 202.512 35.9236 193.989C41.2173 187.309 47.0482 180.83 53.3778 174.586C53.0095 180.63 52.8711 186.774 52.9624 193.002ZM34.9464 195.232C35.1282 203.763 35.8546 212.454 37.1142 221.256C32.1855 228.656 27.7857 236.185 23.9464 243.804C21.9911 234.922 20.6916 226.1 20.0734 217.394C24.3823 209.804 29.3557 202.404 34.9464 195.232ZM19.1894 218.971C19.8812 227.632 21.2396 236.401 23.2389 245.222C19.2331 253.33 15.8624 261.537 13.1648 269.795C10.7386 261.017 9.07078 252.211 8.20335 243.434C11.0988 235.106 14.7788 226.936 19.1894 218.971ZM218.113 93.5132C221.682 92.828 225.278 92.1887 228.899 91.5965C225.423 92.5747 221.943 93.6036 218.462 94.6837C214.99 95.7611 211.547 96.8798 208.136 98.0384C211.457 96.4766 214.783 94.9683 218.113 93.5132ZM122.183 161.28C124.659 158.636 127.184 156.013 129.757 153.414C127.53 156.236 125.33 159.1 123.16 162.006C120.987 164.914 118.863 167.837 116.788 170.775C118.551 167.57 120.35 164.404 122.183 161.28ZM119.097 164.612C116.567 169.038 114.105 173.543 111.715 178.125C108.816 182.426 106.02 186.753 103.326 191.103C105.044 186.129 106.85 181.226 108.74 176.397C112.087 172.428 115.54 168.498 119.097 164.612ZM106.744 178.781C104.711 184.096 102.779 189.498 100.954 194.983C97.9636 199.937 95.1057 204.918 92.3803 209.919C93.3936 204.076 94.5341 198.306 95.7972 192.618C99.306 187.962 102.956 183.347 106.744 178.781ZM91.8615 212.984C94.3107 208.407 96.8711 203.846 99.5423 199.305C97.9823 204.178 96.5056 209.113 95.116 214.11C93.179 218.91 91.3472 223.715 89.6199 228.521C90.2673 223.29 91.0156 218.109 91.8615 212.984ZM94.3499 194.551C93.065 200.503 91.9138 206.542 90.9015 212.658C87.9765 218.13 85.2097 223.624 82.6015 229.132C82.7014 222.725 82.9668 216.384 83.3934 210.119C86.8723 204.888 90.5253 199.696 94.3499 194.551ZM82.5717 231.547C85.0366 226.262 87.648 220.987 90.4055 215.732C89.5205 221.361 88.7529 227.055 88.1066 232.809C86.2122 238.275 84.4527 243.741 82.8269 249.199C82.6027 243.267 82.5187 237.38 82.5717 231.547ZM82.2804 211.803C81.8741 218.235 81.6369 224.744 81.5734 231.321C78.7959 237.286 76.2042 243.264 73.7989 249.245C72.8732 242.468 72.1541 235.741 71.6386 229.077C74.9757 223.284 78.5241 217.522 82.2804 211.803ZM74.0778 251.245C76.393 245.405 78.8865 239.566 81.5579 233.739C81.5386 239.835 81.6681 245.986 81.9501 252.186C80.2274 258.145 78.6639 264.092 77.2582 270.02C76.0229 263.728 74.9635 257.466 74.0778 251.245ZM70.7575 230.616C71.3111 237.392 72.0743 244.233 73.0501 251.123C70.4892 257.596 68.1467 264.071 66.0231 270.533C64.004 263.547 62.2374 256.586 60.7238 249.668C63.8137 243.294 67.1598 236.938 70.7575 230.616ZM66.52 272.235C68.5801 265.874 70.8533 259.499 73.3391 253.123C74.2794 259.503 75.4016 265.924 76.7078 272.375C75.2311 278.787 73.9391 285.174 72.8299 291.525C70.514 285.084 68.4106 278.65 66.52 272.235ZM60.0214 251.126C61.5815 258.122 63.3988 265.16 65.4731 272.221C63.2113 279.227 61.2072 286.216 59.4614 293.169C56.3188 286.126 53.482 279.073 50.9561 272.033C53.6685 265.061 56.6923 258.084 60.0214 251.126ZM60.1248 294.646C61.8221 287.769 63.7734 280.856 65.978 273.924C67.9294 280.441 70.0994 286.977 72.4878 293.517C71.329 300.38 70.384 307.2 69.6504 313.961C66.2213 307.545 63.0448 301.1 60.1248 294.646ZM50.4065 273.456C52.9825 280.549 55.8724 287.652 59.0707 294.742C57.2148 302.298 55.6645 309.809 54.4209 317.253C50.1708 310.3 46.2873 303.286 42.7832 296.239C44.9477 288.672 47.4913 281.068 50.4065 273.456ZM55.2203 318.553C56.4239 311.169 57.9311 303.716 59.741 296.218C62.7225 302.739 65.9647 309.248 69.4635 315.727C68.7077 323.049 68.2005 330.302 67.9385 337.466C63.3987 331.228 59.156 324.917 55.2203 318.553ZM42.3789 297.668C45.9342 304.743 49.8699 311.784 54.173 318.761C52.8642 326.855 51.9191 334.867 51.3389 342.766C50.1575 341.26 48.9979 339.748 47.8602 338.229C43.9116 332.959 40.2282 327.615 36.8211 322.213C37.904 315.919 39.2644 309.574 40.8978 303.194C41.3689 301.355 41.8626 299.512 42.3789 297.668ZM52.2587 343.932C52.8025 336.079 53.7096 328.112 54.9787 320.06C58.9742 326.464 63.2792 332.813 67.8834 339.085C67.6388 346.862 67.6841 354.532 68.0154 362.072C62.4109 356.153 57.1525 350.098 52.2587 343.932ZM47.0596 338.829C48.42 340.645 49.8117 342.452 51.2342 344.25C51.0791 346.538 50.9548 348.816 50.8612 351.083C50.6045 357.307 50.5796 363.452 50.7872 369.503C44.6263 363.093 38.97 356.463 33.856 349.645C34.2121 341.128 35.1216 332.46 36.5722 323.688C39.8263 328.793 43.3253 333.845 47.0596 338.829ZM51.8274 370.578C51.578 364.196 51.5893 357.705 51.8608 351.125C51.939 349.228 52.0388 347.324 52.1603 345.413C57.1102 351.597 62.4251 357.667 68.0865 363.599C68.4892 371.788 69.2304 379.821 70.3051 387.667C68.8353 386.439 67.3855 385.2 65.9559 383.95C60.9975 379.615 56.2834 375.154 51.8274 370.578ZM33.7962 351.225C38.9566 358.018 44.6517 364.621 50.8434 371C51.2055 379.884 52.0715 388.56 53.4437 396.98C46.6426 390.945 40.4069 384.573 34.79 377.894C33.8151 369.222 33.4888 360.312 33.7962 351.225ZM54.6306 398.025C53.2083 389.622 52.2956 380.954 51.8907 372.073C56.1353 376.39 60.6083 380.604 65.2975 384.703C67.0067 386.197 68.7448 387.676 70.5111 389.14C70.8351 391.41 71.1872 393.665 71.5673 395.903C72.6098 402.042 73.8626 408.057 75.3233 413.931C67.9634 408.942 61.0512 403.632 54.6306 398.025ZM35.0015 379.689C40.6515 386.288 46.9036 392.583 53.7048 398.543C55.2299 407.458 57.3271 416.08 59.9992 424.347C52.8776 418.672 46.3532 412.529 40.4932 405.94C37.9402 397.5 36.1153 388.727 35.0015 379.689ZM83.635 440.258C75.727 435.769 68.302 430.832 61.4187 425.466C58.6615 417.185 56.4895 408.537 54.9007 399.583C61.3615 405.156 68.3058 410.431 75.6897 415.384C77.8908 423.999 80.5419 432.307 83.635 440.258ZM85.0132 441.033C81.8746 433.108 79.1796 424.819 76.937 416.215C81.9858 419.555 87.2363 422.746 92.6745 425.781C94.6569 426.887 96.6644 427.972 98.6962 429.036C99.4855 431.191 100.299 433.323 101.136 435.434C103.432 441.223 105.909 446.846 108.559 452.289C100.323 448.939 92.4587 445.182 85.0132 441.033ZM102.066 435.065C101.366 433.3 100.682 431.519 100.016 429.723C107.052 433.358 114.375 436.741 121.959 439.857C125.658 447.175 129.603 454.212 133.776 460.943C131.934 460.419 130.106 459.877 128.291 459.317C121.999 457.374 115.878 455.216 109.947 452.848C107.123 447.12 104.494 441.186 102.066 435.065ZM121.273 438.491C113.746 435.363 106.481 431.971 99.5029 428.329C96.8063 420.936 94.3947 413.289 92.2795 405.419C98.5335 409.643 105.048 413.692 111.805 417.549C114.744 424.752 117.904 431.739 121.273 438.491ZM135.205 461.346C131.03 454.673 127.08 447.694 123.374 440.434C130.37 443.266 137.583 445.871 144.994 448.239C149.367 454.675 153.912 460.854 158.612 466.759C150.6 465.265 142.787 463.457 135.205 461.346ZM144.086 446.897C136.748 444.519 129.607 441.907 122.684 439.073C119.318 432.393 116.157 425.478 113.214 418.349C119.458 421.872 125.906 425.231 132.543 428.415C136.236 434.783 140.088 440.948 144.086 446.897ZM160.113 467.035C155.431 461.199 150.9 455.092 146.539 448.729C153.379 450.876 160.385 452.822 167.54 454.557C172.476 460.019 177.527 465.249 182.676 470.238C175.004 469.438 167.475 468.368 160.113 467.035ZM166.352 453.236C159.291 451.491 152.377 449.54 145.627 447.391C141.653 441.53 137.822 435.455 134.146 429.179C140.294 432.089 146.603 434.85 153.06 437.451C157.385 442.903 161.819 448.168 166.352 453.236ZM184.287 470.402C179.18 465.493 174.168 460.346 169.267 454.971C175.883 456.539 182.626 457.927 189.481 459.128C194.847 463.564 200.281 467.793 205.771 471.81C198.502 471.571 191.334 471.1 184.287 470.402ZM187.927 457.836C181.195 456.622 174.573 455.226 168.075 453.657C163.598 448.694 159.214 443.539 154.937 438.201C160.93 440.575 167.049 442.813 173.286 444.906C178.099 449.39 182.983 453.701 187.927 457.836ZM207.543 471.863C202.13 467.938 196.769 463.806 191.473 459.471C197.829 460.548 204.28 461.465 210.817 462.216C216.459 465.602 222.135 468.805 227.834 471.823C220.994 472.035 214.227 472.047 207.543 471.863ZM208.747 460.964C202.384 460.195 196.103 459.268 189.915 458.188C185.078 454.183 180.296 450.008 175.581 445.668C181.37 447.569 187.259 449.346 193.24 450.993C198.373 454.472 203.545 457.796 208.747 460.964ZM229.851 471.754C224.284 468.841 218.737 465.75 213.22 462.484C219.278 463.14 225.407 463.654 231.6 464.021C237.348 466.359 243.102 468.536 248.852 470.554C242.466 471.125 236.129 471.524 229.851 471.754ZM228.721 462.837C222.8 462.44 216.939 461.909 211.146 461.246C206.15 458.244 201.18 455.098 196.245 451.808C201.749 453.276 207.329 454.634 212.982 455.877C218.217 458.331 223.466 460.651 228.721 462.837ZM251.257 470.331C245.743 468.432 240.224 466.387 234.709 464.193C240.392 464.485 246.127 464.653 251.909 464.694C257.546 466.008 263.169 467.187 268.77 468.234C262.899 469.076 257.058 469.775 251.257 470.331ZM247.486 463.637C242.224 463.54 237.002 463.338 231.824 463.033C227.02 461.077 222.219 459.009 217.428 456.829C222.426 457.869 227.478 458.819 232.581 459.677C237.557 461.102 242.527 462.422 247.486 463.637ZM271.846 467.78C266.734 466.865 261.602 465.839 256.455 464.701C261.562 464.679 266.703 464.559 271.874 464.337C277.047 464.697 282.191 464.955 287.304 465.113C282.133 466.113 276.978 467.002 271.846 467.78ZM262.972 463.619C259.307 463.695 255.658 463.72 252.027 463.695C248.491 462.87 244.949 461.992 241.403 461.061C244.974 461.581 248.569 462.056 252.186 462.485C255.792 462.912 259.388 463.29 262.972 463.619ZM291.758 464.225C288.119 464.153 284.463 464.031 280.791 463.857C284.398 463.623 288.018 463.34 291.651 463.007C295.28 462.674 298.889 462.294 302.476 461.869C298.897 462.708 295.324 463.493 291.758 464.225ZM213.692 453.768C217.136 454.937 220.58 456.056 224.023 457.125C220.423 456.437 216.85 455.703 213.305 454.924C210.019 453.383 206.738 451.789 203.464 450.142C206.842 451.39 210.251 452.599 213.692 453.768ZM195.121 446.954C199.692 449.381 204.278 451.705 208.876 453.924C203.743 452.734 198.671 451.449 193.664 450.073C189.37 447.159 185.102 444.137 180.867 441.007C185.548 443.067 190.3 445.051 195.121 446.954ZM176.716 439.152C181.329 442.642 185.982 446.004 190.67 449.236C184.961 447.617 179.339 445.878 173.81 444.026C169.546 440.05 165.338 435.938 161.193 431.693C166.271 434.272 171.446 436.761 176.716 439.152ZM158.423 430.271C162.722 434.743 167.091 439.071 171.522 443.252C165.458 441.176 159.508 438.964 153.68 436.622C149.78 431.697 145.97 426.619 142.26 421.392C147.526 424.455 152.916 427.417 158.423 430.271ZM140.173 420.17C143.95 425.557 147.832 430.79 151.809 435.863C145.474 433.275 139.286 430.533 133.254 427.647C129.906 421.86 126.69 415.906 123.615 409.793C128.985 413.363 134.506 416.825 140.173 420.17ZM121.935 408.669C125.032 414.903 128.276 420.976 131.657 426.877C125.112 423.702 118.756 420.356 112.601 416.851C109.932 410.291 107.447 403.551 105.156 396.648C110.564 400.772 116.16 404.783 121.935 408.669ZM103.747 395.567C106.035 402.564 108.522 409.396 111.196 416.047C104.513 412.196 98.0704 408.156 91.8872 403.944C89.9835 396.709 88.3291 389.287 86.9327 381.701C92.308 386.445 97.9166 391.072 103.747 395.567ZM85.7201 380.626C87.0976 388.283 88.7366 395.775 90.6282 403.081C83.9164 398.457 77.515 393.629 71.4471 388.616C70.3465 380.822 69.5773 372.841 69.1446 364.702C74.3834 370.134 79.9134 375.448 85.7201 380.626ZM72.5535 395.736C72.2357 393.864 71.9374 391.98 71.6588 390.085C77.7853 395.104 84.2452 399.935 91.0151 404.56C93.1114 412.485 95.5063 420.188 98.1886 427.639C96.4956 426.743 94.82 425.832 93.1619 424.907C87.4115 421.699 81.8736 418.315 76.5643 414.766C74.9939 408.577 73.6559 402.227 72.5535 395.736ZM85.4371 379.03C79.7008 373.873 74.2395 368.583 69.0676 363.178C68.7097 355.704 68.6345 348.101 68.8459 340.39C73.117 346.147 77.6406 351.838 82.4086 357.446C83.1919 364.767 84.2037 371.967 85.4371 379.03ZM82.2243 355.68C77.5373 350.118 73.0915 344.477 68.8944 338.772C69.1248 331.693 69.5961 324.525 70.3114 317.287C73.5741 323.254 77.0544 329.194 80.7491 335.093C81.0426 342.047 81.5361 348.914 82.2243 355.68ZM80.6696 333.073C77.0665 327.257 73.6724 321.402 70.4904 315.523C71.1828 308.873 72.0807 302.165 73.1864 295.413C75.4318 301.456 77.8634 307.501 80.4813 313.536C80.3699 320.115 80.4341 326.631 80.6696 333.073ZM80.53 311.118C78.0146 305.223 75.6774 299.321 73.5183 293.422C74.5688 287.228 75.7939 280.998 77.1955 274.743C78.4432 280.706 79.8481 286.692 81.4119 292.694C80.9655 298.882 80.6726 305.027 80.53 311.118ZM81.6485 289.59C80.1968 283.838 78.8916 278.101 77.7313 272.388C79.043 266.708 80.5002 261.008 82.1041 255.296C82.4088 260.981 82.8414 266.706 83.4049 272.463C82.6886 278.203 82.104 283.914 81.6485 289.59ZM83.9938 267.954C83.5399 262.707 83.1949 257.489 82.9569 252.306C84.4007 247.32 85.9564 242.326 87.6249 237.33C87.1131 242.411 86.6957 247.537 86.3755 252.703C85.478 257.805 84.6847 262.89 83.9938 267.954ZM88.0198 243.926C88.3274 240.271 88.6839 236.639 89.0882 233.031C90.2781 229.6 91.5212 226.169 92.8179 222.739C91.929 226.231 91.0824 229.751 90.2792 233.297C89.4755 236.846 88.7225 240.389 88.0198 243.926ZM84.4113 272.476C84.8624 268.869 85.3656 265.251 85.9215 261.622C85.7777 265.228 85.6812 268.851 85.6328 272.492C85.5844 276.133 85.5847 279.758 85.6326 283.366C85.1733 279.724 84.7664 276.093 84.4113 272.476ZM83.8738 276.985C84.4299 282.065 85.0879 287.17 85.8496 292.293C86.0324 297.467 86.3135 302.603 86.6902 307.697C85.155 302.658 83.7324 297.624 82.4215 292.602C82.7972 287.426 83.2806 282.218 83.8738 276.985ZM82.209 295.704C83.6893 301.203 85.3031 306.714 87.0516 312.229C87.5446 317.995 88.1604 323.704 88.8951 329.353C86.2785 324.026 83.8085 318.685 81.4852 313.337C81.5872 307.506 81.8275 301.626 82.209 295.704ZM90.2775 332.138C89.5685 326.995 88.9585 321.799 88.4505 316.555C90.0498 321.406 91.7536 326.259 93.5627 331.11C94.8181 336.137 96.1619 341.106 97.5906 346.014C95.0415 341.405 92.6038 336.777 90.2775 332.138ZM81.4508 315.752C83.9114 321.326 86.5309 326.891 89.3092 332.438C90.159 338.583 91.1498 344.653 92.2767 350.64C88.5901 345.396 85.0762 340.108 81.7375 334.786C81.4772 328.509 81.3803 322.161 81.4508 315.752ZM93.6722 352.611C92.56 346.888 91.5726 341.087 90.7146 335.216C93.3057 340.287 96.0297 345.341 98.8865 350.372C100.567 355.908 102.356 361.364 104.249 366.735C100.583 362.07 97.0564 357.359 93.6722 352.611ZM81.8268 336.803C85.2798 342.247 88.9157 347.655 92.7317 353.015C93.9905 359.473 95.408 365.833 96.9776 372.085C92.2435 367.145 87.7059 362.123 83.3706 357.033C82.6654 350.385 82.1491 343.637 81.8268 336.803ZM98.3783 373.538C96.8189 367.454 95.4044 361.265 94.1407 354.981C97.7061 359.921 101.425 364.819 105.295 369.667C107.404 375.501 109.635 381.232 111.982 386.854C107.286 382.491 102.75 378.049 98.3783 373.538ZM83.5623 358.796C87.9947 363.955 92.6345 369.042 97.4753 374.044C99.2086 380.786 101.119 387.402 103.2 393.878C97.458 389.411 91.9358 384.817 86.6437 380.109C85.3971 373.136 84.3677 366.026 83.5623 358.796ZM104.602 394.963C102.53 388.606 100.621 382.112 98.885 375.492C103.394 380.099 108.074 384.633 112.921 389.082C115.496 395.139 118.205 401.066 121.041 406.857C115.383 403.009 109.901 399.04 104.602 394.963ZM138.792 418.185C133.29 414.893 127.928 411.491 122.713 407.987C119.922 402.358 117.251 396.597 114.708 390.712C119.223 394.804 123.88 398.822 128.675 402.76C131.951 408.029 135.326 413.172 138.792 418.185ZM127.041 400.109C122.484 396.308 118.055 392.433 113.757 388.492C111.479 383.125 109.308 377.656 107.248 372.092C110.837 376.515 114.554 380.893 118.395 385.222C121.19 390.286 124.074 395.25 127.041 400.109ZM116.222 381.228C112.769 377.248 109.421 373.228 106.18 369.172C104.418 364.29 102.741 359.336 101.154 354.313C103.73 358.729 106.407 363.126 109.188 367.498C111.46 372.15 113.805 376.728 116.222 381.228ZM105.358 359.43C103.457 356.289 101.608 353.137 99.8114 349.975C98.7561 346.496 97.7437 342.984 96.7755 339.442C98.1107 342.795 99.4965 346.145 100.933 349.491C102.371 352.839 103.846 356.152 105.358 359.43ZM119.217 384.641C117.464 381.46 115.745 378.24 114.064 374.98C116.064 377.978 118.114 380.963 120.212 383.933C122.312 386.906 124.442 389.837 126.6 392.726C124.09 390.052 121.629 387.356 119.217 384.641ZM121.433 388.605C124.867 392.386 128.398 396.126 132.023 399.822C135.213 403.901 138.459 407.891 141.759 411.791C137.556 408.618 133.448 405.383 129.437 402.092C126.699 397.684 124.029 393.187 121.433 388.605ZM131.089 404.726C135.517 408.304 140.06 411.812 144.715 415.246C148.504 419.621 152.359 423.88 156.274 428.018C151.028 425.248 145.891 422.379 140.868 419.418C137.523 414.641 134.261 409.742 131.089 404.726ZM159.03 429.459C155.432 425.714 151.884 421.868 148.39 417.924C152.536 420.908 156.767 423.834 161.083 426.695C165.054 430.025 169.063 433.256 173.105 436.388C168.333 434.157 163.64 431.846 159.03 429.459ZM187.28 442.678C183.894 441.254 180.544 439.79 177.23 438.287C174.33 436.092 171.446 433.845 168.579 431.547C171.63 433.475 174.721 435.371 177.85 437.233C180.983 439.098 184.127 440.913 187.28 442.678ZM154.303 420.882C151.291 418.788 148.323 416.662 145.399 414.507C143.022 411.76 140.671 408.966 138.348 406.127C140.93 408.646 143.558 411.141 146.23 413.613C148.901 416.083 151.592 418.506 154.303 420.882ZM91.4945 322.422C90.2891 318.958 89.1373 315.495 88.0388 312.033C87.7304 308.414 87.4705 304.773 87.26 301.112C87.8685 304.665 88.527 308.227 89.2361 311.796C89.9451 315.364 90.6983 318.906 91.4945 322.422ZM102.974 195.926C101.448 199.234 99.9733 202.548 98.5489 205.865C99.6121 202.346 100.719 198.859 101.868 195.404C103.75 192.288 105.684 189.182 107.672 186.088C106.069 189.332 104.503 192.611 102.974 195.926ZM541.641 306.676C544.324 298.919 546.333 291.023 547.622 283.024C548.169 291.068 547.982 299.179 547.016 307.32C546.052 315.457 544.339 323.384 541.928 331.073C542.544 322.994 542.437 314.847 541.641 306.676ZM540.839 308.935C541.567 317.767 541.48 326.564 540.535 335.269C537.637 343.532 533.926 351.51 529.463 359.167C530.295 350.547 530.388 341.748 529.77 332.831C534.169 325.052 537.876 317.072 540.839 308.935ZM529.213 361.551C533.452 354.52 537.06 347.213 539.984 339.655C538.847 347.636 536.977 355.53 534.341 363.292C531.704 371.055 528.378 378.456 524.418 385.479C526.702 377.703 528.292 369.71 529.213 361.551ZM528.87 334.404C529.418 343.495 529.219 352.456 528.243 361.221C523.679 368.766 518.381 375.993 512.41 382.868C513.534 374.251 514.028 365.391 513.907 356.347C519.511 349.248 524.514 341.921 528.87 334.404ZM512.166 384.663C518.085 377.969 523.369 370.936 527.959 363.594C526.834 372.386 524.919 380.975 522.183 389.294C517.632 396.771 512.345 403.799 506.39 410.358C508.996 402.099 510.916 393.513 512.166 384.663ZM512.92 357.586C512.986 366.681 512.423 375.581 511.217 384.226C505.425 390.754 499.021 396.958 492.062 402.811C493.658 394.429 494.754 385.776 495.352 376.904C501.712 370.691 507.581 364.241 512.92 357.586ZM491.759 404.367C498.717 398.589 505.135 392.462 510.958 386.014C509.604 395.021 507.546 403.743 504.769 412.114C498.736 418.545 492.051 424.512 484.781 429.995C487.672 421.801 489.998 413.238 491.759 404.367ZM494.277 377.948C493.636 386.817 492.493 395.459 490.848 403.824C484.281 409.258 477.23 414.382 469.741 419.174C471.357 413.339 472.77 407.358 473.976 401.247C474.415 399.019 474.827 396.774 475.211 394.513C477.015 393.097 478.792 391.665 480.539 390.217C485.336 386.244 489.919 382.151 494.277 377.948ZM469.336 420.617C476.848 415.862 483.93 410.773 490.536 405.374C488.71 414.283 486.309 422.871 483.332 431.076C476.309 436.257 468.755 440.994 460.731 445.272C464.035 437.405 466.906 429.17 469.336 420.617ZM472.994 401.053C471.72 407.515 470.213 413.829 468.478 419.976C463.076 423.383 457.45 426.618 451.616 429.672C449.934 430.553 448.235 431.419 446.518 432.27C449.398 424.891 451.998 417.253 454.304 409.383C461.195 404.94 467.781 400.281 474.039 395.427C473.71 397.315 473.362 399.19 472.994 401.053ZM445.974 433.653C448.033 432.643 450.069 431.612 452.081 430.558C457.597 427.67 462.931 424.619 468.067 421.414C465.596 429.956 462.681 438.171 459.333 446.01C451.78 449.96 443.818 453.506 435.496 456.636C438.291 451.264 440.916 445.707 443.366 439.98C444.259 437.894 445.128 435.785 445.974 433.653ZM453.018 410.208C450.694 418.022 448.079 425.604 445.186 432.925C438.114 436.38 430.761 439.578 423.155 442.504C426.703 435.842 430.049 428.939 433.179 421.815C440.035 418.139 446.654 414.265 453.018 410.208ZM422.433 443.852C430.096 440.938 437.507 437.751 444.636 434.304C443.923 436.081 443.193 437.842 442.446 439.587C439.856 445.643 437.069 451.505 434.094 457.158C428.102 459.367 421.927 461.361 415.587 463.136C413.758 463.648 411.915 464.141 410.059 464.617C414.41 457.999 418.54 451.068 422.433 443.852ZM431.749 422.577C428.617 429.628 425.272 436.458 421.729 443.049C414.732 445.698 407.524 448.119 400.125 450.301C404.282 444.458 408.298 438.396 412.159 432.126C418.879 429.119 425.413 425.932 431.749 422.577ZM410.536 432.847C406.694 439.025 402.701 444.999 398.571 450.755C391.768 452.723 384.806 454.49 377.702 456.046C382.37 451.098 386.945 445.95 391.415 440.611C397.938 438.183 404.315 435.592 410.536 432.847ZM389.519 441.311C385.099 446.537 380.579 451.576 375.969 456.421C369.428 457.818 362.768 459.037 356.001 460.073C361.056 456.069 366.056 451.887 370.989 447.53C377.283 445.602 383.462 443.527 389.519 441.311ZM337.794 473.566C343.388 469.697 348.933 465.615 354.413 461.323C361.302 460.304 368.083 459.095 374.743 457.703C369.701 462.946 364.554 467.958 359.318 472.729C352.251 473.24 345.071 473.521 337.794 473.566ZM352.413 461.613C347.005 465.805 341.536 469.793 336.021 473.572C329.338 473.579 322.575 473.387 315.747 472.993C321.523 470.128 327.282 467.077 333.012 463.842C339.563 463.265 346.034 462.52 352.413 461.613ZM368.674 448.231C363.843 452.447 358.95 456.495 354.005 460.372C347.793 461.287 341.493 462.046 335.114 462.646C340.403 459.615 345.666 456.426 350.894 453.082C356.913 451.595 362.841 449.976 368.674 448.231ZM347.869 453.816C342.843 456.977 337.787 459.993 332.709 462.864C326.9 463.372 321.027 463.748 315.097 463.987C320.415 461.939 325.731 459.756 331.037 457.439C336.718 456.346 342.33 455.137 347.869 453.816ZM353.51 451.394C358.282 448.287 363.023 445.05 367.728 441.683C373.053 439.435 378.287 437.087 383.426 434.646C379.171 438.778 374.856 442.776 370.489 446.637C364.917 448.34 359.255 449.927 353.51 451.394ZM372.796 445.924C377.336 441.862 381.817 437.653 386.233 433.298C391.818 430.59 397.288 427.77 402.637 424.846C398.789 429.972 394.847 434.947 390.818 439.766C384.927 441.954 378.917 444.009 372.796 445.924ZM392.708 439.058C396.818 434.092 400.837 428.964 404.755 423.68C410.507 420.487 416.117 417.174 421.577 413.75C418.342 419.778 414.969 425.644 411.469 431.339C405.365 434.064 399.108 436.64 392.708 439.058ZM413.086 430.612C416.622 424.803 420.026 418.82 423.287 412.671C429.163 408.939 434.864 405.078 440.38 401.099C437.907 407.938 435.244 414.609 432.402 421.096C426.156 424.436 419.713 427.612 413.086 430.612ZM295.138 482.404C301.412 479.783 307.682 476.943 313.934 473.886C320.878 474.321 327.757 474.548 334.556 474.571C328.535 478.65 322.461 482.481 316.35 486.058C309.336 485.089 302.259 483.872 295.138 482.404ZM336.331 474.572C343.696 474.559 350.964 474.305 358.119 473.816C352.392 478.982 346.561 483.859 340.645 488.437C333.174 488.012 325.602 487.292 317.954 486.275C324.125 482.63 330.256 478.727 336.331 474.572ZM293.497 483.084C300.698 484.601 307.856 485.863 314.951 486.872C308.273 490.734 301.554 494.294 294.814 497.542C287.599 495.574 280.347 493.297 273.081 490.714C279.877 488.431 286.689 485.887 293.497 483.084ZM296.288 497.94C303.073 494.636 309.837 491.019 316.556 487.096C324.266 488.152 331.901 488.909 339.436 489.368C332.963 494.323 326.392 498.919 319.749 503.142C311.995 501.78 304.164 500.045 296.288 497.94ZM271.543 491.226C278.861 493.861 286.167 496.187 293.438 498.202C286.077 501.702 278.694 504.831 271.319 507.58C264.022 504.637 256.727 501.313 249.464 497.62C256.788 495.799 264.156 493.667 271.543 491.226ZM272.698 508.131C280.107 505.335 287.521 502.156 294.912 498.606C302.826 500.754 310.697 502.532 318.494 503.935C316.871 504.953 315.244 505.949 313.614 506.923C307.96 510.299 302.261 513.403 296.533 516.226C290.386 514.491 284.216 512.475 278.042 510.183C276.261 509.522 274.479 508.838 272.698 508.131ZM247.98 497.985C255.271 501.729 262.596 505.103 269.926 508.095C268.129 508.753 266.332 509.389 264.536 510.001C258.303 512.128 252.083 513.98 245.893 515.551C240.242 512.576 234.627 509.321 229.065 505.797C227.463 504.781 225.865 503.744 224.272 502.684C232.101 501.489 240.013 499.921 247.98 497.985ZM247.219 516.243C253.08 514.726 258.965 512.959 264.859 510.948C267.007 510.215 269.155 509.45 271.305 508.653C273.434 509.508 275.564 510.331 277.694 511.121C283.533 513.288 289.37 515.211 295.189 516.883C287.19 520.762 279.136 524.093 271.072 526.85C263.08 523.879 255.115 520.335 247.219 516.243ZM228.53 506.642C233.79 509.975 239.098 513.069 244.441 515.914C235.809 518.045 227.238 519.628 218.775 520.648C211.58 516.083 204.529 510.962 197.659 505.322C203.707 505.056 209.83 504.552 216.012 503.81C218.268 503.54 220.531 503.238 222.802 502.904C224.704 504.182 226.614 505.428 228.53 506.642ZM220.113 521.49C228.578 520.418 237.145 518.787 245.767 516.614C253.643 520.743 261.593 524.333 269.573 527.355C260.945 530.228 252.308 532.443 243.714 533.968C235.714 530.475 227.832 526.302 220.113 521.49ZM196.162 505.383C203.004 511.056 210.03 516.218 217.204 520.831C208.168 521.847 199.259 522.217 190.536 521.922C183.441 516.845 176.603 511.127 170.056 504.819C178.558 505.53 187.277 505.715 196.162 505.383ZM192.012 522.966C200.697 523.183 209.559 522.749 218.54 521.683C226.188 526.516 233.999 530.727 241.933 534.274C232.95 535.77 224.02 536.508 215.202 536.454C207.219 532.703 199.476 528.187 192.012 522.966ZM168.478 504.681C174.95 510.994 181.712 516.735 188.73 521.851C179.633 521.446 170.744 520.311 162.13 518.425C155.105 513.098 148.474 507.075 142.262 500.421C150.713 502.439 159.471 503.856 168.478 504.681ZM140.502 499.99C146.539 506.575 152.98 512.564 159.8 517.895C151.174 515.857 142.834 513.055 134.847 509.465C127.889 504.159 121.454 498.167 115.554 491.561C123.494 495.016 131.832 497.823 140.502 499.99ZM113.364 490.588C118.737 496.787 124.567 502.472 130.846 507.586C123.611 504.039 116.685 499.823 110.121 494.92C103.559 490.017 97.5521 484.572 92.1001 478.642C98.7863 483.213 105.893 487.193 113.364 490.588ZM89.1625 475.337C83.4538 468.696 78.4002 461.493 73.9994 453.798C81.0476 458.828 88.6193 463.307 96.6486 467.23C101.187 474.929 106.244 482.129 111.809 488.764C103.799 484.979 96.226 480.507 89.1625 475.337ZM85.6385 472.667C79.2947 467.692 73.3928 462.125 67.9885 455.96C62.5848 449.796 57.8388 443.217 53.737 436.277C59.3285 442.142 65.455 447.515 72.0596 452.39C76.0297 459.578 80.5551 466.355 85.6385 472.667ZM139.284 498.648C130.47 496.361 122.011 493.403 113.977 489.767C108.211 483.094 102.975 475.821 98.281 468.017C106.127 471.748 114.4 474.956 123.038 477.635C128.057 485.159 133.48 492.182 139.284 498.648ZM167.348 503.57C158.298 502.685 149.507 501.195 141.036 499.093C135.149 492.649 129.647 485.632 124.553 478.098C132.722 480.561 141.211 482.556 149.971 484.078C155.486 491.052 161.288 497.564 167.348 503.57ZM505.65 412.638C511.256 406.645 516.301 400.251 520.732 393.47C517.961 401.035 514.493 408.362 510.303 415.401C506.112 422.443 501.323 428.988 495.992 435.032C499.84 427.905 503.055 420.422 505.65 412.638ZM503.999 414.375C501.072 422.736 497.416 430.734 493.013 438.298C487.006 444.668 480.372 450.445 473.181 455.625C477.445 448.091 481.108 440.094 484.169 431.701C491.351 426.384 497.982 420.603 503.999 414.375ZM482.707 432.772C479.511 441.296 475.686 449.398 471.231 457.005C463.993 462.042 456.212 466.489 447.961 470.342C452.491 462.93 456.545 455.04 460.112 446.731C468.119 442.526 475.67 437.867 482.707 432.772ZM447.008 471.883C455.139 468.175 462.827 463.898 470.007 459.057C465.405 466.63 460.163 473.696 454.281 480.183C447.081 485.164 439.39 489.435 431.28 493.007C437.02 486.522 442.267 479.459 447.008 471.883ZM458.706 447.462C455.068 455.794 450.935 463.693 446.319 471.097C438.372 474.705 429.999 477.769 421.261 480.285C426.127 473.278 430.646 465.822 434.8 457.963C443.137 454.874 451.122 451.369 458.706 447.462ZM420.352 481.583C429.058 479.134 437.412 476.148 445.355 472.626C440.455 480.303 435.027 487.434 429.086 493.951C420.959 497.373 412.425 500.105 403.553 502.157C409.527 495.847 415.134 488.971 420.352 481.583ZM433.393 458.479C429.201 466.319 424.643 473.746 419.74 480.716C411.531 483.009 403.006 484.823 394.216 486.154C398.065 481.482 401.787 476.594 405.373 471.503C406.68 469.648 407.968 467.766 409.239 465.857C411.464 465.297 413.67 464.711 415.857 464.099C421.853 462.421 427.703 460.546 433.393 458.479ZM393.259 487.308C402.055 486.019 410.594 484.251 418.825 482.006C413.533 489.401 407.847 496.27 401.79 502.555C393.268 504.431 384.441 505.687 375.371 506.331C381.588 500.488 387.561 494.133 393.259 487.308ZM404.555 470.927C400.763 476.31 396.82 481.464 392.736 486.373C386.414 487.288 379.958 487.955 373.385 488.373C371.491 488.494 369.587 488.593 367.674 488.672C373.304 483.105 378.784 477.186 384.09 470.938C392.192 469.682 400.104 468.105 407.796 466.216C406.728 467.805 405.648 469.375 404.555 470.927ZM361.656 494.437C363.321 492.893 364.973 491.319 366.614 489.715C368.905 489.63 371.184 489.516 373.449 489.372C379.665 488.976 385.779 488.359 391.775 487.52C386.044 494.318 380.04 500.638 373.793 506.437C365.286 506.973 356.57 506.975 347.694 506.449C352.431 502.679 357.089 498.672 361.656 494.437ZM365.128 489.766C363.752 491.1 362.368 492.412 360.975 493.703C356.147 498.181 351.217 502.403 346.201 506.356C339.828 505.937 333.375 505.247 326.86 504.289C324.982 504.013 323.1 503.715 321.212 503.395C327.879 499.118 334.471 494.467 340.962 489.457C349.147 489.912 357.213 490.015 365.128 489.766ZM382.579 471.168C377.28 477.359 371.809 483.22 366.191 488.729C358.326 489.009 350.308 488.94 342.169 488.52C348.118 483.878 353.98 478.935 359.736 473.702C367.494 473.132 375.116 472.286 382.579 471.168ZM360.932 472.608C366.212 467.758 371.4 462.664 376.48 457.335C383.677 455.791 390.731 454.032 397.624 452.068C393.095 458.312 388.404 464.297 383.569 470.006C376.175 471.143 368.622 472.013 360.932 472.608ZM385.076 469.77C389.932 463.992 394.639 457.936 399.182 451.62C406.653 449.449 413.934 447.036 421.002 444.391C417.105 451.55 412.971 458.422 408.62 464.981C400.984 466.89 393.126 468.489 385.076 469.77ZM314.126 507.782C316.076 506.618 318.02 505.422 319.958 504.194C322.217 504.587 324.469 504.949 326.714 505.279C332.876 506.185 338.984 506.852 345.023 507.278C338.004 512.736 330.818 517.668 323.502 522.042C315.071 520.798 306.546 518.987 297.974 516.628C303.391 513.926 308.78 510.974 314.126 507.782ZM346.519 507.379C355.392 507.947 364.112 507.993 372.63 507.508C365.917 513.642 358.927 519.177 351.697 524.066C342.97 524.129 334.074 523.522 325.068 522.266C332.364 517.844 339.526 512.87 346.519 507.379ZM296.631 517.293C305.191 519.693 313.71 521.551 322.142 522.848C314.301 527.451 306.314 531.412 298.227 534.69C289.678 532.938 281.103 530.495 272.556 527.395C280.611 524.586 288.65 521.21 296.631 517.293ZM299.999 535.044C308.021 531.71 315.939 527.709 323.709 523.082C332.659 524.387 341.506 525.056 350.194 525.07C342.598 530.089 334.741 534.395 326.664 537.932C317.848 537.752 308.939 536.777 299.999 535.044ZM271.057 527.911C279.539 531.047 288.053 533.541 296.548 535.36C288.072 538.69 279.49 541.27 270.853 543.05C262.267 541.041 253.758 538.236 245.375 534.682C253.916 533.089 262.494 530.821 271.057 527.911ZM273.183 543.575C281.638 541.703 290.034 539.073 298.322 535.73C307.08 537.509 315.814 538.569 324.468 538.872C316.294 542.294 307.9 544.929 299.33 546.72C290.577 546.518 281.844 545.453 273.183 543.575ZM243.591 535.005C251.787 538.566 260.108 541.417 268.509 543.513C259.802 545.16 251.044 545.993 242.289 545.962C233.771 543.945 225.452 541.089 217.372 537.452C226.031 537.378 234.79 536.551 243.591 535.005ZM246.607 546.909C254.706 546.678 262.797 545.72 270.839 544.075C278.835 545.933 286.898 547.106 294.988 547.552C287.047 548.936 278.962 549.597 270.766 549.488C262.571 549.379 254.507 548.504 246.607 546.909ZM327.915 544.248C319.877 545.845 311.809 546.665 303.751 546.748C311.625 544.838 319.34 542.219 326.864 538.937C335.071 539.092 343.201 538.562 351.206 537.317C343.726 540.323 335.955 542.65 327.915 544.248ZM355.28 535.6C346.677 537.223 337.914 537.997 329.053 537.961C336.932 534.372 344.596 530.055 352.007 525.063C360.942 524.983 369.704 524.203 378.231 522.701C370.949 527.746 363.289 532.068 355.28 535.6ZM380.184 521.325C371.524 522.982 362.608 523.88 353.504 524.043C360.659 519.113 367.573 513.553 374.212 507.412C383.236 506.827 392.029 505.643 400.529 503.85C394.141 510.339 387.35 516.186 380.184 521.325ZM382.527 520.857C389.489 515.708 396.089 509.891 402.301 503.466C411.024 501.53 419.433 498.946 427.462 495.704C421.385 502.154 414.789 507.976 407.687 513.097C399.61 516.472 391.201 519.05 382.527 520.857ZM411.737 511.325C418.154 506.378 424.138 500.847 429.677 494.789C437.238 491.593 444.45 487.802 451.258 483.408C445.648 489.194 439.496 494.48 432.802 499.209C426.107 503.939 419.068 507.971 411.737 511.325ZM457.874 477.607C463.122 471.433 467.825 464.779 471.984 457.701C478.715 453.003 484.982 447.795 490.727 442.081C486.442 448.909 481.523 455.36 475.957 461.379C470.392 467.396 464.346 472.803 457.874 477.607ZM404.059 515.623C397.37 520.116 390.255 524.006 382.726 527.239C375.196 530.472 367.475 532.953 359.61 534.709C366.913 531.204 373.913 527.039 380.589 522.267C388.647 520.713 396.488 518.505 404.059 515.623ZM214.976 537.453C222.408 540.933 230.05 543.755 237.869 545.873C229.814 545.577 221.77 544.542 213.776 542.732C205.785 540.922 198.081 538.39 190.687 535.189C198.656 536.646 206.768 537.391 214.976 537.453ZM186.659 533.365C178.742 529.619 171.195 525.093 164.045 519.853C172.53 521.581 181.269 522.593 190.2 522.911C197.479 528.1 205.029 532.622 212.813 536.42C203.955 536.221 195.216 535.214 186.659 533.365ZM182.355 532.359C174.536 530.394 166.881 527.709 159.438 524.276C151.991 520.841 144.978 516.759 138.406 512.086C145.9 515.17 153.683 517.587 161.7 519.355C168.251 524.307 175.143 528.659 182.355 532.359ZM399.66 417.898C396.685 419.971 393.666 422.014 390.605 424.024C393.378 421.72 396.133 419.369 398.868 416.971C401.596 414.58 404.28 412.163 406.92 409.722C404.526 412.494 402.106 415.22 399.66 417.898ZM403.371 415.28C406.769 411.474 410.117 407.575 413.411 403.587C417.143 399.981 420.782 396.326 424.324 392.628C421.607 397.14 418.819 401.564 415.964 405.899C411.861 409.087 407.662 412.216 403.371 415.28ZM418.411 403.981C421.507 399.202 424.522 394.316 427.45 389.327C431.404 385.104 435.233 380.827 438.938 376.504C436.731 382.011 434.415 387.42 431.995 392.724C427.595 396.548 423.066 400.303 418.411 403.981ZM433.813 391.133C436.308 385.576 438.691 379.906 440.954 374.131C444.952 369.387 448.801 364.589 452.497 359.744C451.067 365.992 449.488 372.141 447.767 378.183C443.277 382.576 438.624 386.897 433.813 391.133ZM453.028 357.388C449.518 362.045 445.868 366.661 442.078 371.228C444.114 365.905 446.049 360.493 447.878 354.999C450.867 350.046 453.724 345.066 456.449 340.067C455.435 345.917 454.293 351.693 453.028 357.388ZM449.206 376.767C450.942 370.559 452.528 364.239 453.958 357.817C457.914 352.56 461.692 347.251 465.289 341.901C464.785 348.724 464.089 355.456 463.208 362.083C458.739 367.056 454.07 371.954 449.206 376.767ZM465.432 339.887C461.953 345.118 458.3 350.31 454.476 355.454C455.762 349.496 456.914 343.451 457.928 337.327C460.851 331.857 463.617 326.365 466.224 320.859C466.124 327.271 465.859 333.617 465.432 339.887ZM464.39 360.761C465.257 354.016 465.933 347.164 466.411 340.22C470.262 334.421 473.9 328.574 477.32 322.695C477.843 329.95 478.123 337.128 478.166 344.211C473.818 349.803 469.223 355.325 464.39 360.761ZM477.188 320.927C473.851 326.72 470.302 332.484 466.545 338.203C466.951 331.767 467.189 325.252 467.252 318.67C470.03 312.706 472.621 306.727 475.026 300.746C475.953 307.527 476.672 314.259 477.188 320.927ZM479.156 342.93C479.084 335.762 478.77 328.498 478.209 321.158C481.878 314.776 485.291 308.357 488.444 301.918C490.054 309.462 491.363 316.952 492.37 324.365C488.267 330.621 483.859 336.817 479.156 342.93ZM488.103 300.336C485.013 306.71 481.667 313.066 478.069 319.388C477.515 312.607 476.752 305.762 475.775 298.868C478.336 292.396 480.678 285.922 482.801 279.462C484.821 286.451 486.588 293.415 488.103 300.336ZM493.204 323.087C492.158 315.613 490.808 308.063 489.154 300.461C492.54 293.456 495.618 286.431 498.382 279.408C501.094 287.095 503.435 294.764 505.398 302.386C501.707 309.338 497.638 316.248 493.204 323.087ZM497.871 277.97C495.158 284.943 492.134 291.92 488.805 298.878C487.244 291.879 485.426 284.838 483.351 277.773C485.613 270.768 487.617 263.779 489.362 256.826C492.506 263.871 495.344 270.927 497.871 277.97ZM506.09 301.073C504.083 293.412 501.697 285.706 498.939 277.985C501.902 270.34 504.492 262.699 506.701 255.094C507.544 256.813 508.364 258.534 509.161 260.256C511.928 266.233 514.42 272.226 516.63 278.22C514.262 284.151 511.612 290.075 508.688 295.975C507.845 297.677 506.979 299.376 506.09 301.073ZM506.044 253.763C503.879 261.33 501.336 268.935 498.42 276.547C495.844 269.452 492.953 262.346 489.753 255.253C491.609 247.698 493.159 240.186 494.403 232.742C498.654 239.698 502.539 246.714 506.044 253.763ZM510.069 259.836C509.116 257.777 508.13 255.719 507.112 253.665C507.74 251.459 508.335 249.256 508.898 247.058C510.443 241.024 511.745 235.019 512.8 229.057C517.494 236.608 521.649 244.271 525.233 252.004C523.115 260.26 520.423 268.55 517.18 276.828C515.058 271.157 512.686 265.488 510.069 259.836ZM512.006 227.789C510.923 234.084 509.562 240.43 507.929 246.81C507.458 248.648 506.964 250.49 506.448 252.334C502.892 245.257 498.955 238.214 494.651 231.234C495.959 223.141 496.904 215.13 497.485 207.232C498.667 208.74 499.829 210.254 500.968 211.774C504.916 217.044 508.599 222.388 512.006 227.789ZM525.62 250.47C521.985 242.752 517.787 235.109 513.056 227.581C514.549 218.816 515.506 210.148 515.914 201.626C521.313 208.944 526.088 216.475 530.193 224.176C529.344 232.862 527.811 241.645 525.62 250.47ZM514.971 200.358C514.615 208.874 513.705 217.542 512.255 226.314C509.001 221.209 505.502 216.158 501.768 211.174C500.406 209.357 499.013 207.548 497.589 205.748C497.745 203.46 497.869 201.181 497.962 198.912C498.219 192.69 498.244 186.546 498.037 180.496C504.199 186.907 509.856 193.538 514.971 200.358ZM530.36 222.376C526.205 214.746 521.398 207.288 515.984 200.043C516.346 191.006 516.087 182.137 515.192 173.494C520.978 180.526 526.083 187.892 530.445 195.556C531.188 204.343 531.149 213.304 530.36 222.376ZM514.036 172.105C515.011 180.778 515.338 189.689 515.03 198.778C509.869 191.983 504.173 185.379 497.981 178.999C497.619 170.115 496.753 161.437 495.38 153.016C502.182 159.052 508.419 165.425 514.036 172.105ZM473.503 136.067C480.862 141.055 487.773 146.365 494.193 151.971C495.616 160.376 496.528 169.044 496.933 177.927C492.689 173.61 488.217 169.397 483.529 165.299C481.82 163.805 480.082 162.326 478.316 160.863C477.992 158.592 477.64 156.338 477.26 154.1C476.217 147.959 474.964 141.942 473.503 136.067ZM482.87 166.052C487.828 170.386 492.541 174.846 496.996 179.421C497.246 185.802 497.234 192.292 496.963 198.871C496.885 200.768 496.785 202.673 496.663 204.585C491.714 198.403 486.401 192.335 480.741 186.404C480.338 178.215 479.597 170.182 478.522 162.336C479.992 163.564 481.441 164.802 482.87 166.052ZM480.812 187.931C486.415 193.849 491.672 199.902 496.565 206.066C496.021 213.918 495.114 221.885 493.845 229.935C489.851 223.533 485.547 217.186 480.944 210.915C481.189 203.14 481.143 195.47 480.812 187.931ZM480.889 212.535C485.427 218.771 489.669 225.08 493.603 231.442C492.4 238.826 490.893 246.279 489.083 253.777C486.102 247.259 482.861 240.752 479.364 234.276C480.12 226.953 480.627 219.7 480.889 212.535ZM479.177 236.042C482.605 242.456 485.78 248.898 488.699 255.35C487.002 262.226 485.05 269.139 482.846 276.071C480.895 269.557 478.726 263.024 476.339 256.488C477.498 249.624 478.443 242.804 479.177 236.042ZM475.997 258.48C478.312 264.917 480.414 271.348 482.304 277.759C480.244 284.119 477.971 290.494 475.486 296.868C474.546 290.492 473.425 284.075 472.12 277.628C473.596 271.217 474.888 264.83 475.997 258.48ZM471.569 279.983C472.804 286.271 473.862 292.529 474.748 298.746C472.432 304.586 469.939 310.425 467.268 316.252C467.287 310.162 467.157 304.016 466.876 297.822C468.599 291.861 470.163 285.912 471.569 279.983ZM465.999 300.809C466.223 306.736 466.307 312.616 466.254 318.444C463.79 323.727 461.18 329 458.423 334.253C459.307 328.631 460.074 322.945 460.719 317.199C462.614 311.732 464.373 306.266 465.999 300.809ZM459.206 321.486C458.559 326.71 457.812 331.883 456.968 337.001C454.519 341.577 451.96 346.137 449.289 350.677C450.845 345.817 452.318 340.895 453.704 335.912C455.643 331.107 457.477 326.297 459.206 321.486ZM450.27 344.156C449.211 347.662 448.108 351.136 446.964 354.578C445.09 357.682 443.163 360.776 441.184 363.857C442.776 360.632 444.333 357.372 445.853 354.077C447.376 350.775 448.848 347.467 450.27 344.156ZM429.73 385.392C432.27 380.947 434.743 376.422 437.143 371.82C440.032 367.532 442.82 363.216 445.506 358.878C443.785 363.862 441.976 368.775 440.083 373.613C436.737 377.579 433.285 381.507 429.73 385.392ZM425.664 387.989C427.849 385.065 429.984 382.125 432.071 379.17C430.298 382.396 428.488 385.58 426.644 388.724C424.152 391.384 421.611 394.023 419.021 396.639C421.264 393.798 423.478 390.915 425.664 387.989ZM459.738 316.976C458.546 320.412 457.301 323.847 456.002 327.282C456.893 323.783 457.742 320.256 458.547 316.703C459.351 313.152 460.104 309.606 460.807 306.067C460.5 309.726 460.143 313.363 459.738 316.976ZM461.201 312.677C461.713 307.591 462.131 302.461 462.452 297.289C463.348 292.19 464.141 287.108 464.832 282.047C465.286 287.296 465.631 292.516 465.869 297.702C464.425 302.688 462.869 307.681 461.201 312.677ZM466.722 294.712C466.417 289.024 465.984 283.298 465.421 277.538C466.137 271.796 466.722 266.083 467.178 260.406C468.63 266.161 469.935 271.899 471.096 277.614C469.784 283.296 468.326 288.998 466.722 294.712ZM466.405 257.394C466.029 262.572 465.545 267.781 464.952 273.015C464.396 267.938 463.739 262.836 462.977 257.715C462.794 252.537 462.513 247.398 462.136 242.301C463.671 247.339 465.094 252.372 466.405 257.394ZM471.632 275.259C470.384 269.295 468.979 263.306 467.414 257.302C467.86 251.115 468.153 244.973 468.296 238.882C470.812 244.779 473.149 250.682 475.309 256.582C474.258 262.775 473.033 269.005 471.632 275.259ZM467.341 236.664C467.239 242.493 466.998 248.372 466.617 254.292C465.137 248.794 463.523 243.283 461.775 237.768C461.282 232.005 460.666 226.297 459.932 220.65C462.548 225.976 465.018 231.316 467.341 236.664ZM475.641 254.591C473.395 248.547 470.963 242.501 468.345 236.464C468.456 229.885 468.392 223.369 468.156 216.927C471.76 222.744 475.155 228.6 478.337 234.48C477.644 241.13 476.747 247.838 475.641 254.591ZM467.088 215.214C467.349 221.491 467.445 227.839 467.375 234.249C464.915 228.675 462.296 223.111 459.518 217.565C458.668 211.419 457.677 205.349 456.55 199.361C460.236 204.605 463.75 209.893 467.088 215.214ZM478.516 232.716C475.253 226.748 471.772 220.807 468.077 214.907C467.783 207.952 467.29 201.085 466.601 194.318C471.289 199.881 475.735 205.523 479.933 211.229C479.703 218.308 479.231 225.477 478.516 232.716ZM465.455 192.965C466.16 199.614 466.677 206.362 466.999 213.197C463.546 207.753 459.911 202.346 456.095 196.986C454.836 190.528 453.419 184.167 451.849 177.914C456.583 182.854 461.12 187.876 465.455 192.965ZM479.981 209.611C475.71 203.853 471.186 198.161 466.417 192.552C465.634 185.233 464.622 178.034 463.389 170.972C469.126 176.129 474.587 181.42 479.76 186.825C480.118 194.298 480.193 201.901 479.981 209.611ZM462.183 169.893C463.429 176.865 464.458 183.974 465.263 191.202C460.831 186.044 456.192 180.957 451.351 175.955C449.618 169.214 447.708 162.6 445.628 156.126C451.369 160.592 456.891 165.186 462.183 169.893ZM479.683 185.301C474.444 179.869 468.913 174.554 463.106 169.376C461.729 161.719 460.09 154.226 458.198 146.92C464.91 151.545 471.312 156.374 477.38 161.387C478.481 169.18 479.25 177.162 479.683 185.301ZM456.939 146.058C458.843 153.293 460.497 160.715 461.894 168.301C456.519 163.557 450.911 158.931 445.081 154.436C442.793 147.439 440.306 140.607 437.631 133.955C444.314 137.807 450.756 141.846 456.939 146.058ZM477.168 159.917C471.042 154.899 464.581 150.067 457.811 145.442C455.714 137.514 453.319 129.81 450.636 122.358C452.329 123.254 454.004 124.164 455.662 125.089C461.413 128.298 466.952 131.682 472.262 135.231C473.833 141.422 475.171 147.774 476.274 154.267C476.592 156.139 476.89 158.022 477.168 159.917ZM449.322 121.667C452.019 129.062 454.431 136.711 456.547 144.583C450.293 140.359 443.779 136.31 437.023 132.453C434.083 125.249 430.922 118.26 427.552 111.506C435.079 114.633 442.344 118.026 449.322 121.667ZM404.738 103.1C412.076 105.477 419.217 108.089 426.141 110.924C429.508 117.606 432.67 124.522 435.613 131.653C429.369 128.131 422.922 124.771 416.284 121.587C412.591 115.217 408.738 109.051 404.738 103.1ZM417.171 123.125C423.715 126.3 430.072 129.646 436.227 133.151C438.896 139.712 441.381 146.452 443.671 153.356C438.264 149.232 432.668 145.221 426.893 141.334C423.796 135.1 420.552 129.027 417.171 123.125ZM427.787 143.147C433.445 146.995 438.927 150.963 444.226 155.04C446.297 161.396 448.205 167.889 449.941 174.506C445.432 169.899 440.751 165.365 435.904 160.915C433.33 154.861 430.622 148.936 427.787 143.147ZM436.843 163.144C441.539 167.507 446.076 171.949 450.448 176.46C452.008 182.546 453.422 188.736 454.686 195.021C451.12 190.08 447.401 185.181 443.531 180.333C441.422 174.499 439.19 168.767 436.843 163.144ZM444.577 183.265C448.244 187.931 451.77 192.642 455.155 197.39C456.267 203.114 457.254 208.915 458.112 214.787C455.521 209.715 452.797 204.661 449.94 199.629C448.259 194.093 446.47 188.636 444.577 183.265ZM451.236 203.987C453.785 208.597 456.223 213.225 458.55 217.865C459.258 223.006 459.868 228.2 460.376 233.442C458.775 228.588 457.07 223.731 455.26 218.877C454.006 213.855 452.663 208.891 451.236 203.987ZM457.328 227.565C458.535 231.032 459.688 234.499 460.788 237.964C461.096 241.587 461.356 245.231 461.567 248.896C460.958 245.339 460.299 241.775 459.589 238.203C458.88 234.631 458.126 231.085 457.328 227.565ZM449.015 200.026C450.069 203.501 451.08 207.008 452.047 210.545C450.713 207.196 449.328 203.849 447.893 200.506C446.458 197.164 444.985 193.857 443.476 190.585C445.375 193.722 447.221 196.869 449.015 200.026ZM447.672 195.688C445.1 191.277 442.425 186.885 439.647 182.517C437.374 177.862 435.027 173.281 432.61 168.778C436.061 172.756 439.406 176.774 442.646 180.828C444.408 185.711 446.085 190.665 447.672 195.688ZM441.578 177.908C437.99 173.488 434.276 169.111 430.436 164.785C427.641 159.718 424.756 154.752 421.787 149.891C426.343 153.692 430.771 157.566 435.068 161.506C437.346 166.874 439.518 172.343 441.578 177.908ZM419.391 147.909C422.131 152.319 424.801 156.817 427.398 161.401C423.962 157.618 420.429 153.875 416.801 150.177C413.61 146.096 410.363 142.105 407.062 138.203C411.267 141.378 415.378 144.615 419.391 147.909ZM434.117 159.286C429.603 155.195 424.947 151.177 420.154 147.24C416.879 141.973 413.505 136.832 410.041 131.822C415.541 135.112 420.901 138.514 426.115 142.016C428.905 147.644 431.575 153.402 434.117 159.286ZM407.965 130.588C411.308 135.364 414.569 140.26 417.74 145.274C413.309 141.694 408.763 138.184 404.106 134.749C400.32 130.377 396.468 126.122 392.556 121.986C397.803 124.758 402.941 127.627 407.965 130.588ZM425.213 140.211C419.845 136.642 414.325 133.181 408.66 129.837C404.883 124.449 401.001 119.214 397.023 114.14C403.356 116.728 409.543 119.469 415.573 122.356C418.922 128.143 422.138 134.098 425.213 140.211ZM395.152 113.382C399.052 118.308 402.862 123.387 406.573 128.614C401.306 125.551 395.915 122.588 390.407 119.733C386.107 115.261 381.738 110.932 377.306 106.75C383.371 108.826 389.323 111.039 395.152 113.382ZM414.681 120.823C408.535 117.913 402.228 115.154 395.772 112.553C391.446 107.098 387.009 101.831 382.474 96.7607C389.535 98.5054 396.448 100.456 403.197 102.605C407.172 108.468 411.005 114.545 414.681 120.823ZM380.751 96.3398C385.231 101.305 389.616 106.462 393.895 111.803C387.901 109.428 381.78 107.19 375.542 105.096C370.726 100.61 365.84 96.2969 360.893 92.16C367.628 93.3744 374.251 94.77 380.751 96.3398ZM340.072 89.0313C346.436 89.8006 352.717 90.7278 358.906 91.8075C363.745 95.8149 368.529 99.9917 373.247 104.334C367.458 102.433 361.571 100.656 355.59 99.0093C350.453 95.5278 345.277 92.2014 340.072 89.0313ZM358.16 100.766C363.868 102.386 369.49 104.124 375.018 105.976C379.283 109.953 383.492 114.066 387.637 118.312C382.561 115.733 377.387 113.245 372.119 110.855C367.505 107.363 362.849 104 358.16 100.766ZM375.729 113.619C380.5 115.849 385.192 118.16 389.8 120.546C393.395 124.287 396.94 128.13 400.431 132.071C396.284 129.085 392.05 126.159 387.733 123.297C383.768 119.972 379.765 116.746 375.729 113.619ZM394.513 129.109C397.527 131.205 400.497 133.331 403.422 135.488C405.801 138.236 408.153 141.031 410.477 143.871C407.895 141.353 405.268 138.858 402.596 136.387C399.922 133.914 397.227 131.488 394.513 129.109ZM371.604 111.719C374.498 113.91 377.376 116.152 380.236 118.444C377.188 116.519 374.101 114.625 370.975 112.764C367.853 110.906 364.72 109.097 361.578 107.339C364.957 108.76 368.299 110.22 371.604 111.719ZM367.968 108.999C363.296 106.943 358.552 104.963 353.739 103.062C349.162 100.631 344.569 98.3036 339.964 96.0806C345.094 97.2702 350.162 98.5545 355.165 99.9299C359.462 102.844 363.731 105.868 367.968 108.999ZM352.585 98.1948C347.084 96.7277 341.507 95.3703 335.858 94.1272C330.616 91.6702 325.361 89.3476 320.101 87.1589C326.021 87.5559 331.88 88.0874 337.673 88.7493C342.673 91.7536 347.646 94.9025 352.585 98.1948ZM316.997 86.9635C321.808 88.9218 326.615 90.9923 331.412 93.1754C326.406 92.1338 321.345 91.1816 316.233 90.3221C311.252 88.8959 306.276 87.5752 301.31 86.3585C306.581 86.4555 311.812 86.658 316.997 86.9635ZM285.807 86.3781C289.478 86.3017 293.133 86.2764 296.769 86.3013C300.311 87.1271 303.858 88.006 307.41 88.9385C303.843 88.4192 300.253 87.9449 296.64 87.5166C293.018 87.0872 289.407 86.7079 285.807 86.3781ZM324.791 92.8747C328.4 93.5638 331.981 94.2994 335.535 95.0802C338.828 96.625 342.116 98.223 345.397 99.8743C342.009 98.6217 338.588 97.4085 335.136 96.2359C331.687 95.0645 328.238 93.9442 324.791 92.8747ZM422.224 157.272C424.737 159.949 427.2 162.647 429.614 165.365C431.369 168.549 433.089 171.772 434.772 175.035C432.768 172.032 430.716 169.042 428.614 166.067C426.513 163.094 424.383 160.162 422.224 157.272ZM463.194 266.643C463.653 270.282 464.06 273.91 464.414 277.525C463.964 281.129 463.461 284.745 462.905 288.37C463.049 284.768 463.145 281.146 463.194 277.508C463.242 273.87 463.242 270.248 463.194 266.643Z" stroke="url(#paint0_linear_0_61)"/>
<defs>
<linearGradient id="paint0_linear_0_61" x1="11.7542" y1="356.5" x2="537.072" y2="193.499" gradientUnits="userSpaceOnUse">
<stop stop-color="#FF5200"/>
<stop offset="0.467707" stop-color="#FCAF8A"/>
</linearGradient>
</defs>
</svg>
