<svg width="232" height="37" viewBox="0 0 232 37" fill="none" xmlns="http://www.w3.org/2000/svg">
<rect x="0.5" y="0.5" width="51" height="36" rx="7.5" fill="#161514"/>
<rect x="0.5" y="0.5" width="51" height="36" rx="7.5" stroke="#282726"/>
<g clip-path="url(#clip0_0_163)">
<path d="M29.1203 12.32H31.0003V9.14003C30.0901 9.04538 29.1755 8.99865 28.2603 9.00003C25.5403 9.00003 23.6803 10.66 23.6803 13.7V16.32H20.6104V19.88H23.6803V29H27.3603V19.88H30.4203L30.8803 16.32H27.3603V14.05C27.3603 13 27.6403 12.32 29.1203 12.32Z" fill="#F0F0F0"/>
</g>
<rect x="60.5" y="0.5" width="51" height="36" rx="7.5" fill="#161514"/>
<rect x="60.5" y="0.5" width="51" height="36" rx="7.5" stroke="#282726"/>
<path d="M93.0585 10.6666H78.9418C78.7831 10.6644 78.6255 10.6935 78.4781 10.7522C78.3307 10.8109 78.1962 10.8981 78.0825 11.0087C77.9687 11.1194 77.8779 11.2514 77.8151 11.3971C77.7524 11.5429 77.719 11.6996 77.7168 11.8583V26.1416C77.719 26.3003 77.7524 26.457 77.8151 26.6028C77.8779 26.7486 77.9687 26.8805 78.0825 26.9912C78.1962 27.1019 78.3307 27.189 78.4781 27.2477C78.6255 27.3064 78.7831 27.3355 78.9418 27.3333H93.0585C93.2171 27.3355 93.3747 27.3064 93.5222 27.2477C93.6696 27.189 93.804 27.1019 93.9178 26.9912C94.0316 26.8805 94.1224 26.7486 94.1851 26.6028C94.2479 26.457 94.2813 26.3003 94.2835 26.1416V11.8583C94.2813 11.6996 94.2479 11.5429 94.1851 11.3971C94.1224 11.2514 94.0316 11.1194 93.9178 11.0087C93.804 10.8981 93.6696 10.8109 93.5222 10.7522C93.3747 10.6935 93.2171 10.6644 93.0585 10.6666ZM82.7418 24.6166H80.2418V17.1166H82.7418V24.6166ZM81.4918 16.0666C81.147 16.0666 80.8164 15.9297 80.5726 15.6859C80.3288 15.4421 80.1918 15.1114 80.1918 14.7666C80.1918 14.4218 80.3288 14.0912 80.5726 13.8474C80.8164 13.6036 81.147 13.4666 81.4918 13.4666C81.6749 13.4459 81.8603 13.464 82.0359 13.5199C82.2114 13.5757 82.3732 13.668 82.5107 13.7908C82.6481 13.9135 82.7581 14.0639 82.8334 14.232C82.9086 14.4002 82.9476 14.5824 82.9476 14.7666C82.9476 14.9509 82.9086 15.133 82.8334 15.3012C82.7581 15.4694 82.6481 15.6198 82.5107 15.7425C82.3732 15.8652 82.2114 15.9575 82.0359 16.0134C81.8603 16.0692 81.6749 16.0874 81.4918 16.0666ZM91.7585 24.6166H89.2585V20.5916C89.2585 19.5833 88.9001 18.925 87.9918 18.925C87.7107 18.927 87.437 19.0152 87.2075 19.1776C86.978 19.34 86.8039 19.5688 86.7085 19.8333C86.6433 20.0292 86.615 20.2354 86.6251 20.4416V24.6083H84.1251C84.1251 24.6083 84.1251 17.7916 84.1251 17.1083H86.6251V18.1666C86.8522 17.7725 87.1826 17.4479 87.5805 17.2276C87.9784 17.0074 88.4289 16.8998 88.8835 16.9166C90.5501 16.9166 91.7585 17.9916 91.7585 20.3V24.6166Z" fill="#F0F0F0"/>
<rect x="120.5" y="0.5" width="51" height="36" rx="7.5" fill="#161514"/>
<rect x="120.5" y="0.5" width="51" height="36" rx="7.5" stroke="#282726"/>
<path d="M154.334 13.8333C153.707 14.105 153.045 14.2847 152.367 14.3666C153.082 13.9394 153.618 13.2672 153.875 12.4749C153.203 12.875 152.468 13.1568 151.7 13.3083C151.187 12.7521 150.504 12.3818 149.759 12.2556C149.013 12.1294 148.246 12.2544 147.578 12.6109C146.911 12.9674 146.381 13.5354 146.071 14.2256C145.762 14.9159 145.69 15.6894 145.867 16.4249C144.508 16.3562 143.179 16.0024 141.966 15.3865C140.753 14.7706 139.683 13.9063 138.825 12.8499C138.525 13.3751 138.367 13.9698 138.367 14.5749C138.366 15.1369 138.504 15.6904 138.768 16.1862C139.033 16.682 139.416 17.1047 139.884 17.4166C139.34 17.4018 138.809 17.256 138.334 16.9916V17.0333C138.338 17.8207 138.614 18.5825 139.115 19.1899C139.616 19.7973 140.311 20.213 141.084 20.3666C140.786 20.4571 140.478 20.5048 140.167 20.5083C139.952 20.5058 139.737 20.4862 139.525 20.4499C139.745 21.1273 140.171 21.7192 140.743 22.1434C141.315 22.5676 142.005 22.8029 142.717 22.8166C141.515 23.7627 140.03 24.279 138.5 24.2833C138.222 24.2842 137.943 24.2675 137.667 24.2333C139.229 25.2418 141.049 25.7772 142.909 25.7749C144.192 25.7883 145.465 25.5458 146.653 25.0617C147.841 24.5775 148.921 23.8615 149.83 22.9553C150.738 22.0492 151.457 20.9711 151.944 19.784C152.431 18.5969 152.677 17.3247 152.667 16.0416C152.667 15.8999 152.667 15.7499 152.667 15.5999C153.321 15.1123 153.885 14.5145 154.334 13.8333Z" fill="#F0F0F0"/>
<rect x="180.5" y="0.5" width="51" height="36" rx="7.5" fill="#161514"/>
<rect x="180.5" y="0.5" width="51" height="36" rx="7.5" stroke="#282726"/>
<path d="M215.167 17.0917C215.208 15.8989 214.947 14.715 214.409 13.65C214.043 13.213 213.536 12.9181 212.975 12.8167C210.656 12.6063 208.328 12.52 206 12.5583C203.681 12.5183 201.361 12.6017 199.05 12.8083C198.593 12.8914 198.171 13.1057 197.834 13.425C197.084 14.1167 197 15.3 196.917 16.3C196.796 18.098 196.796 19.902 196.917 21.7C196.941 22.2628 197.025 22.8215 197.167 23.3667C197.267 23.7875 197.471 24.1769 197.759 24.5C198.098 24.8362 198.531 25.0627 199 25.15C200.797 25.3718 202.607 25.4637 204.417 25.425C207.334 25.4667 209.892 25.425 212.917 25.1917C213.398 25.1097 213.843 24.8829 214.192 24.5417C214.425 24.3082 214.599 24.0226 214.7 23.7083C214.998 22.7938 215.145 21.8367 215.134 20.875C215.167 20.4083 215.167 17.5917 215.167 17.0917ZM204.117 21.375V16.2167L209.05 18.8083C207.667 19.575 205.842 20.4417 204.117 21.375Z" fill="#F0F0F0"/>
<defs>
<clipPath id="clip0_0_163">
<rect width="20" height="20" fill="white" transform="translate(16 9)"/>
</clipPath>
</defs>
</svg>
